<svg xmlns="http://www.w3.org/2000/svg" width="24.164" height="24.159" viewBox="0 0 24.164 24.159">
    <path id="prefix__icn-awesome-instagram" d="M12.079 8.123a6.194 6.194 0 1 0 6.194 6.194 6.184 6.184 0 0 0-6.194-6.194zm0 10.221a4.027 4.027 0 1 1 4.027-4.027 4.034 4.034 0 0 1-4.027 4.027zM19.972 7.87a1.445 1.445 0 1 1-1.445-1.445 1.441 1.441 0 0 1 1.445 1.445zm4.1 1.466a7.15 7.15 0 0 0-1.951-5.062 7.2 7.2 0 0 0-5.061-1.951c-1.995-.113-7.973-.113-9.967 0a7.186 7.186 0 0 0-5.062 1.946A7.173 7.173 0 0 0 .08 9.331c-.114 1.994-.114 7.969 0 9.969a7.15 7.15 0 0 0 1.951 5.06 7.206 7.206 0 0 0 5.062 1.951c1.995.113 7.973.113 9.967 0a7.15 7.15 0 0 0 5.062-1.951 7.2 7.2 0 0 0 1.952-5.06c.113-1.995.113-7.968 0-9.962zM21.5 21.438a4.077 4.077 0 0 1-2.3 2.3c-1.59.631-5.364.485-7.121.485s-5.536.14-7.121-.485a4.077 4.077 0 0 1-2.3-2.3c-.631-1.59-.485-5.364-.485-7.121s-.14-5.536.485-7.121a4.077 4.077 0 0 1 2.3-2.3c1.59-.631 5.364-.485 7.121-.485s5.536-.14 7.121.485a4.077 4.077 0 0 1 2.3 2.3c.631 1.59.485 5.364.485 7.121s.143 5.536-.485 7.121z" transform="translate(.005 -2.238)" style="fill:#222"/>
</svg>
