<svg xmlns="http://www.w3.org/2000/svg" width="24.155" height="24.155" viewBox="0 0 24.155 24.155">
    <path d="M24.155 2.588v18.979a2.589 2.589 0 0 1-2.588 2.588H8.325a13.816 13.816 0 0 0 1.477-3.2l.825-3.149a3.54 3.54 0 0 0 3.036 1.52c4 0 6.869-3.672 6.869-8.233 0-4.373-3.569-7.646-8.163-7.646-5.715 0-8.746 3.834-8.746 8.012 0 1.941 1.035 4.357 2.685 5.128.253.119.383.065.442-.178.043-.183.27-1.084.367-1.5a.391.391 0 0 0-.092-.377 5.161 5.161 0 0 1-.987-3.019 5.731 5.731 0 0 1 5.98-5.748 5.228 5.228 0 0 1 5.532 5.386c0 3.58-1.806 6.06-4.162 6.06a1.926 1.926 0 0 1-1.963-2.394c.375-1.567 1.095-3.267 1.095-4.405 0-2.858-4.071-2.464-4.071 1.348a4.838 4.838 0 0 0 .394 1.968c-1.693 7.16-1.946 7.252-1.6 10.385l.119.043H2.588A2.589 2.589 0 0 1 0 21.567V2.588A2.589 2.589 0 0 1 2.588 0h18.979a2.589 2.589 0 0 1 2.588 2.588z"/>
</svg>
