<svg xmlns="http://www.w3.org/2000/svg" id="prefix__trust-icn-google" width="71.578" height="23.562" viewBox="0 0 71.578 23.562">
    <defs>
        <style>
            .prefix__cls-1{fill:#222}
        </style>
    </defs>
    <path id="prefix__Path_4074" d="M83.063 30.888A5.907 5.907 0 1 1 77.156 25a5.815 5.815 0 0 1 5.907 5.888zm-2.586 0a3.329 3.329 0 1 0-6.642 0 3.329 3.329 0 1 0 6.642 0z" class="prefix__cls-1" data-name="Path 4074" transform="translate(-52.432 -18.488)"/>
    <path id="prefix__Path_4075" d="M131.063 30.888A5.907 5.907 0 1 1 125.156 25a5.815 5.815 0 0 1 5.907 5.888zm-2.586 0a3.329 3.329 0 1 0-6.642 0 3.329 3.329 0 1 0 6.642 0z" class="prefix__cls-1" data-name="Path 4075" transform="translate(-87.689 -18.488)"/>
    <path id="prefix__Path_4076" d="M178.517 25.356v10.57c0 4.348-2.564 6.124-5.6 6.124a5.607 5.607 0 0 1-5.219-3.47l2.251-.937a3.252 3.252 0 0 0 2.965 2.089c1.941 0 3.143-1.2 3.143-3.451v-.847h-.09a4.009 4.009 0 0 1-3.1 1.338 5.892 5.892 0 0 1 0-11.773 4.08 4.08 0 0 1 3.1 1.317h.09v-.958h2.455zm-2.272 5.553a3.317 3.317 0 0 0-3.145-3.589 3.4 3.4 0 0 0-3.278 3.589 3.379 3.379 0 0 0 3.278 3.547 3.291 3.291 0 0 0 3.145-3.547z" class="prefix__cls-1" data-name="Path 4076" transform="translate(-122.933 -18.488)"/>
    <path id="prefix__Path_4077" d="M218.022 3v17.255H215.5V3z" class="prefix__cls-1" data-name="Path 4077" transform="translate(-158.389 -2.328)"/>
    <path id="prefix__Path_4078" d="M237.832 32.818l2.007 1.338a5.861 5.861 0 0 1-4.906 2.609 5.761 5.761 0 0 1-5.843-5.888 5.6 5.6 0 0 1 5.553-5.888 5.468 5.468 0 0 1 5.038 3.746l.268.669-7.871 3.26a3 3 0 0 0 2.854 1.784 3.36 3.36 0 0 0 2.9-1.63zm-6.178-2.118l5.261-2.185a2.279 2.279 0 0 0-2.185-1.248 3.23 3.23 0 0 0-3.076 3.433z" class="prefix__cls-1" data-name="Path 4078" transform="translate(-168.371 -18.481)"/>
    <path id="prefix__Path_4079" d="M9.632 11.338V8.84h8.418a8.277 8.277 0 0 1 .125 1.508 8.249 8.249 0 0 1-2.163 5.843 8.36 8.36 0 0 1-6.376 2.564A9.271 9.271 0 0 1 .36 9.612 9.271 9.271 0 0 1 9.635.47 8.711 8.711 0 0 1 15.9 2.989l-1.763 1.763a6.367 6.367 0 0 0-4.5-1.784 6.558 6.558 0 0 0-6.561 6.644 6.558 6.558 0 0 0 6.557 6.644 6.116 6.116 0 0 0 4.616-1.829 5.178 5.178 0 0 0 1.351-3.092z" class="prefix__cls-1" data-name="Path 4079" transform="translate(-.36 -.47)"/>
</svg>
