<svg xmlns="http://www.w3.org/2000/svg" width="119.029" height="78.063" viewBox="0 0 119.029 78.063">
    <defs>
        <clipPath id="clip-path">
            <path id="Path_3" fill="none" d="M100.492 51.815h-10.7a.851.851 0 0 1-.851-.851V20.9a.851.851 0 0 1 .851-.851h10.7a.851.851 0 0 1 .851.851v30.064a.858.858 0 0 1-.851.851zm18.595-.851V30.85a10.8 10.8 0 0 0-10.8-10.8h-.814a.786.786 0 0 0-.785.785v30.129a.858.858 0 0 0 .851.851h10.7a.851.851 0 0 0 .847-.851zm-88.719 0V20.9a.851.851 0 0 0-.851-.851H18.8a.843.843 0 0 0-.844.844v30.07a.851.851 0 0 0 .844.851h10.7a.858.858 0 0 0 .851-.851zm17.744 0V30.85a10.8 10.8 0 0 0-10.8-10.8h-.822a.785.785 0 0 0-.8.771v30.143a.851.851 0 0 0 .851.851h10.712a.851.851 0 0 0 .851-.851zm-35.495 0V20.836a.778.778 0 0 0-.771-.785h-.829A10.8 10.8 0 0 0 .21 30.842v20.122a.858.858 0 0 0 .851.851h10.7a.851.851 0 0 0 .851-.851zM83.6 41.009V30.828a10.8 10.8 0 0 0-10.822-10.777h-.8a.778.778 0 0 0-.778.778v30.2a.785.785 0 0 0 .778.785h.8a10.8 10.8 0 0 0 10.814-10.783v-.022zm-17.751 9.9V.772a.771.771 0 0 0-1.172-.654C53.965 6 54.292 5.819 54.292 5.819a1.353 1.353 0 0 0-.844 1.418v43.669a.909.909 0 0 0 .909.909h10.582a.909.909 0 0 0 .909-.909z" transform="translate(-.21 -.006)"/>
        </clipPath>
        <style>
            .cls-2{fill:#eb1c24}.cls-4{fill:#fff}
        </style>
    </defs>
    <g id="Group_1056" transform="translate(-170.789 -36.863)">
        <path id="Path_1" d="M100.492 51.815h-10.7a.851.851 0 0 1-.851-.851V20.9a.851.851 0 0 1 .851-.851h10.7a.851.851 0 0 1 .851.851v30.064a.858.858 0 0 1-.851.851zm18.595-.851V30.85a10.8 10.8 0 0 0-10.8-10.8h-.814a.786.786 0 0 0-.785.785v30.129a.858.858 0 0 0 .851.851h10.7a.851.851 0 0 0 .847-.851zm-88.719 0V20.9a.851.851 0 0 0-.851-.851H18.8a.843.843 0 0 0-.844.844v30.07a.851.851 0 0 0 .844.851h10.7a.858.858 0 0 0 .851-.851zm17.744 0V30.85a10.8 10.8 0 0 0-10.8-10.8h-.822a.785.785 0 0 0-.8.771v30.143a.851.851 0 0 0 .851.851h10.712a.851.851 0 0 0 .851-.851zm-35.495 0V20.836a.778.778 0 0 0-.771-.785h-.829A10.8 10.8 0 0 0 .21 30.842v20.122a.858.858 0 0 0 .851.851h10.7a.851.851 0 0 0 .851-.851zM83.6 41.009V30.828a10.8 10.8 0 0 0-10.822-10.777h-.8a.778.778 0 0 0-.778.778v30.2a.785.785 0 0 0 .778.785h.8a10.8 10.8 0 0 0 10.814-10.783v-.022zm-17.751 9.9V.772a.771.771 0 0 0-1.172-.654C53.965 6 54.292 5.819 54.292 5.819a1.353 1.353 0 0 0-.844 1.418v43.669a.909.909 0 0 0 .909.909h10.582a.909.909 0 0 0 .909-.909z" class="cls-2" transform="translate(170.732 36.857)"/>
        <g id="Group_3" transform="translate(170.942 36.863)">
            <g id="Group_2" clip-path="url(#clip-path)">
                <g id="Group_1">
                    <path id="Path_2" d="M100.492 51.815h-10.7a.851.851 0 0 1-.851-.851V20.9a.851.851 0 0 1 .851-.851h10.7a.851.851 0 0 1 .851.851v30.064a.858.858 0 0 1-.851.851zm18.595-.851V30.85a10.8 10.8 0 0 0-10.8-10.8h-.814a.786.786 0 0 0-.785.785v30.129a.858.858 0 0 0 .851.851h10.7a.851.851 0 0 0 .847-.851zm-88.719 0V20.9a.851.851 0 0 0-.851-.851H18.8a.843.843 0 0 0-.844.844v30.07a.851.851 0 0 0 .844.851h10.7a.858.858 0 0 0 .851-.851zm17.744 0V30.85a10.8 10.8 0 0 0-10.8-10.8h-.822a.785.785 0 0 0-.8.771v30.143a.851.851 0 0 0 .851.851h10.712a.851.851 0 0 0 .851-.851zm-35.495 0V20.836a.778.778 0 0 0-.771-.785h-.829A10.8 10.8 0 0 0 .21 30.842v20.122a.858.858 0 0 0 .851.851h10.7a.851.851 0 0 0 .851-.851zM83.6 41.009V30.828a10.8 10.8 0 0 0-10.822-10.777h-.8a.778.778 0 0 0-.778.778v30.2a.785.785 0 0 0 .778.785h.8a10.8 10.8 0 0 0 10.814-10.783v-.022zm-17.751 9.9V.772a.771.771 0 0 0-1.172-.654C53.965 6 54.292 5.819 54.292 5.819a1.353 1.353 0 0 0-.844 1.418v43.669a.909.909 0 0 0 .909.909h10.582a.909.909 0 0 0 .909-.909z" class="cls-2" transform="translate(-.21 -.006)"/>
                </g>
            </g>
        </g>
        <path id="Path_4" d="M6.065 92.632l-2.843-5.5v9.635H0V82h3.636L7.5 89.541 11.25 82h3.636v14.762h-3.251v-9.737l-2.843 5.607z" class="cls-4" transform="translate(170.789 14.49)"/>
        <path id="Path_5" d="M29.968 97.129a3.643 3.643 0 0 1-1.062.451 6.7 6.7 0 0 1-1.723.167 4.813 4.813 0 0 1-3.062-.836 3.376 3.376 0 0 1-1.047-2.792V87.37h3.3v6.043a4.346 4.346 0 0 0 .051.727.948.948 0 0 0 .233.509 1.118 1.118 0 0 0 .509.305 3.175 3.175 0 0 0 .887.1 3.908 3.908 0 0 0 .96-.095 1.259 1.259 0 0 0 .589-.3 1.072 1.072 0 0 0 .291-.553 3.956 3.956 0 0 0 .073-.844v-5.9h3.3v9.963a6.735 6.735 0 0 1-.284 2.087 3.033 3.033 0 0 1-.909 1.411 3.922 3.922 0 0 1-1.665.814 10.678 10.678 0 0 1-2.5.255h-4.2l.495-2.683h3.462a6.531 6.531 0 0 0 1.1-.073 1.564 1.564 0 0 0 .727-.284 1.074 1.074 0 0 0 .378-.6 4.4 4.4 0 0 0 .1-1.018z" class="cls-4" transform="translate(164.499 13.025)"/>
        <path id="Path_6" d="M46.72 81.993h6.78a5.16 5.16 0 0 1 3.4.916 3.431 3.431 0 0 1 1.069 2.72v.225a3 3 0 0 1-1.825 3.054 3.185 3.185 0 0 1 1.687 1.2 3.749 3.749 0 0 1 .589 2.182v.371a3.636 3.636 0 0 1-1.32 3.149 6.227 6.227 0 0 1-3.767.967H46.72zm3.214 2.618v3.2h2.909a2.182 2.182 0 0 0 1.457-.371 1.514 1.514 0 0 0 .415-1.185v-.247a1.331 1.331 0 0 0-.429-1.105 1.992 1.992 0 0 0-1.316-.335zm0 9.548h3.134a2.47 2.47 0 0 0 1.549-.364 1.643 1.643 0 0 0 .451-1.338v-.284a1.71 1.71 0 0 0-.473-1.382 2.573 2.573 0 0 0-1.607-.385h-3.054z" class="cls-4" transform="translate(158.044 14.497)"/>
        <path id="Path_7" d="M68.115 82.664a1.622 1.622 0 0 1-.378 1.222 3.1 3.1 0 0 1-2.967 0 1.622 1.622 0 0 1-.393-1.222 1.593 1.593 0 0 1 .393-1.193 2.937 2.937 0 0 1 2.909 0 1.592 1.592 0 0 1 .436 1.193zm-3.527 2.989h3.3V96.51h-3.3z" class="cls-4" transform="translate(153.229 14.742)"/>
        <path id="Path_8" d="M71.087 96.046l5.149-6.079H71l.5-2.6h8.99v2.182l-5.19 6.082h5.483l-.494 2.6h-9.2z" class="cls-4" transform="translate(151.421 13.025)"/>
        <path id="Path_9" d="M96.2 82l6.545 9.366V82h3.243v14.762h-2.829l-6.479-9.279v9.279h-3.27V82z" class="cls-4" transform="translate(145.307 14.49)"/>
        <path id="Path_10" d="M116.817 82.668a1.622 1.622 0 0 1-.393 1.222 3.1 3.1 0 0 1-2.967 0 1.621 1.621 0 0 1-.4-1.222 1.593 1.593 0 0 1 .4-1.193 3.046 3.046 0 0 1 2.967 0 1.593 1.593 0 0 1 .393 1.193zm-3.527 2.989h3.3v10.857h-3.3z" class="cls-4" transform="translate(139.95 14.738)"/>
        <path id="Path_11" d="M125.3 87.309h1.3q.728 0 1.92.044l-.5 2.618h-2.6a5.927 5.927 0 0 0-1.084.022 1.222 1.222 0 0 0-.654.335 1.455 1.455 0 0 0-.335.727 6 6 0 0 0-.095 1.207v1.1a6 6 0 0 0 .095 1.207 1.4 1.4 0 0 0 .342.727 1.264 1.264 0 0 0 .669.327 5.122 5.122 0 0 0 1.033.087h1.593c.458 0 .974 0 1.542-.044l-.494 2.6h-2.72a10.169 10.169 0 0 1-2.567-.276 3.736 3.736 0 0 1-1.658-.851 3.146 3.146 0 0 1-.9-1.513 8.253 8.253 0 0 1-.269-2.283v-1.111a7.862 7.862 0 0 1 .276-2.262 3.315 3.315 0 0 1 .924-1.527 3.822 3.822 0 0 1 1.665-.865 10.069 10.069 0 0 1 2.517-.269z" class="cls-4" transform="translate(138.077 13.042)"/>
        <path id="Path_12" d="M133.69 96.514V81.09h3.3v4.981a3.4 3.4 0 0 1 1.04-.531 5.617 5.617 0 0 1 1.745-.218 4.878 4.878 0 0 1 3.062.865 3.316 3.316 0 0 1 1.113 2.792v7.534h-3.3v-6.85a3.7 3.7 0 0 0-.065-.727 1.069 1.069 0 0 0-.247-.516 1.109 1.109 0 0 0-.531-.305 3.723 3.723 0 0 0-.9-.095 3.457 3.457 0 0 0-.938.109 1.125 1.125 0 0 0-.887.945 4.275 4.275 0 0 0-.087.938v6.545z" class="cls-4" transform="translate(134.319 14.738)"/>
        <path id="Path_13" d="M153.18 93.776a3.644 3.644 0 0 0 .116.873 1.1 1.1 0 0 0 .327.538 1.34 1.34 0 0 0 .64.284 6.091 6.091 0 0 0 1 .073h4.014l-.473 2.574c-.727 0-1.338.044-1.934.044h-1.949a8.326 8.326 0 0 1-2.451-.305 3.251 3.251 0 0 1-2.378-2.451 8.641 8.641 0 0 1-.24-2.182V92.06a8.791 8.791 0 0 1 .262-2.276 3.709 3.709 0 0 1 .873-1.607 3.782 3.782 0 0 1 1.6-.967 8.047 8.047 0 0 1 2.436-.32 5.25 5.25 0 0 1 3.738 1.091 4.035 4.035 0 0 1 1.12 3.04v.436a6.634 6.634 0 0 1-.08 1.12 1.577 1.577 0 0 1-.305.727 1.141 1.141 0 0 1-.567.378 3.362 3.362 0 0 1-.873.1zm1.789-4.443a3.444 3.444 0 0 0-.909.095 1.054 1.054 0 0 0-.538.335 1.447 1.447 0 0 0-.269.654 6.2 6.2 0 0 0-.073 1.076h3.592a6.2 6.2 0 0 0-.073-1.076 1.362 1.362 0 0 0-.284-.654 1.1 1.1 0 0 0-.545-.335 3.423 3.423 0 0 0-.901-.095z" class="cls-4" transform="translate(129.911 13.156)"/>
    </g>
</svg>
