<svg xmlns="http://www.w3.org/2000/svg" width="513.992" height="225.087" viewBox="0 0 513.992 225.087">
    <defs>
        <clipPath id="clip-path">
            <path id="Path_5692" d="M432.415 223.273h-46.162a3.771 3.771 0 0 1-3.768-3.454V90.126a3.818 3.818 0 0 1 3.768-3.768h46.162a3.771 3.771 0 0 1 3.768 3.454v130.007a4.014 4.014 0 0 1-3.768 3.454zm80.077-3.454v-86.672a46.371 46.371 0 0 0-46.476-46.476h-3.454a3.485 3.485 0 0 0-3.454 3.454v129.694a3.818 3.818 0 0 0 3.768 3.768h46.162a3.564 3.564 0 0 0 3.454-3.768zm-382.485 0V90.126a3.818 3.818 0 0 0-3.768-3.768H80.077a3.818 3.818 0 0 0-3.768 3.768v129.693a3.771 3.771 0 0 0 3.454 3.768h46.162a3.9 3.9 0 0 0 4.082-3.768zm76.623 0v-86.672a46.371 46.371 0 0 0-46.476-46.476H156.7a3.485 3.485 0 0 0-3.454 3.454v129.694a3.818 3.818 0 0 0 3.768 3.768h46.162a4.033 4.033 0 0 0 3.454-3.768zm-153.245 0V89.812a3.423 3.423 0 0 0-3.14-3.454h-3.769A46.639 46.639 0 0 0 0 133.147v86.671a3.818 3.818 0 0 0 3.768 3.768H49.93a3.771 3.771 0 0 0 3.455-3.767zM359.561 176.8v-43.967a46.371 46.371 0 0 0-46.476-46.476h-3.454a3.485 3.485 0 0 0-3.454 3.454v130.322a3.485 3.485 0 0 0 3.454 3.454h3.454a46.841 46.841 0 0 0 46.476-46.79zm-76.623 42.7V3.454A3.439 3.439 0 0 0 279.8 0a4.463 4.463 0 0 0-1.884.628C231.754 25.75 233.01 25.122 233.01 25.122a5.905 5.905 0 0 0-3.77 6.278v188.419a3.818 3.818 0 0 0 3.768 3.768h45.534a3.894 3.894 0 0 0 3.768-4.082c.628.314.628-.005.628-.005z"/>
        </clipPath>
        <style>
            .cls-1{fill:none;stroke:#eb1c24;stroke-miterlimit:10;stroke-width:1.5px}
        </style>
    </defs>
    <g id="Layer_2_1_" transform="translate(.75 .75)">
        <g id="Content_-_Graphics">
            <path id="Path_5690" d="M432.415 223.273h-46.162a3.771 3.771 0 0 1-3.768-3.454V90.126a3.818 3.818 0 0 1 3.768-3.768h46.162a3.771 3.771 0 0 1 3.768 3.454v130.007a4.014 4.014 0 0 1-3.768 3.454zm80.077-3.454v-86.672a46.371 46.371 0 0 0-46.476-46.476h-3.454a3.485 3.485 0 0 0-3.454 3.454v129.694a3.818 3.818 0 0 0 3.768 3.768h46.162a3.564 3.564 0 0 0 3.454-3.768zm-382.485 0V90.126a3.818 3.818 0 0 0-3.768-3.768H80.077a3.818 3.818 0 0 0-3.768 3.768v129.693a3.771 3.771 0 0 0 3.454 3.768h46.162a3.9 3.9 0 0 0 4.082-3.768zm76.623 0v-86.672a46.371 46.371 0 0 0-46.476-46.476H156.7a3.485 3.485 0 0 0-3.454 3.454v129.694a3.818 3.818 0 0 0 3.768 3.768h46.162a4.033 4.033 0 0 0 3.454-3.768zm-153.245 0V89.812a3.423 3.423 0 0 0-3.14-3.454h-3.769A46.639 46.639 0 0 0 0 133.147v86.671a3.818 3.818 0 0 0 3.768 3.768H49.93a3.771 3.771 0 0 0 3.455-3.767zM359.561 176.8v-43.967a46.371 46.371 0 0 0-46.476-46.476h-3.454a3.485 3.485 0 0 0-3.454 3.454v130.322a3.485 3.485 0 0 0 3.454 3.454h3.454a46.841 46.841 0 0 0 46.476-46.79zm-76.623 42.7V3.454A3.439 3.439 0 0 0 279.8 0a4.463 4.463 0 0 0-1.884.628C231.754 25.75 233.01 25.122 233.01 25.122a5.905 5.905 0 0 0-3.77 6.278v188.419a3.818 3.818 0 0 0 3.768 3.768h45.534a3.894 3.894 0 0 0 3.768-4.082c.628.314.628-.005.628-.005z" class="cls-1"/>
            <g id="Group_1098">
                <g id="Group_1097" clip-path="url(#clip-path)">
                    <path id="Path_5691" d="M432.415 223.273h-46.162a3.771 3.771 0 0 1-3.768-3.454V90.126a3.818 3.818 0 0 1 3.768-3.768h46.162a3.771 3.771 0 0 1 3.768 3.454v130.007a4.014 4.014 0 0 1-3.768 3.454zm80.077-3.454v-86.672a46.371 46.371 0 0 0-46.476-46.476h-3.454a3.485 3.485 0 0 0-3.454 3.454v129.694a3.818 3.818 0 0 0 3.768 3.768h46.162a3.564 3.564 0 0 0 3.454-3.768zm-382.485 0V90.126a3.818 3.818 0 0 0-3.768-3.768H80.077a3.818 3.818 0 0 0-3.768 3.768v129.693a3.771 3.771 0 0 0 3.454 3.768h46.162a3.9 3.9 0 0 0 4.082-3.768zm76.623 0v-86.672a46.371 46.371 0 0 0-46.476-46.476H156.7a3.485 3.485 0 0 0-3.454 3.454v129.694a3.818 3.818 0 0 0 3.768 3.768h46.162a4.033 4.033 0 0 0 3.454-3.768zm-153.245 0V89.812a3.423 3.423 0 0 0-3.14-3.454h-3.769A46.639 46.639 0 0 0 0 133.147v86.671a3.818 3.818 0 0 0 3.768 3.768H49.93a3.771 3.771 0 0 0 3.455-3.767zM359.561 176.8v-43.967a46.371 46.371 0 0 0-46.476-46.476h-3.454a3.485 3.485 0 0 0-3.454 3.454v130.322a3.485 3.485 0 0 0 3.454 3.454h3.454a46.841 46.841 0 0 0 46.476-46.79zm-76.623 42.7V3.454A3.439 3.439 0 0 0 279.8 0a4.463 4.463 0 0 0-1.884.628C231.754 25.75 233.01 25.122 233.01 25.122a5.905 5.905 0 0 0-3.77 6.278v188.419a3.818 3.818 0 0 0 3.768 3.768h45.534a3.894 3.894 0 0 0 3.768-4.082c.628.314.628-.005.628-.005z" class="cls-1"/>
                </g>
                <path id="Path_5693" d="M432.415 223.273h-46.162a3.771 3.771 0 0 1-3.768-3.454V90.126a3.818 3.818 0 0 1 3.768-3.768h46.162a3.771 3.771 0 0 1 3.768 3.454v130.007a4.014 4.014 0 0 1-3.768 3.454zm80.077-3.454v-86.672a46.371 46.371 0 0 0-46.476-46.476h-3.454a3.485 3.485 0 0 0-3.454 3.454v129.694a3.818 3.818 0 0 0 3.768 3.768h46.162a3.564 3.564 0 0 0 3.454-3.768zm-382.485 0V90.126a3.818 3.818 0 0 0-3.768-3.768H80.077a3.818 3.818 0 0 0-3.768 3.768v129.693a3.771 3.771 0 0 0 3.454 3.768h46.162a3.9 3.9 0 0 0 4.082-3.768zm76.623 0v-86.672a46.371 46.371 0 0 0-46.476-46.476H156.7a3.485 3.485 0 0 0-3.454 3.454v129.694a3.818 3.818 0 0 0 3.768 3.768h46.162a4.033 4.033 0 0 0 3.454-3.768zm-153.245 0V89.812a3.423 3.423 0 0 0-3.14-3.454h-3.769A46.639 46.639 0 0 0 0 133.147v86.671a3.818 3.818 0 0 0 3.768 3.768H49.93a3.771 3.771 0 0 0 3.455-3.767zM359.561 176.8v-43.967a46.371 46.371 0 0 0-46.476-46.476h-3.454a3.485 3.485 0 0 0-3.454 3.454v130.322a3.485 3.485 0 0 0 3.454 3.454h3.454a46.841 46.841 0 0 0 46.476-46.79zm-76.623 42.7V3.454A3.439 3.439 0 0 0 279.8 0a4.463 4.463 0 0 0-1.884.628C231.754 25.75 233.01 25.122 233.01 25.122a5.905 5.905 0 0 0-3.77 6.278v188.419a3.818 3.818 0 0 0 3.768 3.768h45.534a3.894 3.894 0 0 0 3.768-4.082c.628.314.628-.005.628-.005z" class="cls-1"/>
            </g>
        </g>
    </g>
</svg>
