<svg xmlns="http://www.w3.org/2000/svg" width="24.164" height="24.159"><path d="M12.084 5.885a6.194 6.194 0 106.194 6.194 6.184 6.184 0 00-6.194-6.194zm0 10.221a4.027 4.027 0 114.027-4.027 4.034 4.034 0 01-4.027 4.027zm7.893-10.474a1.445 1.445 0 11-1.445-1.445 1.441 1.441 0 011.445 1.445zm4.1 1.466a7.15 7.15 0 00-1.951-5.062A7.2 7.2 0 0017.065.085c-1.995-.113-7.973-.113-9.967 0a7.186 7.186 0 00-5.062 1.946A7.173 7.173 0 00.085 7.093c-.114 1.994-.114 7.969 0 9.969a7.15 7.15 0 001.951 5.06 7.206 7.206 0 005.062 1.951c1.995.113 7.973.113 9.967 0a7.15 7.15 0 005.062-1.951 7.2 7.2 0 001.952-5.06c.113-1.995.113-7.968 0-9.962zM21.505 19.2a4.077 4.077 0 01-2.3 2.3c-1.59.631-5.364.485-7.121.485s-5.536.14-7.121-.485a4.077 4.077 0 01-2.3-2.3c-.631-1.59-.485-5.364-.485-7.121s-.14-5.536.485-7.121a4.077 4.077 0 012.3-2.3c1.59-.631 5.364-.485 7.121-.485s5.536-.14 7.121.485a4.077 4.077 0 012.3 2.3c.631 1.59.485 5.364.485 7.121s.143 5.536-.485 7.121z" fill="#222"/></svg>