<svg xmlns="http://www.w3.org/2000/svg" width="24.151" height="24.151"><path d="M10.054 14.07c0 1.04-.755 1.369-1.682 1.369H5.941v-2.851H8.42c1.003.005 1.634.42 1.634 1.482zm-.415-4.437c0-.954-.739-1.181-1.558-1.181H5.946v2.415h2.3c.814 0 1.391-.356 1.391-1.234zm7.132 1.251a1.607 1.607 0 00-1.709 1.6h3.353a1.536 1.536 0 00-1.644-1.6zm7.38-8.3v18.979a2.588 2.588 0 01-2.588 2.587H2.588A2.588 2.588 0 010 21.563V2.588A2.588 2.588 0 012.588 0h18.975a2.588 2.588 0 012.588 2.588zm-9.5 5.66h4.194V7.229h-4.198zm-2.318 5.946a2.68 2.68 0 00-1.887-2.782 2.012 2.012 0 001.412-1.995c0-2.059-1.536-2.561-3.31-2.561H3.666v10.35h5.018c1.882-.005 3.645-.906 3.645-3.008zm8.156-.8c0-2.216-1.3-4.065-3.644-4.065a3.762 3.762 0 00-3.833 3.968 3.652 3.652 0 003.833 3.935 3.342 3.342 0 003.509-2.523h-1.821a1.705 1.705 0 01-1.628.976 1.691 1.691 0 01-1.838-1.9h5.4c.007-.121.018-.255.018-.385z" fill="#222"/></svg>