<svg xmlns="http://www.w3.org/2000/svg" width="24.151" height="24.151"><path d="M22.426 0H1.72A1.732 1.732 0 000 1.741V22.41a1.732 1.732 0 001.72 1.74h20.706a1.737 1.737 0 001.725-1.741V1.741A1.737 1.737 0 0022.426 0zM7.3 20.701H3.72V9.175H7.3v11.526zm-1.79-13.1a2.075 2.075 0 112.075-2.075 2.076 2.076 0 01-2.076 2.075zm15.207 13.1h-3.58v-5.607c0-1.337-.027-3.057-1.86-3.057-1.865 0-2.151 1.456-2.151 2.96v5.7H9.547V9.175h3.434v1.575h.049a3.77 3.77 0 013.391-1.86c3.623 0 4.3 2.388 4.3 5.493z" fill="#222"/></svg>