<svg xmlns="http://www.w3.org/2000/svg" width="96" height="15.027"><path d="M91.76 14.899l-3.18-1.651a1.117 1.117 0 00-1.037 0l-3.178 1.651a1.113 1.113 0 01-1.618-1.163l.409-2.354.2-1.142a1.1 1.1 0 00-.32-.976l-.433-.417-2.139-2.058a1.1 1.1 0 01.618-1.881l3.554-.509a1.117 1.117 0 00.839-.6L87.064.617a1.122 1.122 0 012 0l.849 1.7.741 1.483a1.115 1.115 0 00.841.6l.122.019 3.431.49a1.1 1.1 0 01.617 1.881l-2.57 2.476a1.092 1.092 0 00-.32.976l.606 3.5a1.112 1.112 0 01-1.616 1.163zm-20.031 0l-3.18-1.651a1.117 1.117 0 00-1.037 0l-3.178 1.651a1.113 1.113 0 01-1.618-1.163l.41-2.354.2-1.142a1.1 1.1 0 00-.32-.976l-.433-.417-2.139-2.058a1.1 1.1 0 01.618-1.881l3.554-.509a1.117 1.117 0 00.839-.6L67.034.617a1.122 1.122 0 012 0l.849 1.7.74 1.483a1.118 1.118 0 00.841.6l.121.019 3.432.49a1.1 1.1 0 01.617 1.881l-2.57 2.476a1.092 1.092 0 00-.32.976l.606 3.5a1.112 1.112 0 01-1.616 1.163zm-20.031 0l-3.18-1.651a1.117 1.117 0 00-1.037 0l-3.178 1.651a1.113 1.113 0 01-1.618-1.163l.409-2.354.2-1.142a1.1 1.1 0 00-.32-.976l-.433-.417-2.139-2.058a1.1 1.1 0 01.618-1.881l3.554-.509a1.117 1.117 0 00.839-.6L47.002.617a1.122 1.122 0 012 0l.848 1.7.741 1.483a1.116 1.116 0 00.841.6l.122.019 3.432.49a1.1 1.1 0 01.617 1.881l-2.57 2.476a1.092 1.092 0 00-.32.976l.606 3.5a1.112 1.112 0 01-1.616 1.163zm-20.031 0l-3.18-1.651a1.117 1.117 0 00-1.037 0l-3.178 1.651a1.113 1.113 0 01-1.618-1.163l.409-2.354.2-1.142a1.1 1.1 0 00-.32-.976l-.433-.417-2.139-2.058a1.1 1.1 0 01.618-1.881l3.554-.509a1.117 1.117 0 00.839-.6L26.971.617a1.122 1.122 0 012 0l.848 1.7.741 1.483a1.116 1.116 0 00.841.6l.122.019 3.432.49a1.1 1.1 0 01.616 1.881l-2.57 2.476a1.091 1.091 0 00-.32.976l.606 3.5a1.112 1.112 0 01-1.616 1.163zm-20.031 0l-3.18-1.651a1.117 1.117 0 00-1.037 0l-3.178 1.651a1.113 1.113 0 01-1.618-1.163l.409-2.354.2-1.142a1.1 1.1 0 00-.32-.976l-.433-.417L.34 6.789a1.1 1.1 0 01.618-1.881l3.554-.509a1.117 1.117 0 00.839-.6L6.94.617a1.122 1.122 0 012 0l.848 1.7.741 1.483a1.116 1.116 0 00.841.6l.122.019 3.432.49a1.1 1.1 0 01.617 1.881l-2.57 2.476a1.091 1.091 0 00-.32.976l.606 3.5a1.112 1.112 0 01-1.616 1.163z" fill="#ff4040"/></svg>