<svg xmlns="http://www.w3.org/2000/svg" width="73.846" height="48.242"><defs><style>.prefix__cls-1,.prefix__cls-2{fill:#222}.prefix__cls-1{fill-rule:evenodd}</style></defs><g id="prefix__trust-icn-bbb-a-plus" transform="translate(-.777)"><g id="prefix__Group_879" data-name="Group 879" transform="translate(.777)"><g id="prefix__Group_874" data-name="Group 874" transform="translate(4.027)"><path id="prefix__Path_4124" d="M1121.889 941.1l-1.969 2.711a3.672 3.672 0 00.667 4.741l3.65 2.635c.627.452.676.9.379 1.378l.531.394 1.848-2.56a3.465 3.465 0 00-.651-4.968l-3.681-2.681a.923.923 0 01-.242-1.272l-.53-.379z" class="prefix__cls-1" data-name="Path 4124" transform="translate(-1116.97 -929.117)"/><path id="prefix__Path_4125" d="M1132.506 880.11l-3.066 4.239a5.26 5.26 0 001.049 6.824l5.04 3.7a2.844 2.844 0 01.411 3.638l.427.321 3.476-4.891a5.146 5.146 0 00-.981-7.22l-5.39-3.914a1.64 1.64 0 01-.5-2.368l-.464-.328z" class="prefix__cls-1" data-name="Path 4125" transform="translate(-1124.428 -880.11)"/><path id="prefix__Path_4126" d="M1107.28 1007.979h4.062l.724 2.463h6.638l.724-2.463h4.062l-.533-1.811h-15.145l-.532 1.811z" class="prefix__cls-1" data-name="Path 4126" transform="translate(-1107.28 -981.394)"/></g><g id="prefix__Group_875" data-name="Group 875" transform="translate(0 30.582)"><path id="prefix__Path_4127" d="M1094.309 1041.83c-.173-1.171-.645-1.452-1.589-1.868a2.1 2.1 0 001.152-1.873c0-1.683-1.378-2.368-2.882-2.368h-4.2v8.931h4.161c1.778 0 3.661-.777 3.358-2.822zm-5.619-4.4h2.182a.955.955 0 11.086 1.905h-2.268zm2.434 5.536h-2.434v-2.038h2.434c1.79-.001 1.681 2.036 0 2.036z" class="prefix__cls-1" data-name="Path 4127" transform="translate(-1086.791 -1035.721)"/><path id="prefix__Path_4128" d="M1136.742 1041.83c-.173-1.171-.645-1.452-1.589-1.868a2.1 2.1 0 001.152-1.873c0-1.683-1.378-2.368-2.882-2.368h-4.2v8.931h4.161c1.777 0 3.66-.777 3.358-2.822zm-5.619-4.4h2.182a.955.955 0 11.086 1.905h-2.268zm2.434 5.536h-2.434v-2.038h2.434c1.79-.001 1.681 2.036 0 2.036z" class="prefix__cls-2" data-name="Path 4128" transform="translate(-1120.884 -1035.721)"/><path id="prefix__Path_4129" d="M1179.175 1041.83c-.173-1.171-.645-1.452-1.589-1.868a2.1 2.1 0 001.152-1.873c0-1.683-1.378-2.368-2.882-2.368h-4.2v8.931h4.161c1.777 0 3.66-.777 3.358-2.822zm-5.619-4.4h2.182a.955.955 0 11.086 1.905h-2.268zm2.434 5.536h-2.434v-2.038h2.434c1.789-.001 1.68 2.036 0 2.036z" class="prefix__cls-1" data-name="Path 4129" transform="translate(-1154.978 -1035.721)"/></g><g id="prefix__Group_876" data-name="Group 876" transform="translate(24.791 35.827)"><path id="prefix__Path_4130" d="M1216.55 1065.015a1.885 1.885 0 01-1 1.007 1.9 1.9 0 01-1.477 0 1.866 1.866 0 01-.595-.4 1.889 1.889 0 01-.4-.6 1.892 1.892 0 010-1.454 1.884 1.884 0 011-1.007 1.9 1.9 0 011.478 0 1.856 1.856 0 01.992 1 1.889 1.889 0 010 1.454zm-.2-1.379a1.672 1.672 0 00-.348-.53 1.611 1.611 0 00-.524-.356 1.671 1.671 0 00-1.846.364 1.724 1.724 0 00-.353 1.835 1.614 1.614 0 00.348.53 1.631 1.631 0 00.527.355 1.671 1.671 0 001.846-.363 1.693 1.693 0 00.351-.532 1.733 1.733 0 000-1.3zm-.756.662a.706.706 0 01-.312.223l.488.717h-.514l-.426-.644h-.348v.644h-.441v-2h.888a.875.875 0 01.571.174.593.593 0 01.213.486.627.627 0 01-.118.402zm-.421-.6a.412.412 0 00-.26-.073h-.431v.587h.442a.365.365 0 00.254-.08.271.271 0 00.088-.21.265.265 0 00-.092-.222z" class="prefix__cls-2" data-name="Path 4130" transform="translate(-1212.936 -1062.413)"/></g></g><g id="prefix__Group_878" data-name="Group 878" transform="translate(46.467 8.37)"><path id="prefix__Path_4131" d="M12.747-86.62h3.9l-6.46-16.765H5.71L-.775-86.62h3.921L4.2-89.511h7.49zm-4.8-13.673l2.764 7.693H5.157zm14.93 6.183h4.5v-1.99h-4.5v-4.9H20.69v4.9h-4.524v1.986h4.524v5.1h2.187z" class="prefix__cls-2" data-name="Path 4131" transform="translate(.775 103.385)"/><path id="prefix__Path_4132" d="M4.221-39.632H5.6V-43.1a1.749 1.749 0 011.293-.587 1.832 1.832 0 01.38.033V-45a2.245 2.245 0 00-1.673.837v-.717H4.221zm7.062 0h1.38v-3.39c0-1.51-1.1-1.988-2.292-1.988a3.442 3.442 0 00-2.292.826l.521.923a2.208 2.208 0 011.532-.619c.7 0 1.152.348 1.152.88v.728a2.121 2.121 0 00-1.662-.641A1.662 1.662 0 007.8-41.24a1.748 1.748 0 001.821 1.74 2.171 2.171 0 001.662-.674zm0-1.26a1.38 1.38 0 01-1.108.456c-.543 0-.989-.282-.989-.771s.446-.793.989-.793a1.38 1.38 0 011.108.456zm4.509 1.392a1.7 1.7 0 001.152-.337l-.293-1.043a.754.754 0 01-.478.152c-.3 0-.478-.25-.478-.576v-2.368h1.065v-1.206h-1.066v-1.434H14.3v1.434h-.869v1.206h.869v2.738a1.312 1.312 0 001.492 1.434zm2.6-6.149a.825.825 0 00.826-.826.825.825 0 00-.826-.826.832.832 0 00-.826.826.832.832 0 00.822.824zm-.692 6.017h1.38v-5.248H17.7zm6.291 0h1.38v-3.7a1.526 1.526 0 00-1.706-1.673 2.4 2.4 0 00-1.836.815v-.684h-1.38v5.248h1.38v-3.531a1.494 1.494 0 011.2-.619.851.851 0 01.967.978zm2.64 1.347a3.162 3.162 0 002.26.782c1.293 0 2.836-.489 2.836-2.488v-4.889h-1.388v.674a2.021 2.021 0 00-1.619-.8c-1.325 0-2.314.956-2.314 2.673 0 1.749 1 2.673 2.314 2.673a2.043 2.043 0 001.619-.826v.532a1.283 1.283 0 01-1.445 1.325 2.086 2.086 0 01-1.641-.652zm3.7-3.205a1.528 1.528 0 01-1.184.6 1.3 1.3 0 01-1.325-1.445 1.3 1.3 0 011.325-1.445 1.5 1.5 0 011.184.6z" class="prefix__cls-2" data-name="Path 4132" transform="translate(-3.573 68.72)"/></g><path id="prefix__Line_19" d="M0 48.161V0" data-name="Line 19" transform="translate(39.021 .081)" fill="none" stroke="#222"/></g></svg>