<svg xmlns="http://www.w3.org/2000/svg" width="150.688" height="117.282" viewBox="0 0 150.688 117.282">
    <defs>
        <style>
            .cls-1{fill:#fff}.cls-3{fill:#aaa}
        </style>
    </defs>
    <g id="Group_1702" transform="translate(-38.042 -54.745)">
        <path id="Path_5585" d="M148.311 117.089a15.471 15.471 0 0 0-11.152 26.918 54.471 54.471 0 0 1-9.864 9.864 15.5 15.5 0 0 0-13.256-4.986 4.914 4.914 0 0 0-2.227-5.435 17.214 17.214 0 0 1 4.841-10.617q1.047-1.072 1.983-2.227a32.547 32.547 0 0 0 0-41l-.009-.011a32.516 32.516 0 0 0-50.463 41.021q.932 1.147 1.955 2.195a17.4 17.4 0 0 1 3.645 5.548 17.133 17.133 0 0 1 1.226 5.1 4.9 4.9 0 0 0-2.227 5.423 15.482 15.482 0 0 0-13.26 4.986 54.263 54.263 0 0 1-9.873-9.875 15.464 15.464 0 0 0-11.152-26.914 54.8 54.8 0 0 1 .019-13.953 15.469 15.469 0 0 0 11.149-26.92 54.23 54.23 0 0 1 9.874-9.874 15.467 15.467 0 0 0 26.915-11.15 54.926 54.926 0 0 1 13.952.015A15.47 15.47 0 0 0 127.3 66.349a54.482 54.482 0 0 1 9.864 9.866 15.477 15.477 0 0 0 11.158 26.925 54.811 54.811 0 0 1-.011 13.949z" class="cls-1"/>
        <path id="Path_5586" fill="#222" d="M182.984 135.264a8.907 8.907 0 0 1 3.589-8.456 27.235 27.235 0 0 0-7.716-9.922 8.9 8.9 0 0 1-14.545-5.926 27.344 27.344 0 0 0-12.453 1.718 8.9 8.9 0 0 1-12.4 9.645 27.3 27.3 0 0 0-4.753 11.639 8.907 8.907 0 0 1 2.157 15.562 27.243 27.243 0 0 0 7.716 9.922 8.9 8.9 0 0 1 14.544 5.925 27.333 27.333 0 0 0 12.454-1.717 8.9 8.9 0 0 1 12.4-9.645 27.294 27.294 0 0 0 4.753-11.639 8.9 8.9 0 0 1-5.746-7.106zm-19.624 14.472a11.686 11.686 0 1 1 9.93-13.21 11.693 11.693 0 0 1-9.93 13.21z"/>
        <path id="Path_5587" d="M99.985 172.027H86.817a4.215 4.215 0 0 1-3.233-1.509l-2.53-3.018h24.693l-2.529 3.018a4.217 4.217 0 0 1-3.233 1.509z" class="cls-3"/>
        <path id="Path_5588" d="M107.785 100.415a3.489 3.489 0 0 0-3.034-1.69c-2.407 0-4.611 2.217-6.308 5.156a9.581 9.581 0 0 0-1.759-3.529 4.106 4.106 0 0 0-6.546 0 9.6 9.6 0 0 0-1.76 3.529c-1.7-2.939-3.9-5.156-6.308-5.156a3.489 3.489 0 0 0-3.033 1.69c-1.791 2.833-.526 8.952 1.649 13.533 1.306 2.751 3.343 5.651 5.58 6.7l3.287 26.465a1.86 1.86 0 0 0 1.847 1.627h4.014a1.861 1.861 0 0 0 1.847-1.631l3.286-26.46c2.241-1.042 4.281-3.946 5.589-6.7 2.175-4.582 3.44-10.701 1.649-13.534zm-14.818 2.354c.065-.076.288-.323.444-.323s.378.247.443.323c1.221 1.429 2.076 5.825 1.4 10.091-.454 2.867-1.438 4.181-1.844 4.44-.407-.259-1.39-1.573-1.844-4.44-.674-4.266.18-8.66 1.401-10.091zm-8.92 9.583a23.607 23.607 0 0 1-2.029-6.564 6.3 6.3 0 0 1 .133-3.337c1.4.193 4.824 5.2 5.741 10.99a7.3 7.3 0 0 1-.117 3.811c-.661-.335-2.223-1.731-3.728-4.9zm9.723 32.667h-.727l-2.977-23.969h6.681zm5.277-27.767a7.286 7.286 0 0 1-.117-3.811c.914-5.778 4.325-10.774 5.741-10.988a6.3 6.3 0 0 1 .133 3.335 23.61 23.61 0 0 1-2.03 6.564c-1.505 3.169-3.066 4.565-3.727 4.9z" class="cls-1"/>
        <path id="Path_5589" d="M109.293 159.879h-6.365l6.971-1.549a2.791 2.791 0 0 0-1.211-5.449L76.9 159.946a2.791 2.791 0 0 0 .605 5.515h31.785a2.791 2.791 0 0 0 0-5.582z" class="cls-3"/>
        <path id="Path_5590" d="M74.784 155.325a2.792 2.792 0 0 0 2.722 2.186 2.824 2.824 0 0 0 .608-.067l31.785-7.065a2.791 2.791 0 0 0-.606-5.515H77.508a2.791 2.791 0 0 0 0 5.582h6.366l-6.974 1.549a2.791 2.791 0 0 0-2.116 3.33z" class="cls-3"/>
    </g>
</svg>
