<svg xmlns="http://www.w3.org/2000/svg" id="logo-css3" width="22.56" height="31.603" viewBox="0 0 22.56 31.603">
    <defs>
        <style>
            .cls-1{fill:#fff}
        </style>
    </defs>
    <path id="Subtraction_6" d="M11.28 25.381l-9.165-2.468L0 0h22.56l-2.115 22.913-9.165 2.468zM5.126 14.546l.374 4.321 5.783 1.71 5.75-1.677.747-8.581h-6.525l.017-.007 6.746-2.884.28-2.767H4.12l.342 2.767h7.192l-.383.159-6.56 2.732.218 2.7h.01l9.732.035-.218 3.606-3.2.9-3.078-.777-.186-2.238H5.126z" class="cls-1" transform="translate(0 6.222)"/>
    <path id="Path_1240" d="M171.3 37.309v-1.364h1.99v-1.492h-3.482v4.218h3.482v-1.362zm5.569-1.364h1.391v-1.492h-3.482v1.492c.466.466.709.689 1.383 1.363h-1.383v1.361h3.482v-1.36zm4.936 0h1.395v-1.492h-3.483v1.492c.466.466.709.689 1.383 1.363h-1.383v1.361h3.483v-1.36z" class="cls-1" transform="translate(-165.221 -34.453)"/>
</svg>
