<svg xmlns="http://www.w3.org/2000/svg" width="131.822" height="92.975" viewBox="0 0 131.822 92.975">
    <defs>
        <style>
            .cls-1{fill:none;stroke:#eb1c24;stroke-linecap:round;stroke-linejoin:round;stroke-width:2px}
        </style>
    </defs>
    <g id="icn-crown" transform="translate(1 1)">
        <path id="Path_4504" d="M661.394 795.809l19.378 25.121 28.081-17.638" class="cls-1" transform="translate(-589.173 -774.367)"/>
        <path id="Path_4505" d="M751.31 799.687v.009l-12.267 42.256h-91.622L635.145 799.7" class="cls-1" transform="translate(-628.317 -768.583)"/>
        <path id="Path_4506" d="M636.475 803.287l28.081 17.638 19.378-25.112" class="cls-1" transform="translate(-626.334 -774.361)"/>
        <path id="Path_4507" d="M677.6 799.172a11.97 11.97 0 1 1-11.97-11.97 11.97 11.97 0 0 1 11.97 11.97z" class="cls-1" transform="translate(-600.714 -787.202)"/>
        <path id="Path_4508" d="M691.229 800.849a5.608 5.608 0 1 1-5.608-5.608 5.608 5.608 0 0 1 5.608 5.608z" class="cls-1" transform="translate(-561.407 -775.214)"/>
        <path id="Path_4509" d="M643.62 800.849a5.608 5.608 0 1 1-5.608-5.608 5.608 5.608 0 0 1 5.608 5.608z" class="cls-1" transform="translate(-632.404 -775.214)"/>
        <path id="Path_4510" d="M733.284 816.652l2.08 6.076c1.816 5.309-.85 11.532-4.937 11.532h-85.9c-4.088 0-6.754-6.223-4.937-11.532l2.078-6.076" class="cls-1" transform="translate(-622.562 -743.285)"/>
    </g>
</svg>
