<svg xmlns="http://www.w3.org/2000/svg" width="37.39" height="37.39" viewBox="0 0 37.39 37.39">
    <path fill="#fff" d="M33.383 2.25H4.006A4.007 4.007 0 0 0 0 6.256v29.378a4.007 4.007 0 0 0 4.006 4.006h29.377a4.007 4.007 0 0 0 4.006-4.006V6.256a4.007 4.007 0 0 0-4.006-4.006zM29.3 15.5c.017.234.017.476.017.709a15.467 15.467 0 0 1-15.571 15.577 15.5 15.5 0 0 1-8.4-2.454 11.533 11.533 0 0 0 1.314.068 10.974 10.974 0 0 0 6.794-2.337 5.481 5.481 0 0 1-5.116-3.8 5.9 5.9 0 0 0 2.47-.1 5.474 5.474 0 0 1-4.382-5.373v-.067a5.47 5.47 0 0 0 2.47.693 5.462 5.462 0 0 1-2.436-4.557A5.405 5.405 0 0 1 7.2 11.1a15.542 15.542 0 0 0 11.284 5.725 5.485 5.485 0 0 1 9.339-5A10.726 10.726 0 0 0 31.3 10.5a5.459 5.459 0 0 1-2.4 3.013 10.893 10.893 0 0 0 3.155-.851A11.521 11.521 0 0 1 29.3 15.5z" transform="translate(0 -2.25)"/>
</svg>
