<svg xmlns="http://www.w3.org/2000/svg" id="LinkedIn_Logo_2013" width="132.777" height="32.386" viewBox="0 0 132.777 32.386">
    <defs>
        <style>
            .cls-1{fill:#fff}
        </style>
    </defs>
    <path id="Path_2525" d="M1163.869 273.206a.6.6 0 0 0 .6-.63c0-.447-.269-.66-.822-.66h-.893v2.339h.336v-1.02h.413l.009.012.641 1.007h.359l-.69-1.042zm-.389-.234h-.39v-.791h.494c.255 0 .546.042.546.376 0 .384-.294.415-.652.415" class="cls-1" transform="translate(-1032.958 -242.874)"/>
    <path id="Path_2514" d="M203.8 92.5h4.96v18.067h9.183v4.577H203.8z" class="cls-1" transform="translate(-203.8 -87.741)"/>
    <path id="Path_2515" d="M322.055 97.643h4.765v15.345h-4.765zm2.383-7.629a2.764 2.764 0 1 1-2.765 2.764 2.764 2.764 0 0 1 2.765-2.764" class="cls-1" transform="translate(-305.72 -85.593)"/>
    <path id="Path_2516" d="M506.953 92.486h4.765v13.533l5.4-6.246h5.842l-6.254 7.1 6.123 8.254h-5.989l-5.059-7.585h-.062v7.584h-4.765z" class="cls-1" transform="translate(-465.92 -87.731)"/>
    <path id="Path_2517" d="M379.2 143.946h4.576v2.1h.065a5.006 5.006 0 0 1 4.512-2.479c4.832 0 5.722 3.179 5.722 7.309v8.415h-4.765v-7.461c0-1.781-.033-4.07-2.482-4.07-2.477 0-2.859 1.939-2.859 3.941v7.588H379.2z" class="cls-1" transform="translate(-355.457 -131.895)"/>
    <path id="Path_2518" d="M628.708 149.268a2.857 2.857 0 0 0-2.926-2.924 3.179 3.179 0 0 0-3.367 2.924zm4.036 6.8a8.392 8.392 0 0 1-6.516 3.053c-4.765 0-8.58-3.181-8.58-8.106s3.814-8.1 8.58-8.1c4.454 0 7.247 3.177 7.247 8.1v1.494h-11.06a3.559 3.559 0 0 0 3.591 2.988 4.067 4.067 0 0 0 3.4-1.875z" class="cls-1" transform="translate(-561.632 -131.331)"/>
    <path id="Path_2519" d="M753.137 103.478a3.911 3.911 0 1 0 3.816 3.909 3.613 3.613 0 0 0-3.816-3.909m8.2 11.633h-4.387v-2.035h-.065a5.992 5.992 0 0 1-4.737 2.416c-4.579 0-7.594-3.3-7.594-7.977 0-4.292 2.669-8.232 7.056-8.232a5.753 5.753 0 0 1 4.895 2.035h.063v-8.845h4.769z" class="cls-1" transform="translate(-671.362 -87.719)"/>
    <path id="Path_2520" d="M931.177 84.756h-4.765v-7.463c0-1.779-.032-4.07-2.478-4.07-2.482 0-2.862 1.939-2.862 3.941v7.591h-4.765V69.41h4.574v2.1h.064a5.013 5.013 0 0 1 4.513-2.479c4.83 0 5.72 3.177 5.72 7.309zM910.93 67.312a2.765 2.765 0 1 1 2.765-2.765 2.765 2.765 0 0 1-2.765 2.765m2.383 17.443h-4.77V69.41h4.77zm20.24-27.4h-27.4a2.347 2.347 0 0 0-2.373 2.318v27.519a2.348 2.348 0 0 0 2.373 2.32h27.4a2.353 2.353 0 0 0 2.382-2.32V59.673a2.352 2.352 0 0 0-2.383-2.318" class="cls-1" transform="translate(-809.031 -57.355)"/>
    <path id="Path_2526" d="M1154.322 264.22a2.193 2.193 0 1 0 .042 0h-.042m0 4.135a1.923 1.923 0 1 1 1.891-1.955v.032a1.882 1.882 0 0 1-1.84 1.921h-.05" class="cls-1" transform="translate(-1023.758 -236.22)"/>
</svg>
