<svg xmlns="http://www.w3.org/2000/svg" width="91.5" height="87.511" viewBox="0 0 91.5 87.511">
    <defs>
        <style>
            .cls-1,.cls-2,.cls-3,.cls-4{fill:none;stroke-linecap:round;stroke-linejoin:round}.cls-1{stroke:#cecece}.cls-1,.cls-2{stroke-width:2px}.cls-2,.cls-4{stroke:#eb1c24}.cls-3{stroke:#777}.cls-3,.cls-4{stroke-width:1.5px}
        </style>
    </defs>
    <g id="Group_1210" transform="translate(-130.264 -211.792)">
        <g id="Group_883" transform="translate(156.483 224.513)">
            <path id="Path_5525" d="M182.4 306.016v7.928c0 2.021 1.906 3.66 4.259 3.66h7.741c2.353 0 4.259-1.639 4.259-3.66v-7.928" class="cls-1" transform="translate(-168.667 -246.676)"/>
            <path id="Path_5526" d="M187.984 321.2a2.863 2.863 0 0 0 2.862 2.863h2.014a2.863 2.863 0 0 0 2.862-2.863" class="cls-1" transform="translate(-169.99 -250.277)"/>
            <path id="Path_4481" d="M164.4 266.948a22.944 22.944 0 0 0 6.04 9.657 9.873 9.873 0 0 1 3.084 6.016l1.162 10.25a4.368 4.368 0 0 0 4.343 3.879h14.466a4.368 4.368 0 0 0 4.344-3.879l1.138-10.04a9.828 9.828 0 0 1 2.974-6.1 23.137 23.137 0 0 0 1.69-1.76" class="cls-2" transform="translate(-164.398 -237.413)"/>
            <path id="Path_4482" d="M198.3 228.233a22.917 22.917 0 0 1 13.653 7.939" class="cls-2" transform="translate(-172.437 -228.233)"/>
        </g>
        <path id="Path_4485" d="M155.566 212.542c13.183 0 23.869 8.554 23.869 19.106 0 5.909-3.351 11.192-8.615 14.7l1.932 6.849-8.238-3.827a29.06 29.06 0 0 1-8.947 1.388c-13.182 0-23.869-8.554-23.869-19.106s10.686-19.11 23.868-19.11z" class="cls-3" transform="translate(-.162)"/>
        <path id="Path_4486" d="M148.07 285.631l-4.722-2.726a.736.736 0 0 0-1.1.638V289a.736.736 0 0 0 1.1.638l4.722-2.726a.737.737 0 0 0 0-1.281z" class="cls-4" transform="translate(-.341 -13.211)"/>
        <rect id="Rectangle_30" width="30.345" height="22.757" class="cls-3" rx="3.049" transform="translate(190.669 235.883)"/>
        <path id="Path_4487" d="M213.833 261.312l8.027-6.439 4.413 5.189 4.314 5.083" class="cls-4" transform="translate(-19.637 -10.037)"/>
        <path id="Path_4488" d="M230.139 260.29l5.549-4.455 5.3 6.241" class="cls-4" transform="translate(-23.503 -10.265)"/>
        <circle id="Ellipse_12" cx="2.215" cy="2.215" r="2.215" class="cls-4" transform="translate(194.211 239.288)"/>
        <circle id="Ellipse_13" cx="13.3" cy="13.3" r="13.3" class="cls-3" transform="translate(131.014 259.758)"/>
        <g id="Group_1176" transform="translate(78 -64)">
            <path id="Path_5527" d="M147.431 803.41a1.626 1.626 0 1 1-1.626-1.626 1.626 1.626 0 0 1 1.626 1.626z" class="cls-4" transform="translate(-75.035 -507.446)"/>
            <circle id="Ellipse_19" cx="1.626" cy="1.626" r="1.626" class="cls-4" transform="translate(75.441 294.338)"/>
            <circle id="Ellipse_20" cx="1.626" cy="1.626" r="1.626" class="cls-4" transform="translate(81.738 294.338)"/>
        </g>
    </g>
</svg>
