<svg xmlns="http://www.w3.org/2000/svg" id="logo-instagram" width="157.191" height="36.981" viewBox="0 0 157.191 36.981">
    <defs>
        <style>
            .cls-2{fill:#fff}
        </style>
    </defs>
    <path id="Path_119" fill="#fff" fill-rule="evenodd" d="M160.578 51.219a1.981 1.981 0 0 1 .968.038 3.457 3.457 0 0 1 1.349.556.8.8 0 0 1 .357.649v13.569a25.3 25.3 0 0 1-.192 4.447 6.118 6.118 0 0 1-1.521 3.256 3.621 3.621 0 0 1-.975.807 1.9 1.9 0 0 1-1.025.29.4.4 0 0 1-.137-.324 4.1 4.1 0 0 1 .272-1.017 13.449 13.449 0 0 0 .481-3.49c.03-5.511.041-11.023.068-16.534a2.6 2.6 0 0 0-.032-.426c-.212.009-.344.184-.487.315a7.654 7.654 0 0 0-1.605 2.255 10.066 10.066 0 0 0-.88 3.433 6.509 6.509 0 0 0 .153 2.3 4.373 4.373 0 0 0 .764 1.618.606.606 0 0 1 .08.7c-.2.207-.514.1-.75.023a4.586 4.586 0 0 1-2-1.483 4.639 4.639 0 0 1-.909-2.808 8.763 8.763 0 0 1 .616-2.562 10.293 10.293 0 0 1 2.033-3.3 11.688 11.688 0 0 1 1.889-1.605 5.319 5.319 0 0 1 1.482-.708m29.884.22a1.187 1.187 0 0 1 .941-.149 6.971 6.971 0 0 1 1.655.461 1.4 1.4 0 0 1 .43.3c-.05 1.233-.1 2.467-.165 3.7 1.243.057 2.484.126 3.725.2.216.009.505.071.542.329a1.941 1.941 0 0 1-.186 1.131c-.107.179-.259.4-.494.383-1.206.02-2.412.059-3.618.076-.066 1.733-.112 3.467-.173 5.2a37.375 37.375 0 0 0-.008 4.745 5.017 5.017 0 0 0 .453 1.8.844.844 0 0 0 .618.479 1.34 1.34 0 0 0 .979-.346 4.282 4.282 0 0 0 .97-1.347 11.344 11.344 0 0 0 .7-1.783 5.088 5.088 0 0 0 .041-.822 12.933 12.933 0 0 1 .741-4.268 6.05 6.05 0 0 1 1.74-2.637 3.333 3.333 0 0 1 3.355-.549 3.246 3.246 0 0 1 1.652 1.512 3.218 3.218 0 0 1 .115-.962.978.978 0 0 1 .968-.309 3.465 3.465 0 0 1 1.313.391.859.859 0 0 1 .5.665c-.079 2.644-.188 5.291-.1 7.937a9.819 9.819 0 0 0 .23 1.708 2.011 2.011 0 0 0 .572 1.116.89.89 0 0 0 1.073-.07 3.739 3.739 0 0 0 1.007-1.489.9.9 0 0 0 .121-.493 17.445 17.445 0 0 1 .041-4.78 8.957 8.957 0 0 1 1.049-3.045 5.556 5.556 0 0 1 2.365-2.255 2 2 0 0 1 .6-.2 3.772 3.772 0 0 1 2.718 1.036 4.19 4.19 0 0 1 .477.648 6.474 6.474 0 0 1 .1-.9c.16-.335.589-.355.909-.312a4.7 4.7 0 0 1 1.568.476c.3.175.3.554.281.856-.027 2.98-.07 5.961-.092 8.941a23.811 23.811 0 0 0 1.825-3 15.36 15.36 0 0 0 1.478-4 2.448 2.448 0 0 1-.82-1.243 2.422 2.422 0 0 1 .107-1.219 1.9 1.9 0 0 1 1.232-1.311 1.948 1.948 0 0 1 1.434.091 1.194 1.194 0 0 1 .572.9 3.084 3.084 0 0 1-.064 1.1c.8-.126 1.6-.256 2.378-.453a3.175 3.175 0 0 1 1.654-.05 1.149 1.149 0 0 1 .756.844 2.1 2.1 0 0 1-.028 1.249 10.047 10.047 0 0 0-.378 1.649 13.357 13.357 0 0 0-.337 4.444 7.644 7.644 0 0 0 .486 1.945 1.382 1.382 0 0 0 .736.8 1.21 1.21 0 0 0 1.022-.313 3.128 3.128 0 0 0 .913-1.606 13.441 13.441 0 0 1-.14-4.746 10.423 10.423 0 0 1 1.091-3.4A4.551 4.551 0 0 1 236 58.56a3.243 3.243 0 0 1 2.985.055 3.408 3.408 0 0 1 1.31 1.316 2.562 2.562 0 0 1 .139-.971 1.149 1.149 0 0 1 1.087-.247 2.493 2.493 0 0 1 1.505.655c.244.269.125.65.128.976-.044 1.737-.117 3.474-.113 5.212a15.333 15.333 0 0 0 .313 3.972 1.668 1.668 0 0 0 .527.9.939.939 0 0 0 1.091-.05 3.639 3.639 0 0 0 .951-1.24 6.7 6.7 0 0 0 .534-1.264c.007-2.922.023-5.846.027-8.769a.62.62 0 0 1 .316-.64c.178-.111.39-.03.583-.008a5.483 5.483 0 0 1 1.538.355.529.529 0 0 1 .353.465v4.333a4.262 4.262 0 0 0 .017.5c.427-1.318.874-2.63 1.383-3.918a11.845 11.845 0 0 1 .669-1.4 1.037 1.037 0 0 1 1.024-.394 2.539 2.539 0 0 1 2.033 1.1 1.687 1.687 0 0 1 .215.849c-.015 1.5.07 3 .178 4.5.034.466.041.935.115 1.4A.2.2 0 0 0 255 66.1a23.147 23.147 0 0 1 .746-3.271 30.963 30.963 0 0 1 1.232-3.51 1.42 1.42 0 0 1 .543-.761 1.785 1.785 0 0 1 1.363-.027 4.114 4.114 0 0 1 1.414.7 1.419 1.419 0 0 1 .54 1 55.049 55.049 0 0 0-.063 6.988 10.846 10.846 0 0 0 .288 1.905 2.915 2.915 0 0 0 .437 1 .827.827 0 0 0 .942.292 1.353 1.353 0 0 0 .643-.657 9.912 9.912 0 0 0 .645-2.08.642.642 0 0 1 .37-.517c.161-.1.327.024.456.119.165.153.115.4.118.6a5.983 5.983 0 0 1-.883 3.238 2.621 2.621 0 0 1-2.414 1.169 2.735 2.735 0 0 1-2.138-1.265 7.365 7.365 0 0 1-.987-3.019 40.471 40.471 0 0 1-.152-6.3.522.522 0 0 0-.183.233 17.462 17.462 0 0 0-1.3 3.7 24.152 24.152 0 0 0-.723 5.034.449.449 0 0 1-.367.433 1.836 1.836 0 0 1-1.479 0 2.2 2.2 0 0 1-1.024-1.11 5.339 5.339 0 0 1-.389-1.528c-.279-2.159-.373-4.336-.481-6.508.015-.157-.164-.056-.245-.041a16.234 16.234 0 0 0-1.867 6.025 29.926 29.926 0 0 0-.241 3.675.636.636 0 0 1-.317.544 2.088 2.088 0 0 1-1.2.165 2.884 2.884 0 0 1-1.4-.374.649.649 0 0 1-.3-.514c-.03-.4-.038-.8-.071-1.2a8.66 8.66 0 0 1-.665.959 3.1 3.1 0 0 1-1.6 1.067 2.683 2.683 0 0 1-2.54-.781 3.958 3.958 0 0 1-.921-2.015 4.988 4.988 0 0 1-2.168 2.379 4.08 4.08 0 0 1-1.539.454 3.025 3.025 0 0 1-1.732-.271 3.878 3.878 0 0 1-1.719-1.9 3.524 3.524 0 0 1-2.149 2.1 2.979 2.979 0 0 1-2.819-.854 5.673 5.673 0 0 1-1.55-3.435 9.181 9.181 0 0 1-.009-1.843A21.144 21.144 0 0 1 227.7 62a1.727 1.727 0 0 0 0-.22c-.735-.036-1.473-.01-2.208.01a19.2 19.2 0 0 1-1.512 3.589 31.108 31.108 0 0 1-3.768 5.5c.017 1.633.068 3.267-.011 4.9a10.746 10.746 0 0 1-.814 3.8 4.576 4.576 0 0 1-1.93 2.156 5.062 5.062 0 0 1-2.13.6 4.449 4.449 0 0 1-2.6-.9 2.908 2.908 0 0 1-.985-1.654 3.471 3.471 0 0 1 .057-1.688 7.7 7.7 0 0 1 1.685-2.691c.713-.808 1.537-1.507 2.314-2.249q.934-.875 1.876-1.743c.011-.453-.059-.906-.073-1.358a6.975 6.975 0 0 1-.908 1.092 4.246 4.246 0 0 1-3.449 1.162 3.525 3.525 0 0 1-2.093-1.433 5.571 5.571 0 0 1-.523-.791 3.932 3.932 0 0 1-2.137 2.154 2.8 2.8 0 0 1-2.825-.928 3.808 3.808 0 0 1-.812-1.882 5.181 5.181 0 0 1-1.947 2.274 4.15 4.15 0 0 1-1.857.6 2.971 2.971 0 0 1-2.038-.493 5.434 5.434 0 0 1-1.9-3.219 7.751 7.751 0 0 1-.708 1.534 6.405 6.405 0 0 1-.957 1.233 2.94 2.94 0 0 1-1.628.866 2.645 2.645 0 0 1-2.029-.6 4.008 4.008 0 0 1-1.024-1.416 9.129 9.129 0 0 1-.716-3.116 11.043 11.043 0 0 1-2.2 3.418 5.82 5.82 0 0 1-2.752 1.607 7.456 7.456 0 0 1-2.535.114 5.378 5.378 0 0 1-2.114-.579 1.435 1.435 0 0 1-.721-.8 1.55 1.55 0 0 1 .39-1.08 1.923 1.923 0 0 1 .808-.722c.326-.106.607.158.861.322a3.117 3.117 0 0 0 1.36.772 1.326 1.326 0 0 0 1.418-.483 2.851 2.851 0 0 0 .38-1.423 3.523 3.523 0 0 0-1.225-2.343c-.586-.562-1.2-1.093-1.805-1.633-.861 1.467-1.785 2.895-2.656 4.356a9.867 9.867 0 0 1-1.948 2.547 3.97 3.97 0 0 1-2.047 1.06 1.507 1.507 0 0 1-1.372-.589 3.913 3.913 0 0 1-.7-1.859 23.879 23.879 0 0 1-.081-3.549c.02-1.5.1-3.007.149-4.51a7.431 7.431 0 0 0 .014-.966c-.1.022-.22.025-.284.119a16.349 16.349 0 0 0-3.034 5.666 32.432 32.432 0 0 0-1.293 5.463 1.034 1.034 0 0 1-.832.193c-.351-.051-.711 0-1.059-.077a1.057 1.057 0 0 1-.652-.639 4.581 4.581 0 0 1-.278-1.872q.045-5.335.079-10.671a.42.42 0 0 1 .224-.449 2.194 2.194 0 0 1 1.125.062 2.411 2.411 0 0 1 1.168.527c.158.149.091.382.1.574-.009 1.974-.037 3.948-.027 5.922a26.273 26.273 0 0 1 2.294-5.1 7.139 7.139 0 0 1 .718-.946 2.7 2.7 0 0 1 1.9-1.065 3.438 3.438 0 0 1 1.6.486A2.16 2.16 0 0 1 176.147 60a2.247 2.247 0 0 1 .069.931c-.051 1.7-.1 3.395-.16 5.093-.011.693-.066 1.385-.025 2.078a3.361 3.361 0 0 0 .171.975c.071.173.173.375.379.407a.7.7 0 0 0 .5-.234 6.5 6.5 0 0 0 .817-.965c.711-.989 1.321-2.047 1.931-3.1.357-.652.729-1.3 1.06-1.963-.116-.194-.295-.349-.4-.555a2.706 2.706 0 0 1-.3-2.149 3.307 3.307 0 0 1 1.2-1.758 3.588 3.588 0 0 1 1.372-.573 1.844 1.844 0 0 1 1.4.2 1.007 1.007 0 0 1 .442.834 3.389 3.389 0 0 1-.488 1.732 8.534 8.534 0 0 1-1.02 1.455 26.248 26.248 0 0 1 3.53 2.822 3.773 3.773 0 0 1 1.1 2.106 4.124 4.124 0 0 1-.056 1.254 6.594 6.594 0 0 0 2.264-3.883c.03-2.319.023-4.639.048-6.959-1.061-.02-2.123-.021-3.184-.05a.717.717 0 0 1-.263-.616 2.225 2.225 0 0 1 .514-1.491c.056-.085.163-.058.25-.065l2.836.038c.045-1.074.07-2.149.111-3.222a1.388 1.388 0 0 1 .212-.9m11.57 8.954a2.14 2.14 0 0 0-1.374 1.161 7.14 7.14 0 0 0-.687 2.351 17.02 17.02 0 0 0-.133 3.186 6.2 6.2 0 0 0 .546 2.4 1.86 1.86 0 0 0 .972.931 1.08 1.08 0 0 0 .9-.047A3.034 3.034 0 0 0 203.483 69a9.433 9.433 0 0 0 .823-3.259 11.042 11.042 0 0 0-.157-3.492 3.056 3.056 0 0 0-.8-1.476 1.473 1.473 0 0 0-1.32-.375m13.207.041a2.738 2.738 0 0 0-1.6 1.515 9.391 9.391 0 0 0-.77 3.307 10.879 10.879 0 0 0 .323 3.8 2.309 2.309 0 0 0 1.113 1.434 1.2 1.2 0 0 0 1.14-.076 2.725 2.725 0 0 0 .735-.711 6.041 6.041 0 0 0 .925-2.134 14.052 14.052 0 0 0 .358-3.434 7.779 7.779 0 0 0-.327-2.339 2.381 2.381 0 0 0-.818-1.2 1.248 1.248 0 0 0-1.08-.161m22.914.1a2.094 2.094 0 0 0-1.443 1.172 8.537 8.537 0 0 0-.788 3.259 12.586 12.586 0 0 0 .178 3.758 2.946 2.946 0 0 0 .886 1.613 1.228 1.228 0 0 0 1.162.253 2.438 2.438 0 0 0 1.174-1.065 8.671 8.671 0 0 0 1.037-3.667 10.692 10.692 0 0 0-.164-3.462 2.9 2.9 0 0 0-.826-1.5 1.441 1.441 0 0 0-1.217-.363M216.8 74.431a12.569 12.569 0 0 0-2.853 3.907 2.56 2.56 0 0 0-.188 1.709 1.3 1.3 0 0 0 .909.936 2.168 2.168 0 0 0 1.688-.167 2.521 2.521 0 0 0 .926-1.284 10.485 10.485 0 0 0 .455-3.012c.015-.991.042-1.984.049-2.975a11.354 11.354 0 0 0-.987.886" transform="translate(-107.483 -45.348)"/>
    <g id="Group_763">
        <path id="Path_120" d="M171.046 175.971h-14.974a10.224 10.224 0 0 0-10.224 10.224v14.974a10.224 10.224 0 0 0 10.224 10.224h14.974a10.224 10.224 0 0 0 10.224-10.224v-14.974a10.224 10.224 0 0 0-10.224-10.224m6.962 25.461a6.787 6.787 0 0 1-6.787 6.787H155.9a6.787 6.787 0 0 1-6.787-6.787v-15.324a6.786 6.786 0 0 1 6.787-6.787h15.325a6.786 6.786 0 0 1 6.787 6.787z" class="cls-2" transform="translate(-145.848 -175.971)"/>
        <path id="Path_121" d="M204.688 226.136a9.191 9.191 0 1 0 9.191 9.19 9.191 9.191 0 0 0-9.191-9.19m0 15.148a5.958 5.958 0 1 1 5.958-5.958 5.958 5.958 0 0 1-5.958 5.958" class="cls-2" transform="translate(-186.977 -217.528)"/>
        <path id="Path_122" d="M294.067 211.621a2.141 2.141 0 1 0 2.141 2.141 2.141 2.141 0 0 0-2.141-2.141" class="cls-2" transform="translate(-266.858 -205.503)"/>
    </g>
</svg>
