<svg xmlns="http://www.w3.org/2000/svg" id="Layer_2" width="177.041" height="40.17" viewBox="0 0 177.041 40.17">
    <defs>
        <style>
            .cls-1{fill:#fff}
        </style>
    </defs>
    <g id="Group_1221">
        <path id="Path_5547" d="M269.05 48.227h-6.969v.739c2.18 0 2.53.467 2.53 3.232v4.984c0 2.764-.35 3.27-2.53 3.27-1.674-.233-2.8-1.129-4.36-2.842l-1.791-1.946c2.414-.429 3.7-1.947 3.7-3.66 0-2.141-1.829-3.776-5.256-3.776h-6.854v.739c2.18 0 2.53.467 2.53 3.232v4.984c0 2.764-.35 3.27-2.53 3.27v.74h7.748v-.74c-2.18 0-2.53-.506-2.53-3.27v-1.4h.661l4.322 5.411h11.33c5.567 0 7.981-2.959 7.981-6.5s-2.414-6.467-7.982-6.467zm-16.313 6.346V49.4h1.6a2.59 2.59 0 0 1 0 5.178h-1.6zm16.43 5.412h-.273c-1.4 0-1.6-.35-1.6-2.141V49.4h1.869c4.049 0 4.788 2.959 4.788 5.256.005 2.37-.735 5.329-4.784 5.329z" class="cls-1" transform="translate(-166.37 -32.416)"/>
        <path id="Path_5548" d="M145.141 48.031l2.686-7.943c.779-2.3.429-2.959-2.063-2.959v-.779h7.319v.779c-2.453 0-3.037.584-4.01 3.426l-4.439 13.315h-.506l-3.972-12.186-4.049 12.186h-.507l-4.321-13.315c-.934-2.842-1.557-3.426-3.816-3.426v-.779h8.643v.779c-2.3 0-2.921.545-2.1 2.959l2.608 7.943 3.932-11.68h.74z" class="cls-1" transform="translate(-85.675 -24.433)"/>
        <path id="Path_5549" d="M205.789 60.658c-4.282 0-7.787-3.153-7.787-7.008 0-3.815 3.5-6.969 7.787-6.969s7.787 3.154 7.787 6.969c-.001 3.855-3.505 7.008-7.787 7.008zm0-12.77c-3.581 0-4.828 3.231-4.828 5.762 0 2.57 1.246 5.762 4.828 5.762 3.621 0 4.867-3.192 4.867-5.762 0-2.53-1.246-5.761-4.867-5.761z" class="cls-1" transform="translate(-133.086 -31.376)"/>
        <path id="Path_5550" d="M348.586 52.43v.779h-8.916v-.779c2.609 0 3.076-.662 3.076-4.556v-6.228c0-3.894-.467-4.517-3.076-4.517v-.779h8.059c4.01 0 6.23 2.064 6.23 4.828 0 2.686-2.22 4.789-6.23 4.789h-2.219v1.907c0 3.894.467 4.556 3.076 4.556zm-.857-14.678h-2.219v6.775h2.219a3.043 3.043 0 0 0 3.193-3.348c0-1.869-1.012-3.427-3.193-3.427z" class="cls-1" transform="translate(-228.308 -24.433)"/>
        <path id="Path_5551" d="M411.835 57.532l-.195.7c-.35 1.285-.779 1.752-3.543 1.752h-.545c-2.024 0-2.375-.467-2.375-3.231v-1.79c3.037 0 3.271.272 3.271 2.3h.74v-5.8h-.74c0 2.024-.234 2.3-3.271 2.3V49.4h2.141c2.765 0 3.193.467 3.543 1.752l.2.739h.623l-.272-3.659H399.96v.739c2.18 0 2.531.467 2.531 3.232v4.984c0 2.529-.3 3.166-2.017 3.257-1.634-.249-2.755-1.141-4.29-2.828l-1.791-1.946c2.414-.429 3.7-1.947 3.7-3.66 0-2.141-1.83-3.776-5.256-3.776h-6.852v.739c2.18 0 2.53.467 2.53 3.232v4.984c0 2.764-.35 3.27-2.53 3.27v.74h7.748v-.74c-2.18 0-2.531-.506-2.531-3.27v-1.4h.662l4.322 5.411h16l.234-3.659h-.585zM391.2 54.573V49.4h1.6a2.59 2.59 0 0 1 0 5.178h-1.6z" class="cls-1" transform="translate(-259.438 -32.416)"/>
        <path id="Path_5552" d="M478.962 60.659a5.756 5.756 0 0 1-3.5-1.324 2.8 2.8 0 0 0-.623 1.324h-.74v-5.372h.779a4.32 4.32 0 0 0 4.4 4.088 2 2 0 0 0 2.258-1.868c0-1.012-.9-1.791-2.492-2.531l-2.219-1.051a4.237 4.237 0 0 1-2.725-3.738c0-1.869 1.752-3.465 4.166-3.465a4.876 4.876 0 0 1 3.037 1.012 2.2 2.2 0 0 0 .506-1.052h.739v4.595h-.818c-.273-1.83-1.285-3.348-3.348-3.348-1.09 0-2.1.623-2.1 1.6 0 1.012.818 1.557 2.687 2.414l2.131 1.047a4.062 4.062 0 0 1 2.608 3.5c.003 2.456-2.138 4.169-4.746 4.169z" class="cls-1" transform="translate(-318.662 -31.377)"/>
        <path id="Path_5553" d="M515.536 60.659a5.754 5.754 0 0 1-3.5-1.324 2.8 2.8 0 0 0-.622 1.324h-.74v-5.372h.779a4.32 4.32 0 0 0 4.4 4.088 2 2 0 0 0 2.258-1.868c0-1.012-.9-1.791-2.492-2.531l-2.219-1.051a4.237 4.237 0 0 1-2.725-3.738c0-1.869 1.752-3.465 4.166-3.465a4.876 4.876 0 0 1 3.037 1.012 2.2 2.2 0 0 0 .506-1.052h.74v4.595h-.824c-.273-1.83-1.285-3.348-3.348-3.348-1.09 0-2.1.623-2.1 1.6 0 1.012.818 1.557 2.687 2.414l2.141 1.051a4.063 4.063 0 0 1 2.609 3.5c-.003 2.452-2.145 4.165-4.753 4.165z" class="cls-1" transform="translate(-343.245 -31.377)"/>
        <g id="Group_1220">
            <path id="Path_5554" d="M8.708 46.884a17.233 17.233 0 0 0 9.711 15.507L10.2 39.872a17.165 17.165 0 0 0-1.492 7.012z" class="cls-1" transform="translate(-5.853 -26.8)"/>
            <path id="Path_5555" d="M43.38 25.068a9.071 9.071 0 0 0-1.421-4.752c-.873-1.419-1.692-2.621-1.692-4.04a2.984 2.984 0 0 1 2.893-3.058c.076 0 .149.01.223.014a17.226 17.226 0 0 0-26.031 3.243c.4.012.785.021 1.109.021 1.8 0 4.592-.219 4.592-.219a.712.712 0 0 1 .11 1.419s-.933.11-1.972.164l6.274 18.663 3.771-11.309-2.684-7.355c-.928-.054-1.807-.164-1.807-.164a.712.712 0 0 1 .109-1.419s2.845.219 4.538.219c1.8 0 4.592-.219 4.592-.219a.712.712 0 0 1 .11 1.419s-.935.11-1.972.164l6.227 18.522 1.719-5.743a20.814 20.814 0 0 0 1.312-5.57z" class="cls-1" transform="translate(-11.663 -5.853)"/>
            <path id="Path_5556" d="M51.586 65.857l-5.17 15.022a17.238 17.238 0 0 0 10.589-.279 1.513 1.513 0 0 1-.123-.237z" class="cls-1" transform="translate(-31.198 -44.266)"/>
            <path id="Path_5557" d="M94.138 36.046a13.223 13.223 0 0 1 .116 1.772 16.253 16.253 0 0 1-1.31 6.172l-5.263 15.216a17.233 17.233 0 0 0 6.457-23.16z" class="cls-1" transform="translate(-58.935 -24.228)"/>
            <path id="Path_5558" d="M20.085 0a20.085 20.085 0 1 0 20.086 20.084A20.108 20.108 0 0 0 20.085 0zm0 39.249a19.164 19.164 0 1 1 19.163-19.165 19.186 19.186 0 0 1-19.163 19.165z" class="cls-1"/>
        </g>
    </g>
</svg>
