<svg xmlns="http://www.w3.org/2000/svg" width="92" height="80.826" viewBox="0 0 92 80.826">
    <defs>
        <style>
            .cls-1{fill:none;stroke-linecap:round;stroke-linejoin:round;stroke:#cecece;stroke-width:2px}
        </style>
    </defs>
    <g id="Group_1208" transform="translate(-138.549 -796.53)">
        <g id="Group_886" transform="translate(139.549 797.53)">
            <path id="Rectangle_31" d="M3.8 0h82.4A3.8 3.8 0 0 1 90 3.8v7.227H0V3.8A3.8 3.8 0 0 1 3.8 0z" class="cls-1"/>
            <path id="Path_4489" d="M147.431 803.41a1.626 1.626 0 1 1-1.626-1.626 1.626 1.626 0 0 1 1.626 1.626z" class="cls-1" transform="translate(-140.049 -797.99)"/>
            <circle id="Ellipse_14" cx="1.626" cy="1.626" r="1.626" class="cls-1" transform="translate(10.427 3.794)"/>
            <circle id="Ellipse_15" cx="1.626" cy="1.626" r="1.626" class="cls-1" transform="translate(16.724 3.794)"/>
        </g>
        <g id="Group_887" fill="none" stroke-linecap="round" stroke-linejoin="round" stroke-width="1.5px" transform="translate(157.244 819.716)">
            <path id="Path_4490" stroke="#eb1c24" d="M186.692 879.294h-4.822a1.951 1.951 0 0 1-1.948-2.059c.135-2.5.357-6.421.428-6.651l-7.57-4.371c-.166.174-3.452 2.32-5.55 3.69a1.983 1.983 0 0 1-1.521.269 1.964 1.964 0 0 1-1.242-.927l-4.822-8.353a1.966 1.966 0 0 1 .807-2.716c2.241-1.132 5.741-2.906 5.978-2.953v-8.749c-.237-.047-3.737-1.82-5.978-2.953a1.965 1.965 0 0 1-.807-2.716l4.822-8.353a1.951 1.951 0 0 1 2.763-.657c2.1 1.37 5.384 3.516 5.55 3.69l7.57-4.371c-.071-.229-.293-4.148-.428-6.651a1.951 1.951 0 0 1 1.948-2.059h9.644a1.951 1.951 0 0 1 1.948 2.059c-.135 2.5-.357 6.422-.428 6.651l7.57 4.371c.166-.174 3.452-2.32 5.55-3.69a1.951 1.951 0 0 1 2.763.657l4.822 8.353a1.965 1.965 0 0 1-.807 2.716c-2.241 1.133-5.741 2.906-5.978 2.953v8.749c.237.047 3.737 1.821 5.978 2.953a1.966 1.966 0 0 1 .807 2.716l-4.822 8.353a1.949 1.949 0 0 1-2.763.657c-2.1-1.37-5.384-3.516-5.55-3.69l-7.57 4.371c.071.23.293 4.149.428 6.651a1.951 1.951 0 0 1-1.948 2.059z" transform="translate(-159.388 -822.404)"/>
            <path id="Path_4491" stroke="#777" d="M188.561 840.983a11.876 11.876 0 1 1 0 23.753v-.008a11.876 11.876 0 1 1 0-23.753z" transform="translate(-161.257 -824.411)"/>
        </g>
        <path id="Path_4492" d="M143.345 868.463h8.907" class="cls-1" transform="translate(-.41 -7.664)"/>
        <path id="Path_4493" d="M142.935 860.8a3.386 3.386 0 0 1-3.386-3.386v-56.5a3.386 3.386 0 0 1 3.386-3.386h83.228a3.386 3.386 0 0 1 3.386 3.386v56.5a3.386 3.386 0 0 1-3.386 3.386h-9.691" class="cls-1"/>
    </g>
</svg>
