<svg xmlns="http://www.w3.org/2000/svg" id="logo-html5" width="22.391" height="31.605" viewBox="0 0 22.391 31.605">
    <defs>
        <style>
            .cls-1{fill:#fff}
        </style>
    </defs>
    <path id="Subtraction_5" d="M11.181 25.394l-9.143-2.538L0 0h22.391l-2.04 22.852-9.169 2.542zM5.046 14.55l.393 4.4 5.742 1.594h.013l5.737-1.59.042-.473.659-7.38.068-.752H7.485l-.256-2.87h10.727l.056-.63.128-1.421.067-.752H4.165l.068.752.688 7.724h9.715l-.326 3.636-3.117.841h-.01l-3.123-.843-.2-2.236H5.046z" class="cls-1" transform="translate(0 6.211)"/>
    <path id="Path_1218" d="M262.745 89.47h1.424v1.407h1.3V89.47h1.431v4.262h-1.425V92.3h-1.3v1.427h-1.424zm6.025 1.413h-1.254V89.47h3.933v1.413H270.2v2.849h-1.43v-2.849zm3.3-1.413h1.486l.914 1.5.913-1.5h1.486v4.262h-1.419v-2.113l-.98 1.515h-.024l-.981-1.515v2.112h-1.394zm5.507 0h1.425v2.853h2v1.409h-3.428z" class="cls-1" transform="translate(-260.662 -89.47)"/>
</svg>
