<svg xmlns="http://www.w3.org/2000/svg" id="Icon_ionic-md-analytics" width="29.06" height="26.985" viewBox="0 0 29.06 26.985">
    <defs>
        <style>
            .cls-1{fill:#fff}
        </style>
    </defs>
    <path id="Path_5582" d="M24.779 12.491l-5.655 8.651a3.081 3.081 0 0 1 .7 1.965 3.113 3.113 0 1 1-6.226 0 3.411 3.411 0 0 1 .052-.577l-3.735-2.173a3.094 3.094 0 0 1-2.16.869 3.13 3.13 0 0 1-1.53-.4L2.25 24.547v3.709a2.776 2.776 0 0 0 2.769 2.769h23.522a2.776 2.776 0 0 0 2.769-2.769V14.469l-3.8-2.523a3.111 3.111 0 0 1-2.73.545z" class="cls-1" transform="translate(-2.25 -4.041)"/>
    <path id="Path_5583" d="M7.762 14.335a3.114 3.114 0 0 1 3.113 3.113c0 .136-.013.272-.026.4l3.9 2.179a3.085 3.085 0 0 1 1.971-.7 3.257 3.257 0 0 1 .674.071l5.668-8.781a3.08 3.08 0 0 1-.577-1.8 3.113 3.113 0 1 1 6.226 0 3.383 3.383 0 0 1-.084.733l2.678 1.79V6.144a2.776 2.776 0 0 0-2.769-2.769H5.019A2.776 2.776 0 0 0 2.25 6.144v14.87l2.594-2.484a3.113 3.113 0 0 1 2.918-4.2z" class="cls-1" transform="translate(-2.25 -3.375)"/>
</svg>
