<svg xmlns="http://www.w3.org/2000/svg" id="Vimeo_Logo" width="112.641" height="31.847" viewBox="0 0 112.641 31.847">
    <defs>
        <style>
            .cls-1{fill:#fff}
        </style>
    </defs>
    <path id="path4" d="M25.356 11.361q-.168 3.679-5.138 10.076-5.137 6.68-8.694 6.681-2.2 0-3.726-4.069l-2.033-7.458q-1.13-4.068-2.427-4.069a7.8 7.8 0 0 0-1.978 1.187L.176 12.181Q2.04 10.543 3.852 8.9 6.34 6.753 7.586 6.638q2.94-.282 3.621 4.022.734 4.646 1.017 5.777.848 3.854 1.866 3.852.792 0 2.376-2.5a9.862 9.862 0 0 0 1.7-3.805q.226-2.158-1.7-2.159a4.692 4.692 0 0 0-1.865.413q1.856-6.085 7.1-5.916 3.883.114 3.659 5.04" class="cls-1" transform="translate(-.176 3.623)"/>
    <path id="path6" d="M27.087 2.995a3.979 3.979 0 0 1-1.416 2.7 5.053 5.053 0 0 1-3.619 1.463q-3.225 0-3.112-2.814a3.934 3.934 0 0 1 1.724-2.815A5.757 5.757 0 0 1 24.371.181a2.5 2.5 0 0 1 1.981.93 2.653 2.653 0 0 1 .735 1.884zm4.921 20.118a19.068 19.068 0 0 1-4.356 5.425q-3.791 3.278-7.58 3.279a3.281 3.281 0 0 1-2.687-1.132 4.237 4.237 0 0 1-.876-2.939 26.676 26.676 0 0 1 1.158-5.767q1.1-3.9 1.1-4.183 0-1.47-1.019-1.471a6.27 6.27 0 0 0-1.925 1.187l-1.3-1.528q1.81-1.638 3.621-3.28 2.432-2.148 3.622-2.263a2.77 2.77 0 0 1 2.743 1.1 4.737 4.737 0 0 1 .651 3.3q-.736 3.438-1.584 8.735Q23.522 26 25.333 26q.792 0 2.828-1.673a23.61 23.61 0 0 0 2.774-2.627l1.074 1.414" class="cls-1" transform="translate(8.721 -.181)"/>
    <path id="path8" d="M63.191 19.187a19.046 19.046 0 0 1-4.356 5.425q-3.791 3.278-7.58 3.279-3.679 0-3.564-4.071a20.446 20.446 0 0 1 .706-4.351 20.582 20.582 0 0 0 .703-3.959q.058-2.146-1.306-2.148-1.475 0-3.519 3.507A15.636 15.636 0 0 0 41.954 24a8.293 8.293 0 0 0 .475 3.734q-3.946.114-5.526-1.3-1.414-1.244-1.3-4.129a14.991 14.991 0 0 1 .556-3.621 14.477 14.477 0 0 0 .554-3.225c.081-1.395-.434-2.093-1.529-2.093q-1.417 0-3.058 3.225a16.428 16.428 0 0 0-1.813 6.731 11.765 11.765 0 0 0 .4 4.413q-3.883.114-5.514-1.636a6.016 6.016 0 0 1-1.239-4.456 30.979 30.979 0 0 1 .52-4.089 31.563 31.563 0 0 0 .52-4.09c.081-.676-.1-1.016-.509-1.016a6.293 6.293 0 0 0-1.924 1.145l-1.358-1.528q.284-.224 3.564-3.28Q27.155 6.577 28 6.519a2.5 2.5 0 0 1 2.376 1.215 5.353 5.353 0 0 1 .906 3.083 4.631 4.631 0 0 1-.113 1.076 10.421 10.421 0 0 1 1.98-2.265 10.06 10.06 0 0 1 5.827-2.545q2.773-.226 3.961 1.3a5.51 5.51 0 0 1 .9 3.564c.264-.225.548-.471.85-.735A15.05 15.05 0 0 1 47.23 8.78a8.394 8.394 0 0 1 4.356-1.7q2.717-.226 3.9 1.3a5.065 5.065 0 0 1 .906 3.549 26.167 26.167 0 0 1-.765 4.594 29.351 29.351 0 0 0-.706 3.465 3.038 3.038 0 0 0 .225 1.635c.19.3.64.45 1.358.45q.792 0 2.828-1.675a23.606 23.606 0 0 0 2.773-2.623l1.076 1.413" class="cls-1" transform="translate(12.867 3.743)"/>
    <path id="path10" d="M57.535 13.139q.053-1.519-1.243-1.52-1.7 0-3.446 2.336a7.9 7.9 0 0 0-1.808 4.474 3.2 3.2 0 0 0 0 .732 12.732 12.732 0 0 0 4.8-3.1 5.471 5.471 0 0 0 1.694-2.927zm12.841 5.906q-1.64 2.714-6.449 5.424a24.166 24.166 0 0 1-12.163 3.444q-4.58 0-6.562-3.054a8.371 8.371 0 0 1-1.358-4.976q.056-4.58 4.074-8.71a14.064 14.064 0 0 1 10.409-4.527q5.545 0 5.884 4.515.226 2.877-3.169 5.926a17.226 17.226 0 0 1-9.107 4.231 3.514 3.514 0 0 0 3.054 1.411 22.605 22.605 0 0 0 8.882-2.072 23.648 23.648 0 0 0 5.429-3.023l1.074 1.411" class="cls-1" transform="translate(26.895 3.827)"/>
    <path id="path12" d="M71.542 15.161a7.139 7.139 0 0 0-.424-2.806c-.321-.849-.784-1.277-1.385-1.277q-2.887 0-4.751 3.118a10.939 10.939 0 0 0-1.7 5.44 4.838 4.838 0 0 0 .509 2.495 1.917 1.917 0 0 0 1.754 1.247q2.544 0 4.356-3a10.74 10.74 0 0 0 1.639-5.215zm6.392.214a13.438 13.438 0 0 1-3.846 8.981 11.949 11.949 0 0 1-9 3.784 8.2 8.2 0 0 1-6.788-2.882 9.187 9.187 0 0 1-1.866-5.364 11.747 11.747 0 0 1 3.507-8.926 13.2 13.2 0 0 1 10.244-4.517 7.1 7.1 0 0 1 6 2.655 9.109 9.109 0 0 1 1.753 6.269" class="cls-1" transform="translate(34.692 3.706)"/>
</svg>
