<svg xmlns="http://www.w3.org/2000/svg" id="Shopify_logo_2018" width="120.262" height="34.304" viewBox="0 0 120.262 34.304">
    <defs>
        <style>
            .cls-1{fill:#fff}
        </style>
    </defs>
    <path id="Subtraction_3" d="M19.117 33.539L0 29.962c0-.043.128-1 .315-2.441.647-5 2.163-16.711 2.239-17.226.118-.881.138-.9 1.081-1.2.075-.033.48-.157 1.094-.345.523-.16 1.171-.359 1.931-.6a16.441 16.441 0 0 1 2.149-5.105C10.171 1.025 11.822 0 13.714 0a2.283 2.283 0 0 1 1.729.983h.176c1.562 0 2.745 1.124 3.517 3.34.665-.215.984-.315 1-.315a1.367 1.367 0 0 1 .313-.04.87.87 0 0 1 .157.013l-1.429 29.545-.06.013zm-5.5-32.4A4.56 4.56 0 0 0 9.927 3.5a15.069 15.069 0 0 0-1.89 4.244c.447-.145.9-.283 1.375-.429.415-.127.843-.258 1.278-.4a9.791 9.791 0 0 1 1.444-3.784 5.1 5.1 0 0 1 2.034-1.795.93.93 0 0 0-.553-.197zm1.258 1.219a5.985 5.985 0 0 0-2.91 4.142c.7-.226 1.387-.437 2.051-.642.449-.138.869-.268 1.289-.4v-.2a8.31 8.31 0 0 0-.432-2.908zm1.2-.216a7.585 7.585 0 0 1 .393 2.613v.354c.648-.223 1.234-.4 1.611-.511-.512-1.552-1.167-2.355-2.008-2.456z" class="cls-1"/>
    <path id="Path_5561" fill="#222" d="M34.161 367.589l-1.261 3.792a5.91 5.91 0 0 0-2.5-.609c-2.024 0-2.122 1.277-2.122 1.591 0 1.729 4.519 2.4 4.519 6.464 0 3.2-2.024 5.266-4.755 5.266a6.545 6.545 0 0 1-4.951-2.043l.884-2.908a6.281 6.281 0 0 0 3.183 1.493 1.291 1.291 0 0 0 1.356-1.3c0-2.259-3.694-2.358-3.694-6.091 0-3.124 2.24-6.15 6.778-6.15a5.245 5.245 0 0 1 2.563.495z" transform="translate(-18.542 -355.624)"/>
    <path id="Path_5562" d="M181.468 355.117c-1.041-.55-1.572-1.041-1.572-1.69 0-.825.747-1.356 1.906-1.356a6.89 6.89 0 0 1 2.554.55l.943-2.888s-.864-.668-3.419-.668c-3.556 0-6.032 2.043-6.032 4.912 0 1.631 1.159 2.868 2.692 3.753 1.257.688 1.69 1.2 1.69 1.945 0 .766-.629 1.395-1.788 1.395a8.033 8.033 0 0 1-3.34-.884l-1 2.888a7.668 7.668 0 0 0 4.008 1c3.654 0 6.307-1.807 6.307-5.049-.041-1.766-1.358-2.984-2.949-3.908zm14.578-6.091a5.482 5.482 0 0 0-4.3 2.161l-.039-.02 1.572-8.173h-4.067l-3.969 20.826h4.067l1.356-7.113c.531-2.692 1.925-4.362 3.222-4.362.923 0 1.277.629 1.277 1.513a8.054 8.054 0 0 1-.177 1.807l-1.533 8.154h4.067l1.591-8.409a15.187 15.187 0 0 0 .295-2.672c-.022-2.338-1.22-3.711-3.362-3.711zm12.555 0c-4.912 0-8.154 4.42-8.154 9.352 0 3.144 1.945 5.7 5.6 5.7 4.814 0 8.055-4.3 8.055-9.352.02-2.926-1.67-5.699-5.502-5.699zm-2 11.946c-1.395 0-1.965-1.179-1.965-2.672 0-2.338 1.2-6.13 3.419-6.13 1.434 0 1.925 1.257 1.925 2.456 0 2.5-1.238 6.346-3.379 6.346zm17.938-11.946a5.548 5.548 0 0 0-4.3 2.436h-.039l.236-2.181h-3.615c-.177 1.474-.511 3.733-.825 5.4l-2.81 14.912h4.067l1.139-6.032h.1a4.764 4.764 0 0 0 2.377.531c4.794 0 7.918-4.912 7.918-9.863-.028-2.747-1.266-5.202-4.252-5.202zm-3.89 11.985a2.565 2.565 0 0 1-1.69-.609l.668-3.792c.472-2.554 1.808-4.224 3.222-4.224 1.257 0 1.631 1.159 1.631 2.24.02 2.633-1.556 6.385-3.835 6.385zm13.93-17.82a2.335 2.335 0 0 0-2.338 2.358 1.889 1.889 0 0 0 1.925 2.043h.039a2.284 2.284 0 0 0 2.377-2.358 1.908 1.908 0 0 0-2.007-2.043zm-5.7 20.61h4.067l2.751-14.46h-4.087m14.46-.02h-2.829l.138-.668c.236-1.395 1.061-2.613 2.436-2.613a4.045 4.045 0 0 1 1.3.216l.786-3.2a5.282 5.282 0 0 0-2.22-.354 6.1 6.1 0 0 0-3.988 1.356 7.615 7.615 0 0 0-2.358 4.617l-.118.668h-1.906l-.609 3.085h1.898l-2.161 11.4h4.067l2.161-11.4h2.81zm9.8.02s-2.554 6.425-3.674 9.941h-.039c-.079-1.139-1-9.941-1-9.941h-4.283l2.456 13.242a.921.921 0 0 1-.1.668 6.934 6.934 0 0 1-2.22 2.456 9.115 9.115 0 0 1-2.318 1.159l1.14 3.458a9.3 9.3 0 0 0 3.988-2.22 27.518 27.518 0 0 0 5.344-8.075l4.971-10.708h-4.264z" class="cls-1" transform="translate(-139.874 -336.02)"/>
    <path id="Path_5563" d="M103.885 331.079c-.118 0-2.692-.2-2.692-.2s-1.788-1.788-2-1.965a.38.38 0 0 0-.255-.118L97.5 358.389l10.374-2.24s-3.635-24.6-3.654-24.775a.532.532 0 0 0-.335-.295z" class="cls-1" transform="translate(-77.668 -324.851)"/>
</svg>
