<svg xmlns="http://www.w3.org/2000/svg" width="35.398" height="28.319" viewBox="0 0 35.398 28.319">
    <path fill="#fff" d="M23.975 9.178l5.6-6.187A1.752 1.752 0 0 0 28.333 0H1.756A1.752 1.752 0 0 0 .517 2.991l10.1 11.169v8.624a2.213 2.213 0 0 0 .885 1.77l4.424 3.319a2.2 2.2 0 0 0 3.275-.751 10.595 10.595 0 0 1 4.77-17.943zm2.574 1.441a8.85 8.85 0 1 0 8.85 8.85 8.849 8.849 0 0 0-8.85-8.85zm.885 13.268v.892a.442.442 0 0 1-.442.442h-.885a.442.442 0 0 1-.442-.442v-.9a3.167 3.167 0 0 1-1.735-.628.443.443 0 0 1-.032-.671l.65-.62a.454.454 0 0 1 .56-.04 1.332 1.332 0 0 0 .709.206h1.555a.7.7 0 0 0 .653-.73.722.722 0 0 0-.485-.7l-2.489-.747a2.5 2.5 0 0 1-1.747-2.4 2.463 2.463 0 0 1 2.36-2.493v-.892a.442.442 0 0 1 .442-.442h.885a.442.442 0 0 1 .442.442v.9a3.163 3.163 0 0 1 1.735.628.443.443 0 0 1 .032.671l-.65.62a.454.454 0 0 1-.56.04 1.327 1.327 0 0 0-.709-.206h-1.555a.7.7 0 0 0-.653.73.722.722 0 0 0 .485.7l2.489.747a2.5 2.5 0 0 1 1.747 2.4 2.462 2.462 0 0 1-2.36 2.493z"/>
</svg>
