<svg xmlns="http://www.w3.org/2000/svg" width="105.509" height="87.818" viewBox="0 0 105.509 87.818">
    <defs>
        <style>
            .cls-1,.cls-2,.cls-3{fill:none;stroke-linecap:round;stroke-linejoin:round}.cls-1,.cls-2{stroke:#777}.cls-1,.cls-3{stroke-width:1.5px}.cls-2{stroke-width:2px}.cls-3{stroke:#eb1c24}
        </style>
    </defs>
    <g id="Group_1209" transform="translate(-1047.239 -402.733)">
        <g id="Group_895" transform="translate(1063.938 416.62)">
            <path id="Path_4511" d="M1131.77 443.922c5.173-.367 9.546 1.826 10.122 5.269s-2.848 6.939-7.859 8.274" class="cls-1" transform="translate(-1078.088 -423.449)"/>
            <path id="Line_28" d="M0 10.68L8.536 0" class="cls-1" transform="translate(71.833 .196)"/>
            <path id="Line_29" d="M0 0L11.545 7.324" class="cls-1" transform="translate(76.23 37.189)"/>
            <path id="Line_30" d="M0 1.39L8.319 0" class="cls-1" transform="translate(74.031 22.642)"/>
            <ellipse id="Ellipse_17" cx="6.791" cy="25.393" class="cls-2" rx="6.791" ry="25.393" transform="rotate(-9.486 38.677 -302.489)"/>
            <path id="Path_4512" d="M1139.152 470.734l-1.1-.128-24.594-2.851a42.687 42.687 0 0 1-6.005-35.943l22.331-10.692 1-.479" class="cls-2" transform="translate(-1073.706 -419.52)"/>
            <path id="Path_4513" d="M1094.993 476.082l3.915 14.918a11.48 11.48 0 0 1 .249 1.256c.579 4.573-2.176 8.854-6.309 9.379a2.87 2.87 0 0 1-2.944-1.925l-9.756-24.554" class="cls-2" transform="translate(-1069.362 -428.734)"/>
            <path id="Path_4514" d="M1106.917 470.027l-32.039-2.005a6.645 6.645 0 0 1-6.138-5.537l-1.48-8.858a6.645 6.645 0 0 1 4.005-7.231l29.647-12.312" class="cls-2" transform="translate(-1067.168 -421.792)"/>
        </g>
        <path id="Path_4515" d="M1089.692 428.25a8.574 8.574 0 1 1 15.58-6.973m-23.107 10.1l-1.421-3.443c-.11.027-1.844-.076-3.033-.15a1.177 1.177 0 0 1-1.1-1.168v-5.177a1.168 1.168 0 0 1 1.1-1.168c1.189-.075 2.923-.178 3.033-.157l2.035-4.924c-.088-.061-1.243-1.359-2.028-2.254a1.164 1.164 0 0 1 .048-1.6l3.661-3.661a1.173 1.173 0 0 1 1.6-.055c.888.792 2.185 1.939 2.247 2.035l4.925-2.042c-.021-.1.082-1.837.157-3.026a1.163 1.163 0 0 1 1.168-1.1h5.177a1.173 1.173 0 0 1 1.168 1.1c.075 1.189.177 2.923.15 3.026l4.931 2.042c.055-.1 1.353-1.243 2.248-2.035a1.173 1.173 0 0 1 1.6.055l3.661 3.661a1.164 1.164 0 0 1 .048 1.6c-.786.895-1.94 2.193-2.036 2.254l1.073 2.588" class="cls-3" transform="translate(-4.826)"/>
        <path id="Path_4516" d="M1072.646 437.989l-1.353-2.342a.812.812 0 0 0-1.052-.322c-.724.356-1.782.882-1.831.937l-4.05-2.337c.021-.075-.055-1.25-.11-2.056a.806.806 0 0 0-.805-.751h-4.953a.807.807 0 0 0-.806.751c-.055.806-.13 1.981-.109 2.056l-4.044 2.337c-.054-.055-1.106-.581-1.837-.937a.815.815 0 0 0-1.052.322l-2.472 4.3a.8.8 0 0 0 .246 1.073c.669.45 1.653 1.1 1.721 1.12v4.672c-.068.013-1.052.67-1.721 1.12a.8.8 0 0 0-.246 1.073l2.472 4.289a.8.8 0 0 0 1.052.321c.731-.356 1.783-.874 1.837-.929l4.044 2.336c-.021.068.054 1.243.109 2.056a.807.807 0 0 0 .806.752h1.824m5.034-16.8a5.574 5.574 0 1 0-6.393 8.647" class="cls-3" transform="translate(0 -4.671)"/>
    </g>
</svg>
