<svg xmlns="http://www.w3.org/2000/svg" id="Google_2015_logo_1_" width="153.524" height="50.537" viewBox="0 0 153.524 50.537">
    <defs>
        <style>
            .cls-1{fill:#fff}
        </style>
    </defs>
    <path id="Path_5535" d="M96.587 37.629A12.668 12.668 0 1 1 83.918 25a12.473 12.473 0 0 1 12.669 12.629zm-5.546 0c0-4.544-3.3-7.652-7.123-7.652S76.8 33.085 76.8 37.629a7.141 7.141 0 1 0 14.246 0z" class="cls-1" transform="translate(-30.888 -11.033)"/>
    <path id="Path_5536" d="M144.587 37.629A12.668 12.668 0 1 1 131.918 25a12.473 12.473 0 0 1 12.669 12.629zm-5.546 0c0-4.544-3.3-7.652-7.123-7.652s-7.123 3.109-7.123 7.652a7.141 7.141 0 1 0 14.246 0z" class="cls-1" transform="translate(-51.558 -11.033)"/>
    <path id="Path_5537" d="M191.44 25.763v22.672c0 9.326-5.5 13.135-12 13.135a12.026 12.026 0 0 1-11.194-7.442l4.828-2.01a6.976 6.976 0 0 0 6.36 4.481c4.162 0 6.741-2.568 6.741-7.4v-1.817h-.194a8.6 8.6 0 0 1-6.65 2.87 12.5 12.5 0 0 1-12.1-12.577c0-7.128 5.785-12.674 12.1-12.674a8.751 8.751 0 0 1 6.65 2.824h.194v-2.056h5.267zm-4.874 11.911c0-4.447-2.966-7.7-6.741-7.7-3.826 0-7.032 3.251-7.032 7.7 0 4.4 3.206 7.607 7.032 7.607 3.775 0 6.741-3.206 6.741-7.607z" class="cls-1" transform="translate(-72.22 -11.033)"/>
    <path id="Path_5538" d="M220.909 3v37.009H215.5V3z" class="cls-1" transform="translate(-93.006 -1.56)"/>
    <path id="Path_5539" d="M247.839 41.781l4.3 2.87a12.57 12.57 0 0 1-10.522 5.6 12.356 12.356 0 0 1-12.527-12.632c0-7.51 5.4-12.629 11.911-12.629 6.553 0 9.759 5.215 10.807 8.034l.575 1.435L235.5 41.45a6.427 6.427 0 0 0 6.121 3.826 7.208 7.208 0 0 0 6.218-3.495zm-13.249-4.544l11.285-4.686a4.889 4.889 0 0 0-4.686-2.676 6.927 6.927 0 0 0-6.599 7.362z" class="cls-1" transform="translate(-98.859 -11.029)"/>
    <path id="Path_5540" d="M20.248 23.78v-5.358H38.3a17.753 17.753 0 0 1 .268 3.234c0 4.02-1.1 8.99-4.64 12.532-3.445 3.587-7.846 5.5-13.676 5.5A19.884 19.884 0 0 1 .36 20.079 19.884 19.884 0 0 1 20.254.47a18.685 18.685 0 0 1 13.437 5.4L29.91 9.654a13.657 13.657 0 0 0-9.662-3.826A14.066 14.066 0 0 0 6.185 20.079 14.066 14.066 0 0 0 20.248 34.33a13.118 13.118 0 0 0 9.9-3.923 11.105 11.105 0 0 0 2.9-6.633z" class="cls-1" transform="translate(-.36 -.47)"/>
</svg>
