<svg xmlns="http://www.w3.org/2000/svg" width="27.415" height="22.275" viewBox="0 0 27.415 22.275">
    <path fill="#fff" d="M10.709 18.635a5.569 5.569 0 1 0 5.569-5.569 5.569 5.569 0 0 0-5.569 5.569zm17.563-9.424h-6c-.428-1.713-.857-3.427-2.57-3.427h-6.851c-1.713 0-2.142 1.713-2.57 3.427h-6a1.718 1.718 0 0 0-1.713 1.713v15.421a1.718 1.718 0 0 0 1.713 1.713h23.991a1.718 1.718 0 0 0 1.713-1.713V10.924a1.718 1.718 0 0 0-1.713-1.713zM16.278 26.238a7.6 7.6 0 1 1 7.6-7.6 7.6 7.6 0 0 1-7.6 7.6zm11.994-11.887h-3.427v-1.713h3.427z" transform="translate(-2.571 -5.784)"/>
</svg>
