<svg xmlns="http://www.w3.org/2000/svg" id="logo-facebook" width="145.971" height="30.009" viewBox="0 0 145.971 30.009">
    <defs>
        <style>
            .cls-1{fill:#fff;fill-rule:evenodd}
        </style>
    </defs>
    <path id="Path_110" d="M242.924 73.885l6.18-1.031V82.4c.837-.176 1.63-.4 2.441-.5a13.2 13.2 0 0 1 5.907.379 4.49 4.49 0 0 1 3.163 3.8 20.588 20.588 0 0 1 .26 3.123c.018 2.065.016 4.134-.08 6.2a6.435 6.435 0 0 1-2.322 5.106 8.066 8.066 0 0 1-3.738 1.5 28.171 28.171 0 0 1-8.113.024c-1.11-.135-2.216-.315-3.326-.448-.3-.037-.416-.162-.4-.452.01-.19 0-.383 0-.574V74.502c.004-.192.017-.382.028-.617zm6.188 23.2a11.24 11.24 0 0 0 3.525-.027 2.1 2.1 0 0 0 1.92-2.192c.085-1.916.108-3.837.061-5.753a1.909 1.909 0 0 0-1.89-2.1 5.542 5.542 0 0 0-3.4.692.542.542 0 0 0-.2.419c-.015 1.727-.009 3.456-.009 5.184z" class="cls-1" transform="translate(-174.244 -72.302)"/>
    <path id="Path_111" d="M357.8 102.044h-1.138c-1.7 0-3.4-.013-5.1.009a.767.767 0 0 1-.766-.434c-1.666-2.8-3.349-5.6-5.026-8.394-.046-.075-.093-.147-.2-.324v9.116c-.2.009-.354.024-.51.024-1.743 0-3.486-.013-5.229.012-.411.005-.53-.112-.526-.517.017-1.964.008-3.929.008-5.894V74.5c0-.612 0-.6.622-.7 1.7-.278 3.4-.569 5.1-.852.143-.024.291-.027.491-.045v17.72l.1.032c.154-.237.314-.47.465-.708q2.354-3.723 4.7-7.451a.825.825 0 0 1 .8-.46c1.832.029 3.663.01 5.5.01h.713c-.109.2-.171.343-.251.469q-2.793 4.415-5.595 8.823a.724.724 0 0 0-.026.9c1.907 3.139 3.788 6.294 5.676 9.445.048.087.092.177.192.361z" class="cls-1" transform="translate(-211.828 -72.323)"/>
    <path id="Path_112" d="M228.011 102.154c.01.155.026.284.026.412 0 1.4-.005 2.807.007 4.208 0 .3-.065.422-.393.5a32.519 32.519 0 0 1-8.485.666 10.1 10.1 0 0 1-3.887-.924 6.781 6.781 0 0 1-3.94-5.264 17.016 17.016 0 0 1-.191-2.64c-.027-1.535-.054-3.073.01-4.606a7.228 7.228 0 0 1 1.7-4.64 6.71 6.71 0 0 1 3.761-2.091 13.829 13.829 0 0 1 7.417.278 5.993 5.993 0 0 1 4.322 5.26c.243 2.037.2 4.108.283 6.226h-.649c-3.382 0-6.764.008-10.145-.01-.4 0-.534.119-.493.5.033.309.012.624.07.926a1.866 1.866 0 0 0 1.857 1.708 28.24 28.24 0 0 0 3.842.044c1.541-.1 3.069-.359 4.6-.548a2.537 2.537 0 0 1 .288-.005zm-8.144-6.825h1.239c1.345 0 1.345 0 1.205-1.341a1.786 1.786 0 0 0-1.5-1.733 5.907 5.907 0 0 0-1.88-.021 1.636 1.636 0 0 0-1.447 1.364c-.088.443-.083.9-.126 1.356-.027.29.1.386.385.38.707-.014 1.415-.005 2.124-.005z" class="cls-1" transform="translate(-161.857 -77.973)"/>
    <path id="Path_113" d="M325.222 97.659c-.082 1.392-.072 2.743-.259 4.066a6.524 6.524 0 0 1-5.34 5.81 13.838 13.838 0 0 1-7.552-.2 6.469 6.469 0 0 1-4.687-5.506 20.163 20.163 0 0 1-.181-3.084c-.012-1.505-.043-3.017.088-4.512a6.73 6.73 0 0 1 5.8-6.49 13.82 13.82 0 0 1 7.253.3 6.4 6.4 0 0 1 4.6 5.43c.215 1.392.194 2.82.278 4.186zm-6.318.047h-.004c0-.976.018-1.95 0-2.924a2.085 2.085 0 0 0-1.505-1.974 4.082 4.082 0 0 0-2.227-.059 2.058 2.058 0 0 0-1.7 1.949q-.047 2.988 0 5.98A1.957 1.957 0 0 0 315 102.6a5.632 5.632 0 0 0 1.7.145 2.2 2.2 0 0 0 2.2-2.383c.01-.886 0-1.77 0-2.656z" class="cls-1" transform="translate(-199.31 -77.974)"/>
    <path id="Path_114" d="M293.111 97.89c-.1 1.284-.108 2.784-.363 4.242a6.485 6.485 0 0 1-5.391 5.456 14.064 14.064 0 0 1-7.128-.145 6.559 6.559 0 0 1-4.973-5.5 12.789 12.789 0 0 1-.184-2.109c-.024-1.653-.057-3.308.012-4.959a7.268 7.268 0 0 1 2.366-5.48 7.714 7.714 0 0 1 3.918-1.715 13.9 13.9 0 0 1 7.067.46 6.4 6.4 0 0 1 4.386 5.451c.2 1.345.191 2.725.29 4.299zm-11.8-.2h-.03v2.658a3.011 3.011 0 0 0 .031.4 1.955 1.955 0 0 0 1.473 1.843 5.642 5.642 0 0 0 1.83.162 2.18 2.18 0 0 0 2.148-2.212q.02-2.835 0-5.671a2.1 2.1 0 0 0-1.574-2.061 4.064 4.064 0 0 0-2.313-.007 2.014 2.014 0 0 0-1.555 1.923c-.037.985-.007 1.975-.007 2.964z" class="cls-1" transform="translate(-186.777 -77.984)"/>
    <path id="Path_115" d="M163.655 106.841c-1.174.372-2.291.8-3.443 1.071a8.219 8.219 0 0 1-4.159.006 5.1 5.1 0 0 1-3.809-4.27 7.959 7.959 0 0 1 .029-3.206 4.337 4.337 0 0 1 3.605-3.564 16.326 16.326 0 0 1 2.762-.287c1.239-.046 2.482-.026 3.722 0 .38.007.5-.118.461-.478a7.747 7.747 0 0 1-.028-.93c.031-1.595-.754-1.937-2.01-1.99-2-.086-4.014-.07-6.022-.1h-.6c.038-.486.066-.934.109-1.38.115-1.173.229-2.347.37-3.517a.443.443 0 0 1 .329-.279c2.584.015 5.168.013 7.751.1a10.41 10.41 0 0 1 2.465.469 4.9 4.9 0 0 1 3.652 4.419 20.482 20.482 0 0 1 .186 2.776c.021 3.914 0 7.829.017 11.744 0 .417-.1.559-.538.551q-2.08-.043-4.164 0c-.413.007-.548-.16-.586-.522-.019-.229-.071-.454-.099-.613zm-2.688-6.053v.006c-.456 0-.914-.013-1.372 0-.9.029-1.282.442-1.262 1.337a1.4 1.4 0 0 0 1.514 1.563 5.107 5.107 0 0 0 2.743-.7.576.576 0 0 0 .218-.421c.027-.471 0-.943.015-1.416.012-.3-.117-.384-.4-.375-.48.018-.968.006-1.456.006z" class="cls-1" transform="translate(-138.847 -78.175)"/>
    <path id="Path_116" d="M144.258 71.95v3.45c0 .472-.014.945 0 1.417.01.288-.087.391-.38.385q-1.216-.02-2.437 0a3.759 3.759 0 0 0-.829.107 1.046 1.046 0 0 0-.876 1.033c-.032 1.088-.01 2.177-.01 3.32h4.559c-.079.83-.147 1.6-.226 2.375s-.181 1.552-.243 2.331c-.028.353-.126.513-.528.5-1.194-.029-2.388-.01-3.623-.01v14.765h-6.19c-.015-.2-.043-.413-.043-.625 0-4.535-.007-9.071.008-13.6 0-.416-.084-.568-.53-.547-.821.041-1.647.012-2.527.012v-.525c0-1.33-.007-2.659 0-3.989 0-.743-.088-.671.654-.677.665 0 1.33-.02 1.995 0 .323.011.4-.114.4-.409.007-1.225-.013-2.453.059-3.675a5.786 5.786 0 0 1 1.674-4.07 4.983 4.983 0 0 1 3.1-1.378c1.97-.134 3.947-.13 5.993-.19z" class="cls-1" transform="translate(-130.382 -71.95)"/>
    <path id="Path_117" d="M198.481 93.3c-.988-.154-1.9-.309-2.818-.436a13.477 13.477 0 0 0-4.707-.048 1.814 1.814 0 0 0-1.592 1.849q-.059 3.072 0 6.147a1.684 1.684 0 0 0 1.5 1.768 17.652 17.652 0 0 0 3.428.135c1.289-.084 2.564-.353 3.848-.541a2.5 2.5 0 0 1 .3 0 2.454 2.454 0 0 1 .045.337v4.3c0 .278-.059.406-.365.475a24.546 24.546 0 0 1-6.976.674 9.011 9.011 0 0 1-5.663-2.067 6.615 6.615 0 0 1-2.259-4.569 53.633 53.633 0 0 1-.082-6.583 6.991 6.991 0 0 1 3.367-5.948 9.553 9.553 0 0 1 4.014-1.254 23.17 23.17 0 0 1 7.587.634c.142.032.356.209.357.323.024 1.57.016 3.147.016 4.804z" class="cls-1" transform="translate(-150.924 -77.987)"/>
</svg>
