<svg xmlns="http://www.w3.org/2000/svg" id="logo-youtube" width="134.676" height="30.046" viewBox="0 0 134.676 30.046">
    <defs>
        <style>
            .cls-1{fill:#fff}
        </style>
    </defs>
    <path id="Subtraction_7" d="M21.456 30.046c-.134 0-13.436-.011-16.79-.919a5.377 5.377 0 0 1-3.782-3.782C.01 22.06 0 15.093 0 15.023S.01 8.021.884 4.7A5.5 5.5 0 0 1 4.666.884C7.986.01 21.322 0 21.456 0s13.471.011 16.79.919A5.376 5.376 0 0 1 42.029 4.7c.908 3.319.884 10.287.884 10.357s-.01 7-.884 10.322a5.376 5.376 0 0 1-3.782 3.782c-3.32.875-16.656.885-16.791.885zM17.179 8.59v12.866l11.17-6.433z" class="cls-1"/>
    <g id="Group_101" transform="translate(47.19 1.167)">
        <path id="Path_79" d="M148.629 31.238a4.573 4.573 0 0 1-1.8-2.686 17.71 17.71 0 0 1-.53-4.807v-2.722a16.629 16.629 0 0 1 .6-4.878 5.043 5.043 0 0 1 1.909-2.686 6.237 6.237 0 0 1 3.429-.848 5.986 5.986 0 0 1 3.358.848 4.9 4.9 0 0 1 1.838 2.686 16.3 16.3 0 0 1 .6 4.878v2.722a16.514 16.514 0 0 1-.566 4.843 4.9 4.9 0 0 1-1.838 2.686 6.2 6.2 0 0 1-3.464.848 6.679 6.679 0 0 1-3.535-.884zm4.772-2.969a8.822 8.822 0 0 0 .353-3V19.4a8.858 8.858 0 0 0-.353-2.969 1.269 1.269 0 0 0-2.439 0 8.858 8.858 0 0 0-.354 2.969v5.868a8.823 8.823 0 0 0 .354 3 1.242 1.242 0 0 0 1.237.919 1.219 1.219 0 0 0 1.201-.918zm60.48-4.489v.954a25.605 25.605 0 0 0 .106 2.722 2.262 2.262 0 0 0 .46 1.308 1.241 1.241 0 0 0 1.06.424 1.326 1.326 0 0 0 1.308-.742 6.491 6.491 0 0 0 .389-2.474l3.641.212a3.648 3.648 0 0 1 .035.672 4.948 4.948 0 0 1-1.414 3.888 5.862 5.862 0 0 1-4.03 1.273c-2.086 0-3.535-.672-4.383-1.979s-1.272-3.323-1.272-6.08v-3.289c0-2.828.424-4.878 1.308-6.186s2.368-1.944 4.454-1.944a5.961 5.961 0 0 1 3.358.813 4.325 4.325 0 0 1 1.626 2.474 18.1 18.1 0 0 1 .459 4.666v3.217h-7.1zm.53-7.918a2.7 2.7 0 0 0-.424 1.308 25.914 25.914 0 0 0-.106 2.757v1.343h3.111v-1.343a26.845 26.845 0 0 0-.106-2.757 2.421 2.421 0 0 0-.46-1.308 1.276 1.276 0 0 0-.99-.389 1.072 1.072 0 0 0-1.025.389zm-76.1 7.564L133.5 6h4.206l1.7 7.883q.636 2.916.954 4.984h.106c.141-.99.459-2.616.954-4.949L143.185 6h4.206l-4.878 17.427v8.342h-4.171v-8.342zm33.4-10.463V31.8h-3.323l-.353-2.3h-.106a4.35 4.35 0 0 1-4.065 2.616 3.215 3.215 0 0 1-2.757-1.237 6.526 6.526 0 0 1-.884-3.853V12.964h4.242v13.821a4.308 4.308 0 0 0 .283 1.8.953.953 0 0 0 .919.53 1.814 1.814 0 0 0 1.06-.353 1.723 1.723 0 0 0 .742-.848v-14.95zm21.739 0V31.8h-3.323l-.353-2.3h-.106a4.351 4.351 0 0 1-4.065 2.616 3.215 3.215 0 0 1-2.757-1.237 6.527 6.527 0 0 1-.884-3.853V12.964h4.238v13.821a4.307 4.307 0 0 0 .283 1.8.953.953 0 0 0 .919.53 1.814 1.814 0 0 0 1.06-.353 1.723 1.723 0 0 0 .742-.848v-14.95z" class="cls-1" transform="translate(-133.5 -5.046)"/>
        <path id="Path_80" d="M251.249 7.683h-4.206v22.34h-4.136V7.683H238.7V4.254h12.549zm24.251 6.539a4.769 4.769 0 0 0-1.237-2.58 3.375 3.375 0 0 0-2.368-.813 3.811 3.811 0 0 0-2.192.672 4.323 4.323 0 0 0-1.555 1.732h-.035V3.3h-4.1v26.723h3.5l.424-1.767h.106a3.613 3.613 0 0 0 1.485 1.52 4.592 4.592 0 0 0 2.192.566 3.312 3.312 0 0 0 3.146-1.979 14.274 14.274 0 0 0 1.025-6.186v-2.97a28.326 28.326 0 0 0-.389-4.984zm-3.888 7.67a24.476 24.476 0 0 1-.177 3.217 3.6 3.6 0 0 1-.566 1.661 1.377 1.377 0 0 1-1.06.495 1.751 1.751 0 0 1-.954-.247 2.042 2.042 0 0 1-.707-.742V15.6a2.89 2.89 0 0 1 .742-1.273 1.714 1.714 0 0 1 1.131-.495 1.146 1.146 0 0 1 .99.495 4.042 4.042 0 0 1 .495 1.7 28.494 28.494 0 0 1 .141 3.393v2.474z" class="cls-1" transform="translate(-201.514 -3.3)"/>
    </g>
</svg>
