<svg xmlns="http://www.w3.org/2000/svg" width="25.715" height="25.715" viewBox="0 0 25.715 25.715">
    <path fill="#fff" d="M22.96 2.25H2.755A2.756 2.756 0 0 0 0 5.005v20.2a2.756 2.756 0 0 0 2.755 2.755h20.2a2.756 2.756 0 0 0 2.755-2.755v-20.2a2.756 2.756 0 0 0-2.75-2.755zm-8.966 20.056a3.286 3.286 0 0 1-3.61 3.645 3.754 3.754 0 0 1-3.628-2.21l1.969-1.188c.379.672.723 1.24 1.556 1.24.792 0 1.3-.31 1.3-1.521v-8.215h2.417zm5.717 3.645a4.638 4.638 0 0 1-4.4-2.468l1.969-1.137a2.637 2.637 0 0 0 2.382 1.469c1 0 1.642-.5 1.642-1.194 0-.827-.654-1.119-1.762-1.607l-.6-.258c-1.745-.74-2.9-1.676-2.9-3.645a3.228 3.228 0 0 1 3.536-3.191 3.559 3.559 0 0 1 3.433 1.934l-1.883 1.205a1.644 1.644 0 0 0-1.556-1.033 1.049 1.049 0 0 0-1.154 1.033c0 .723.448 1.016 1.487 1.469l.6.258c2.055.878 3.209 1.779 3.209 3.8 0 2.17-1.711 3.364-4 3.364z" transform="translate(0 -2.25)"/>
</svg>
