<svg xmlns="http://www.w3.org/2000/svg" width="30.092" height="24.074" viewBox="0 0 30.092 24.074">
    <path fill="#fff" d="M28.588 0H7.523a1.5 1.5 0 0 0-1.5 1.5v4.518h7.523V3.009h9.028v15.046h6.018a1.5 1.5 0 0 0 1.5-1.5V1.5A1.5 1.5 0 0 0 28.588 0zm-17.68 4.843a.423.423 0 0 1-.423.423h-1.41a.423.423 0 0 1-.423-.423V3.432a.423.423 0 0 1 .423-.423h1.411a.423.423 0 0 1 .423.423zm16.551 9.78a.423.423 0 0 1-.423.423h-1.411a.423.423 0 0 1-.423-.423v-1.411a.423.423 0 0 1 .423-.423h1.411a.423.423 0 0 1 .423.423zm0-4.89a.423.423 0 0 1-.423.423h-1.411a.423.423 0 0 1-.423-.423V8.322a.423.423 0 0 1 .423-.423h1.411a.423.423 0 0 1 .423.423zm0-4.89a.423.423 0 0 1-.423.423h-1.411a.423.423 0 0 1-.423-.423V3.432a.423.423 0 0 1 .423-.423h1.411a.423.423 0 0 1 .423.423zm-7.9 2.68H1.5A1.5 1.5 0 0 0 0 9.028v13.541a1.5 1.5 0 0 0 1.5 1.5h18.06a1.5 1.5 0 0 0 1.5-1.5V9.028a1.5 1.5 0 0 0-1.5-1.505zM4.514 10.532a1.5 1.5 0 1 1-1.5 1.5 1.5 1.5 0 0 1 1.5-1.5zm13.541 10.533H3.009v-1.5l3.009-3.009 1.5 1.5 6.018-6.018 4.514 4.514z"/>
</svg>
