<svg xmlns="http://www.w3.org/2000/svg" width="764.662" height="723.994" viewBox="0 0 764.662 723.994">
    <defs>
        <style>
            .cls-1{fill:none;stroke:#fff;stroke-linecap:round;stroke-miterlimit:10;stroke-width:1.984px}
        </style>
    </defs>
    <g id="Group_1744" transform="translate(1.007 1.217)">
        <g id="Group_1724">
            <g id="Group_1723">
                <path id="Path_5609" d="M223.457 619.011q-1.737-2.95-3.37-5.873" class="cls-1" transform="translate(-193.839 102.407)"/>
                <path id="Path_5610" fill="none" stroke="#fff" stroke-dasharray="7.131 7.131" stroke-linecap="round" stroke-miterlimit="10" stroke-width="1.984px" d="M226.266 942.243c-83.682-170.214 113-264.364 281.115-303.16 158.61-36.6 266.944-76.291 292.434-145.261 32.492-87.921-72.029-220.516-159.277-249.11-53.047-17.385-101.914 5-112.132 45.872-12.741 50.968 38.706 87.461 93.655 96.2 74.811 11.9 233.817-34.175 336.194-118.048" transform="translate(-206.354 -238.768)"/>
                <path id="Path_5611" d="M602.481 254.278q2.589-2.2 5.124-4.425" class="cls-1" transform="translate(154.649 -228.666)"/>
            </g>
        </g>
    </g>
</svg>
