<svg xmlns="http://www.w3.org/2000/svg" width="49.016" height="71.274" viewBox="0 0 49.016 71.274">
    <defs>
        <style>
            .prefix__cls-1{fill:none;stroke:#222;stroke-linecap:round;stroke-linejoin:round;stroke-width:2px}
        </style>
    </defs>
    <g id="prefix__icn-strategy-chess-piece" transform="translate(-395.492 -227.758)">
        <path id="prefix__Path_4473" d="M427.479 255.345h3.916a2.832 2.832 0 0 1 2.062.887l1.454 1.554a2.823 2.823 0 0 0 4.057.068l2.116-2.117a2.817 2.817 0 0 0 .826-1.993v-1.815a2.8 2.8 0 0 0-.821-1.981l-10.608-10.721a2.825 2.825 0 0 1 .194-4.143 2.79 2.79 0 0 0 1-2.148 2.841 2.841 0 0 0-.018-.32 2.757 2.757 0 0 0-2.215-2.308l-5.306-1.128a15.465 15.465 0 0 0-18.536 10.774 21.128 21.128 0 0 0-1.14 6.111l-.394 21.029a2.81 2.81 0 0 0 .674 2.094l3.756 1.075a2.8 2.8 0 0 1 .687 1.848V282.2h22v-4.211a2.837 2.837 0 0 1 .88-2.054l3.062-2.915a2.823 2.823 0 0 0 .074-4.01l-6.932-7.138a2.8 2.8 0 0 1-.794-1.962v-4.57h-3.522a2.826 2.826 0 0 1-2.442-1.4l-3.182-5.457" class="prefix__cls-1" data-name="Path 4473"/>
        <path id="prefix__Path_4474" d="M427.479 255.345h3.916a2.832 2.832 0 0 1 2.062.887l1.454 1.554a2.823 2.823 0 0 0 4.057.068l2.116-2.117a2.817 2.817 0 0 0 .826-1.993v-1.815a2.8 2.8 0 0 0-.821-1.981l-10.608-10.721a2.825 2.825 0 0 1 .194-4.143 2.79 2.79 0 0 0 1-2.148 2.841 2.841 0 0 0-.018-.32 2.757 2.757 0 0 0-2.215-2.308l-5.306-1.128a15.465 15.465 0 0 0-18.536 10.774 21.128 21.128 0 0 0-1.14 6.111l-.394 21.029a2.81 2.81 0 0 0 .674 2.094l3.756 1.075a2.8 2.8 0 0 1 .687 1.848V282.2h22v-4.211a2.837 2.837 0 0 1 .88-2.054l3.062-2.915a2.823 2.823 0 0 0 .074-4.01l-6.932-7.138a2.8 2.8 0 0 1-.794-1.962v-4.57h-3.522a2.826 2.826 0 0 1-2.442-1.4l-3.182-5.457" class="prefix__cls-1" data-name="Path 4474"/>
        <path id="prefix__Path_4475" d="M413.228 237.753a13.122 13.122 0 0 0-2.8 5.042 17.83 17.83 0 0 0-.971 5.062l-.144 7.657" class="prefix__cls-1" data-name="Path 4475"/>
        <path id="prefix__Rectangle_26" d="M4.226 0h25.342a4.226 4.226 0 0 1 4.226 4.226v3.689H0V4.226A4.226 4.226 0 0 1 4.226 0z" class="prefix__cls-1" data-name="Rectangle 26" transform="translate(403.103 282.203)"/>
        <path id="prefix__Rectangle_27" d="M7.518 0H39.5a7.518 7.518 0 0 1 7.518 7.518v.4H0v-.4A7.518 7.518 0 0 1 7.518 0z" class="prefix__cls-1" data-name="Rectangle 27" transform="translate(396.492 290.118)"/>
    </g>
</svg>
