<svg xmlns="http://www.w3.org/2000/svg" viewBox="0 0 23 45" width="23" height="45">
	<style>
		tspan { white-space:pre }
		.shp0 { fill: #000000 } 
	</style>
	<path id="Shape 1" class="shp0" d="M12.26 43.72L22.01 34.15C22.25 33.89 22.3 33.59 22.15 33.28C22 32.96 21.73 32.81 21.34 32.81L15.1 32.81L15.1 1.71C15.1 1.48 15.01 1.29 14.85 1.14C14.68 0.99 14.47 0.91 14.21 0.91L8.86 0.91C8.6 0.91 8.38 0.99 8.22 1.14C8.05 1.29 7.97 1.48 7.97 1.71L7.97 32.81L1.72 32.81C1.35 32.81 1.08 32.96 0.92 33.28C0.77 33.59 0.82 33.89 1.08 34.15L10.95 43.72C11.13 43.88 11.35 43.97 11.62 43.97C11.86 43.97 12.07 43.88 12.26 43.72L12.26 43.72Z" />
</svg>