<svg xmlns="http://www.w3.org/2000/svg" width="24.151" height="24.151" viewBox="0 0 24.151 24.151">
    <path id="prefix__icn-awesome-linkedin" d="M22.426 2.25H1.72A1.732 1.732 0 0 0 0 3.991V24.66a1.732 1.732 0 0 0 1.72 1.74h20.706a1.737 1.737 0 0 0 1.725-1.741V3.991a1.737 1.737 0 0 0-1.725-1.741zM7.3 22.951H3.72V11.425H7.3v11.526zm-1.79-13.1a2.075 2.075 0 1 1 2.075-2.075 2.076 2.076 0 0 1-2.076 2.075zm15.207 13.1h-3.58v-5.607c0-1.337-.027-3.057-1.86-3.057-1.865 0-2.151 1.456-2.151 2.96v5.7H9.547V11.425h3.434V13h.049a3.77 3.77 0 0 1 3.391-1.86c3.623 0 4.3 2.388 4.3 5.493z" transform="translate(0 -2.25)" style="fill:#222"/>
</svg>
