<svg xmlns="http://www.w3.org/2000/svg" width="73.665" height="52.38" viewBox="0 0 73.665 52.38">
    <defs>
        <style>
            .prefix__cls-1,.prefix__cls-2{fill:none;stroke:#222;stroke-linecap:round;stroke-linejoin:round}.prefix__cls-1{stroke-width:2px}
        </style>
    </defs>
    <g id="prefix__icn-part-application" transform="translate(1 1)">
        <path id="prefix__Path_4476" d="M1072.129 279.656h-9.729a2.7 2.7 0 0 1-2.7-2.7v-44.984a2.7 2.7 0 0 1 2.7-2.7h66.273a2.7 2.7 0 0 1 2.7 2.7v44.987a2.7 2.7 0 0 1-2.7 2.7h-36.118" class="prefix__cls-1" data-name="Path 4476" transform="translate(-1059.708 -229.276)"/>
        <path id="prefix__Rectangle_28" d="M3.8 0h64.069a3.8 3.8 0 0 1 3.8 3.8v4.977H0V3.8A3.8 3.8 0 0 1 3.8 0z" class="prefix__cls-1" data-name="Rectangle 28"/>
        <circle id="prefix__Ellipse_5" cx="1.295" cy="1.295" r="1.295" class="prefix__cls-2" data-name="Ellipse 5" transform="translate(3.289 3.021)"/>
        <circle id="prefix__Ellipse_6" cx="1.295" cy="1.295" r="1.295" class="prefix__cls-2" data-name="Ellipse 6" transform="translate(8.303 3.021)"/>
        <circle id="prefix__Ellipse_7" cx="1.295" cy="1.295" r="1.295" class="prefix__cls-2" data-name="Ellipse 7" transform="translate(13.317 3.021)"/>
    </g>
</svg>
