<svg xmlns="http://www.w3.org/2000/svg" width="41.115" height="42.729" viewBox="0 0 41.115 42.729">
    <defs>
        <style>
            .prefix__cls-1{fill:none;stroke:#eb1c24;stroke-linecap:round;stroke-linejoin:round;stroke-width:2px}
        </style>
    </defs>
    <g id="prefix__icn-part-gear" transform="translate(-158.379 -821.404)">
        <path id="prefix__Path_4490" d="M178.936 863.133h-3.452a1.4 1.4 0 0 1-1.395-1.474c.1-1.791.255-4.6.307-4.762l-5.42-3.129c-.119.125-2.471 1.661-3.973 2.642a1.42 1.42 0 0 1-1.089.193 1.406 1.406 0 0 1-.89-.663l-3.452-5.98a1.408 1.408 0 0 1 .578-1.944c1.6-.81 4.11-2.081 4.28-2.114v-6.264c-.17-.034-2.676-1.3-4.28-2.114a1.407 1.407 0 0 1-.578-1.944l3.452-5.98a1.4 1.4 0 0 1 1.978-.471c1.5.981 3.854 2.517 3.973 2.642l5.42-3.129c-.051-.164-.21-2.97-.307-4.762a1.4 1.4 0 0 1 1.395-1.474h6.9a1.4 1.4 0 0 1 1.395 1.474c-.1 1.792-.255 4.6-.307 4.762l5.42 3.129c.119-.125 2.471-1.661 3.973-2.642a1.4 1.4 0 0 1 1.978.471l3.452 5.98a1.407 1.407 0 0 1-.578 1.944c-1.6.811-4.11 2.081-4.28 2.114v6.262c.17.034 2.676 1.3 4.28 2.114a1.408 1.408 0 0 1 .578 1.944l-3.452 5.98a1.4 1.4 0 0 1-1.978.471c-1.5-.981-3.854-2.517-3.973-2.642l-5.42 3.129c.051.165.21 2.971.307 4.762a1.4 1.4 0 0 1-1.395 1.474z" class="prefix__cls-1" data-name="Path 4490"/>
        <path id="prefix__Path_4491" d="M185.188 840.981a8.5 8.5 0 0 1 0 17.005v-.006a8.5 8.5 0 1 1 0-17.005z" class="prefix__cls-1" data-name="Path 4491" transform="translate(-6.252 -6.712)"/>
    </g>
</svg>
