<svg xmlns="http://www.w3.org/2000/svg" width="24.151" height="24.151" viewBox="0 0 24.151 24.151">
    <path id="prefix__icn-awesome-facebook-square" d="M21.563 2.25H2.588A2.588 2.588 0 0 0 0 4.838v18.975A2.588 2.588 0 0 0 2.588 26.4h7.4v-8.21H6.59v-3.865h3.4V11.38c0-3.35 1.995-5.2 5.05-5.2a20.574 20.574 0 0 1 2.993.261v3.287h-1.69a1.932 1.932 0 0 0-2.179 2.088v2.509h3.708l-.593 3.865h-3.115v8.21h7.4a2.588 2.588 0 0 0 2.588-2.588V4.838a2.588 2.588 0 0 0-2.589-2.588z" transform="translate(0 -2.25)" style="fill:#222"/>
</svg>
