<svg xmlns="http://www.w3.org/2000/svg" width="120" height="78.699" viewBox="0 0 120 78.699">
    <defs>
        <style>
            .prefix__cls-1{fill:#222}
        </style>
    </defs>
    <g id="prefix__logo-main" transform="translate(-40 -170)">
        <g id="prefix__mbn-name" transform="translate(0 140)">
            <path id="prefix__Path_4118" d="M6.114 92.718l-2.867-5.55v9.714H0V82h3.666l3.893 7.6 3.783-7.6h3.666v14.883H11.73v-9.817l-2.866 5.652z" class="prefix__cls-1" data-name="Path 4118" transform="translate(40 8.113)"/>
            <path id="prefix__Path_4119" d="M30.024 97.209a3.666 3.666 0 0 1-1.07.455 6.775 6.775 0 0 1-1.738.169 4.853 4.853 0 0 1-3.087-.843 3.4 3.4 0 0 1-1.056-2.815v-6.8H26.4v6.092a4.4 4.4 0 0 0 .051.733.953.953 0 0 0 .235.513 1.129 1.129 0 0 0 .513.308 3.218 3.218 0 0 0 .894.1 3.944 3.944 0 0 0 .968-.1 1.268 1.268 0 0 0 .594-.3 1.078 1.078 0 0 0 .293-.557 3.988 3.988 0 0 0 .073-.85V87.37h3.328v10.044a6.789 6.789 0 0 1-.286 2.1 3.057 3.057 0 0 1-.916 1.422 3.959 3.959 0 0 1-1.679.821 10.769 10.769 0 0 1-2.522.257h-4.234l.5-2.705H27.7a6.6 6.6 0 0 0 1.107-.073 1.576 1.576 0 0 0 .733-.286 1.085 1.085 0 0 0 .381-.6 4.4 4.4 0 0 0 .1-1.026z" class="prefix__cls-1" data-name="Path 4119" transform="translate(33.848 6.68)"/>
            <path id="prefix__Path_4120" d="M46.72 81.993h6.84a5.2 5.2 0 0 1 3.424.924 3.46 3.46 0 0 1 1.078 2.742v.227a3.021 3.021 0 0 1-1.84 3.079 3.211 3.211 0 0 1 1.7 1.21 3.776 3.776 0 0 1 .594 2.2v.374a3.666 3.666 0 0 1-1.327 3.174 6.276 6.276 0 0 1-3.8.975H46.72zm3.24 2.639v3.226h2.933a2.2 2.2 0 0 0 1.466-.374 1.525 1.525 0 0 0 .418-1.2v-.244a1.342 1.342 0 0 0-.433-1.114 2.009 2.009 0 0 0-1.327-.337zm0 9.626h3.16a2.493 2.493 0 0 0 1.562-.367 1.657 1.657 0 0 0 .455-1.349v-.286a1.723 1.723 0 0 0-.477-1.393 2.6 2.6 0 0 0-1.62-.389h-3.08z" class="prefix__cls-1" data-name="Path 4120" transform="translate(27.531 8.119)"/>
            <path id="prefix__Path_4121" d="M68.146 82.676a1.635 1.635 0 0 1-.381 1.232 3.123 3.123 0 0 1-2.991 0 1.635 1.635 0 0 1-.4-1.232 1.606 1.606 0 0 1 .4-1.2 2.141 2.141 0 0 1 1.466-.389 2.119 2.119 0 0 1 1.466.389 1.606 1.606 0 0 1 .44 1.2zM64.59 85.69h3.328v10.945H64.59z" class="prefix__cls-1" data-name="Path 4121" transform="translate(22.822 8.359)"/>
            <path id="prefix__Path_4122" d="M71.088 96.116l5.191-6.129H71l.506-2.617h9.062v2.2l-5.235 6.13h5.528l-.5 2.617h-9.273z" class="prefix__cls-1" data-name="Path 4122" transform="translate(21.053 6.68)"/>
            <path id="prefix__Path_4123" d="M96.218 82l6.6 9.443V82h3.27v14.883h-2.852L96.7 87.528v9.355h-3.29V82z" class="prefix__cls-1" data-name="Path 4123" transform="translate(15.072 8.113)"/>
            <path id="prefix__Path_4124" d="M116.848 82.681a1.635 1.635 0 0 1-.4 1.232 3.123 3.123 0 0 1-2.991 0 1.635 1.635 0 0 1-.4-1.232 1.606 1.606 0 0 1 .4-1.2 3.072 3.072 0 0 1 2.991 0 1.605 1.605 0 0 1 .4 1.2zm-3.556 3.013h3.328V96.64h-3.328z" class="prefix__cls-1" data-name="Path 4124" transform="translate(9.83 8.355)"/>
            <path id="prefix__Path_4125" d="M125.344 87.309h1.312q.733 0 1.935.044l-.506 2.639h-2.617a5.975 5.975 0 0 0-1.092.022 1.232 1.232 0 0 0-.66.337 1.466 1.466 0 0 0-.337.733 6.049 6.049 0 0 0-.1 1.217v1.107a6.047 6.047 0 0 0 .1 1.217 1.408 1.408 0 0 0 .345.733 1.276 1.276 0 0 0 .674.33 5.132 5.132 0 0 0 1.041.088h1.606c.462 0 .982 0 1.554-.044l-.5 2.617h-2.742a10.264 10.264 0 0 1-2.588-.279 3.768 3.768 0 0 1-1.672-.858 3.167 3.167 0 0 1-.909-1.525 8.329 8.329 0 0 1-.271-2.3v-1.114a7.911 7.911 0 0 1 .279-2.28 3.343 3.343 0 0 1 .931-1.54 3.856 3.856 0 0 1 1.679-.872 10.153 10.153 0 0 1 2.538-.272z" class="prefix__cls-1" data-name="Path 4125" transform="translate(7.998 6.697)"/>
            <path id="prefix__Path_4126" d="M133.69 96.64V81.09h3.328v5.022a3.416 3.416 0 0 1 1.048-.535 5.66 5.66 0 0 1 1.76-.22 4.919 4.919 0 0 1 3.087.872 3.343 3.343 0 0 1 1.122 2.815v7.6h-3.328v-6.91a3.755 3.755 0 0 0-.067-.734 1.078 1.078 0 0 0-.249-.521 1.122 1.122 0 0 0-.535-.308 3.747 3.747 0 0 0-.909-.1 3.49 3.49 0 0 0-.946.11 1.232 1.232 0 0 0-.594.33 1.217 1.217 0 0 0-.3.623 4.318 4.318 0 0 0-.088.946v6.6z" class="prefix__cls-1" data-name="Path 4126" transform="translate(4.322 8.355)"/>
            <path id="prefix__Path_4127" d="M153.207 93.832a3.666 3.666 0 0 0 .117.88 1.114 1.114 0 0 0 .33.543 1.349 1.349 0 0 0 .645.286 6.136 6.136 0 0 0 1 .073h4.047l-.477 2.6c-.733 0-1.349.044-1.95.044h-1.965a8.4 8.4 0 0 1-2.471-.308 3.277 3.277 0 0 1-2.4-2.471 8.724 8.724 0 0 1-.242-2.2V92.1a8.857 8.857 0 0 1 .264-2.295 3.739 3.739 0 0 1 .88-1.62 3.812 3.812 0 0 1 1.613-.975 8.108 8.108 0 0 1 2.456-.323 5.293 5.293 0 0 1 3.768 1.1 4.069 4.069 0 0 1 1.129 3.065v.44a6.686 6.686 0 0 1-.081 1.129 1.591 1.591 0 0 1-.308.733 1.151 1.151 0 0 1-.572.381 3.373 3.373 0 0 1-.88.1zm1.8-4.479a3.475 3.475 0 0 0-.916.1 1.063 1.063 0 0 0-.543.337 1.466 1.466 0 0 0-.271.66 6.231 6.231 0 0 0-.073 1.085h3.622a6.231 6.231 0 0 0-.073-1.085 1.371 1.371 0 0 0-.286-.66 1.114 1.114 0 0 0-.55-.337 3.453 3.453 0 0 0-.909-.1z" class="prefix__cls-1" data-name="Path 4127" transform="translate(.012 6.809)"/>
        </g>
        <g id="prefix__mbn-b-red" transform="translate(39.867 170)">
            <path id="prefix__Path_4094" fill="#eb1c24" d="M101.44 52.3h-10.8a.859.859 0 0 1-.859-.859V21.1a.859.859 0 0 1 .859-.859h10.8a.859.859 0 0 1 .859.859v30.346a.866.866 0 0 1-.859.859zm18.77-.859v-20.3a10.9 10.9 0 0 0-10.9-10.9h-.822a.793.793 0 0 0-.793.793v30.412a.866.866 0 0 0 .859.859h10.8a.859.859 0 0 0 .856-.859zm-89.558 0V21.1a.859.859 0 0 0-.859-.859H18.98a.852.852 0 0 0-.852.859v30.346a.859.859 0 0 0 .852.859h10.806a.866.866 0 0 0 .859-.859zm17.912 0v-20.3a10.9 10.9 0 0 0-10.916-10.9h-.815a.793.793 0 0 0-.807.793v30.412a.859.859 0 0 0 .859.859H47.7a.859.859 0 0 0 .859-.859zm-35.83 0V21.033a.785.785 0 0 0-.785-.793h-.83A10.9 10.9 0 0 0 .21 31.141v20.3a.866.866 0 0 0 .859.859h10.8a.859.859 0 0 0 .859-.859zM84.387 41.4V31.119A10.9 10.9 0 0 0 73.464 20.24h-.807a.785.785 0 0 0-.785.793v30.479a.793.793 0 0 0 .785.793h.807A10.9 10.9 0 0 0 84.38 41.4zm-17.919 9.987V.78a.778.778 0 0 0-1.182-.661C54.473 6.058 54.8 5.874 54.8 5.874a1.365 1.365 0 0 0-.852 1.431v44.082a.918.918 0 0 0 .918.918H65.55a.918.918 0 0 0 .918-.918z" data-name="Path 4094" transform="translate(-.077 -.006)"/>
        </g>
    </g>
</svg>
