<svg xmlns="http://www.w3.org/2000/svg" viewBox="0 0 120 53" width="120" height="53">
	<style>
		tspan { white-space:pre }
		.shp0 { fill: #222222 } 
		.shp1 { fill: #eb1c24 } 
	</style>
	<g id="prefix__logo-main">
		<g id="prefix__mbn-name">
			<path id="prefix__Path_4118" class="shp0" d="M6.11 70.83L3.25 65.28L3.25 75L0 75L0 60.11L3.67 60.11L7.56 67.71L11.34 60.11L15.01 60.11L15.01 75L11.73 75L11.73 65.18L8.86 70.83L6.11 70.83Z" />
			<path id="prefix__Path_4119" class="shp0" d="M23.87 73.89C23.79 73.94 23.71 73.99 23.62 74.03C23.53 74.08 23.44 74.12 23.36 74.16C23.27 74.2 23.17 74.23 23.08 74.26C22.99 74.29 22.9 74.32 22.8 74.34C22.66 74.38 22.52 74.4 22.37 74.43C22.23 74.45 22.08 74.47 21.94 74.48C21.79 74.5 21.65 74.51 21.5 74.51C21.36 74.52 21.21 74.52 21.06 74.51C20.79 74.53 20.52 74.53 20.25 74.5C19.98 74.47 19.71 74.42 19.45 74.35C19.19 74.28 18.93 74.19 18.68 74.07C18.44 73.96 18.2 73.82 17.98 73.67C17.79 73.49 17.62 73.29 17.48 73.08C17.33 72.86 17.21 72.63 17.12 72.39C17.03 72.14 16.97 71.89 16.93 71.63C16.9 71.37 16.9 71.11 16.92 70.85L16.92 64.06L20.25 64.06L20.25 70.15C20.25 70.21 20.25 70.27 20.25 70.33C20.25 70.39 20.25 70.45 20.26 70.51C20.26 70.58 20.27 70.64 20.27 70.7C20.28 70.76 20.29 70.82 20.3 70.88C20.31 70.93 20.31 70.97 20.33 71.02C20.34 71.07 20.36 71.11 20.38 71.15C20.4 71.2 20.42 71.24 20.45 71.28C20.47 71.32 20.5 71.36 20.53 71.39C20.57 71.43 20.61 71.46 20.65 71.5C20.68 71.53 20.73 71.56 20.77 71.58C20.81 71.61 20.86 71.63 20.9 71.65C20.95 71.67 21 71.69 21.05 71.7C21.12 71.72 21.19 71.74 21.27 71.75C21.34 71.76 21.42 71.77 21.49 71.78C21.57 71.79 21.64 71.8 21.72 71.8C21.79 71.8 21.87 71.8 21.94 71.8C22.02 71.8 22.1 71.8 22.18 71.8C22.27 71.8 22.35 71.79 22.43 71.78C22.51 71.77 22.59 71.76 22.67 71.75C22.75 71.74 22.83 71.72 22.91 71.7C22.96 71.69 23.02 71.67 23.07 71.66C23.12 71.64 23.18 71.62 23.23 71.59C23.28 71.57 23.32 71.54 23.37 71.51C23.42 71.47 23.46 71.44 23.5 71.4C23.54 71.36 23.58 71.32 23.61 71.28C23.64 71.24 23.67 71.19 23.69 71.14C23.72 71.1 23.74 71.05 23.75 71C23.77 70.95 23.79 70.9 23.8 70.84C23.81 70.77 23.82 70.7 23.83 70.63C23.84 70.56 23.85 70.49 23.86 70.42C23.86 70.35 23.87 70.28 23.87 70.21C23.87 70.14 23.87 70.07 23.87 69.99L23.87 64.05L27.2 64.05L27.2 74.09C27.2 74.27 27.2 74.45 27.19 74.63C27.18 74.8 27.16 74.98 27.14 75.16C27.11 75.33 27.08 75.51 27.04 75.68C27.01 75.85 26.96 76.02 26.91 76.19C26.87 76.33 26.82 76.46 26.76 76.59C26.7 76.72 26.63 76.85 26.55 76.97C26.48 77.09 26.39 77.2 26.3 77.31C26.2 77.42 26.1 77.52 25.99 77.62C25.87 77.72 25.75 77.81 25.62 77.9C25.48 77.98 25.35 78.06 25.2 78.13C25.06 78.2 24.92 78.26 24.77 78.31C24.62 78.36 24.47 78.4 24.32 78.44C24.11 78.48 23.9 78.52 23.69 78.56C23.48 78.59 23.27 78.62 23.06 78.64C22.85 78.66 22.64 78.68 22.43 78.69C22.22 78.69 22.01 78.7 21.79 78.69L17.56 78.69L18.06 75.99L21.55 75.99C21.64 75.99 21.73 75.99 21.83 75.99C21.92 75.99 22.01 75.98 22.1 75.98C22.2 75.97 22.29 75.96 22.38 75.95C22.47 75.94 22.56 75.93 22.65 75.92C22.72 75.91 22.79 75.9 22.85 75.88C22.91 75.86 22.98 75.84 23.04 75.82C23.1 75.8 23.16 75.77 23.22 75.74C23.28 75.7 23.33 75.67 23.39 75.63C23.44 75.59 23.48 75.55 23.52 75.51C23.56 75.46 23.6 75.41 23.63 75.36C23.66 75.31 23.69 75.26 23.71 75.2C23.74 75.15 23.76 75.09 23.77 75.03C23.79 74.95 23.8 74.86 23.82 74.78C23.83 74.69 23.84 74.61 23.85 74.52C23.86 74.43 23.86 74.35 23.87 74.26C23.87 74.18 23.87 74.09 23.87 74L23.87 73.89Z" />
			<path id="prefix__Path_4120" fill-rule="evenodd" class="shp0" d="M34.25 60.11L41.09 60.11C41.39 60.09 41.69 60.09 41.99 60.11C42.3 60.14 42.59 60.19 42.88 60.27C43.18 60.35 43.46 60.46 43.73 60.58C44.01 60.71 44.27 60.86 44.52 61.04C44.7 61.21 44.86 61.4 45.01 61.61C45.15 61.82 45.27 62.05 45.36 62.29C45.45 62.52 45.52 62.77 45.56 63.02C45.6 63.27 45.61 63.52 45.59 63.78L45.59 64.01C45.62 64.32 45.6 64.65 45.53 64.96C45.46 65.27 45.34 65.57 45.18 65.85C45.01 66.12 44.81 66.37 44.57 66.58C44.32 66.79 44.05 66.96 43.75 67.08C43.92 67.13 44.09 67.2 44.25 67.28C44.41 67.35 44.56 67.44 44.7 67.55C44.85 67.65 44.98 67.76 45.11 67.89C45.23 68.01 45.35 68.15 45.45 68.29C45.56 68.46 45.65 68.63 45.73 68.8C45.81 68.98 45.87 69.16 45.92 69.35C45.97 69.53 46.01 69.72 46.03 69.92C46.05 70.11 46.06 70.3 46.05 70.49L46.05 70.87C46.07 71.17 46.07 71.47 46.02 71.76C45.98 72.06 45.89 72.34 45.78 72.62C45.66 72.9 45.52 73.16 45.34 73.4C45.16 73.64 44.95 73.85 44.72 74.04C44.44 74.22 44.15 74.38 43.84 74.51C43.54 74.64 43.22 74.75 42.9 74.83C42.58 74.92 42.25 74.97 41.92 75C41.59 75.03 41.25 75.04 40.92 75.02L34.25 75.02L34.25 60.11ZM37.49 62.75L37.49 65.98L40.42 65.98C40.55 65.99 40.68 65.99 40.81 65.98C40.94 65.97 41.07 65.95 41.19 65.92C41.31 65.89 41.44 65.85 41.55 65.79C41.67 65.74 41.78 65.68 41.89 65.6C41.97 65.52 42.03 65.44 42.09 65.34C42.15 65.25 42.19 65.15 42.23 65.05C42.27 64.95 42.29 64.84 42.3 64.73C42.32 64.62 42.32 64.51 42.31 64.4L42.31 64.16C42.32 64.06 42.31 63.95 42.3 63.85C42.29 63.75 42.26 63.65 42.22 63.55C42.18 63.45 42.14 63.36 42.08 63.28C42.02 63.19 41.95 63.11 41.88 63.04C41.78 62.98 41.68 62.92 41.57 62.87C41.46 62.83 41.35 62.79 41.24 62.76C41.13 62.73 41.01 62.71 40.9 62.7C40.78 62.7 40.66 62.7 40.55 62.71L37.49 62.75ZM37.49 72.38L40.65 72.38C40.79 72.39 40.92 72.39 41.06 72.38C41.19 72.37 41.33 72.35 41.46 72.32C41.59 72.29 41.72 72.25 41.85 72.2C41.98 72.14 42.1 72.08 42.21 72.01C42.3 71.92 42.37 71.82 42.44 71.72C42.5 71.61 42.55 71.5 42.59 71.39C42.63 71.27 42.66 71.15 42.67 71.03C42.68 70.91 42.68 70.78 42.67 70.66L42.67 70.37C42.68 70.25 42.68 70.12 42.67 70C42.65 69.87 42.63 69.75 42.59 69.62C42.54 69.5 42.49 69.39 42.42 69.28C42.36 69.17 42.28 69.07 42.19 68.98C42.07 68.91 41.95 68.84 41.82 68.79C41.69 68.73 41.55 68.69 41.41 68.65C41.28 68.62 41.14 68.6 40.99 68.59C40.85 68.58 40.71 68.58 40.57 68.59L37.49 68.59L37.49 72.38Z" />
			<path id="prefix__Path_4121" class="shp0" d="M50.97 61.04C50.98 61.14 50.98 61.26 50.97 61.37C50.96 61.48 50.94 61.58 50.9 61.69C50.87 61.8 50.83 61.9 50.77 61.99C50.72 62.09 50.66 62.18 50.59 62.27C50.36 62.39 50.12 62.49 49.86 62.55C49.61 62.62 49.35 62.65 49.09 62.65C48.83 62.65 48.57 62.62 48.32 62.55C48.07 62.49 47.82 62.39 47.6 62.27C47.52 62.18 47.46 62.09 47.4 62C47.35 61.9 47.3 61.8 47.27 61.69C47.23 61.59 47.21 61.48 47.2 61.37C47.19 61.26 47.19 61.15 47.2 61.04C47.19 60.93 47.19 60.82 47.2 60.71C47.21 60.6 47.24 60.5 47.27 60.39C47.31 60.29 47.35 60.19 47.41 60.1C47.46 60 47.52 59.92 47.6 59.84C47.7 59.76 47.81 59.69 47.93 59.64C48.05 59.58 48.17 59.54 48.29 59.51C48.42 59.47 48.55 59.45 48.67 59.44C48.8 59.43 48.93 59.43 49.06 59.45C49.19 59.43 49.32 59.43 49.45 59.44C49.58 59.45 49.71 59.47 49.83 59.5C49.96 59.54 50.08 59.58 50.19 59.64C50.31 59.69 50.42 59.76 50.53 59.84C50.6 59.91 50.67 60 50.73 60.09C50.79 60.19 50.83 60.29 50.87 60.39C50.91 60.49 50.94 60.6 50.95 60.71C50.97 60.82 50.97 60.93 50.97 61.04L50.97 61.04ZM47.41 64.05L50.74 64.05L50.74 74.99L47.41 74.99L47.41 64.05Z" />
			<path id="prefix__Path_4122" class="shp0" d="M52.14 72.8L57.33 66.67L52.05 66.67L52.56 64.05L61.62 64.05L61.62 66.25L56.39 72.38L61.91 72.38L61.41 75L52.14 75L52.14 72.8Z" />
			<path id="prefix__Path_4123" class="shp0" d="M71.29 60.11L77.89 69.56L77.89 60.11L81.16 60.11L81.16 75L78.31 75L71.77 65.64L71.77 75L68.48 75L68.48 60.11L71.29 60.11Z" />
			<path id="prefix__Path_4124" class="shp0" d="M86.68 61.04C86.69 61.15 86.69 61.26 86.68 61.37C86.66 61.48 86.64 61.59 86.61 61.69C86.57 61.8 86.53 61.9 86.47 62C86.42 62.09 86.35 62.18 86.28 62.27C86.05 62.39 85.81 62.49 85.55 62.55C85.3 62.62 85.04 62.65 84.78 62.65C84.52 62.65 84.26 62.62 84.01 62.55C83.76 62.49 83.52 62.39 83.29 62.27C83.21 62.18 83.15 62.09 83.09 62C83.04 61.9 82.99 61.8 82.96 61.69C82.93 61.59 82.9 61.48 82.89 61.37C82.88 61.26 82.88 61.15 82.89 61.04C82.88 60.93 82.88 60.82 82.89 60.71C82.91 60.6 82.93 60.5 82.96 60.39C83 60.29 83.04 60.19 83.1 60.1C83.15 60.01 83.21 59.92 83.29 59.84C83.51 59.71 83.76 59.61 84.01 59.55C84.26 59.48 84.52 59.45 84.78 59.45C85.04 59.45 85.3 59.48 85.56 59.55C85.81 59.61 86.05 59.71 86.28 59.84C86.35 59.92 86.41 60.01 86.47 60.1C86.52 60.19 86.57 60.29 86.6 60.39C86.64 60.5 86.66 60.6 86.67 60.71C86.69 60.82 86.69 60.93 86.68 61.04ZM83.12 64.05L86.45 64.05L86.45 75L83.12 75L83.12 64.05Z" />
			<path id="prefix__Path_4125" class="shp0" d="M93.34 64.01L94.65 64.01C95.14 64.01 95.79 64.02 96.59 64.05L96.08 66.69L93.47 66.69C93.38 66.68 93.28 66.68 93.19 66.68C93.1 66.67 93.01 66.67 92.92 66.67C92.83 66.68 92.74 66.68 92.65 66.69C92.56 66.69 92.46 66.7 92.37 66.71C92.31 66.72 92.25 66.74 92.19 66.76C92.13 66.78 92.07 66.8 92.02 66.83C91.96 66.86 91.91 66.89 91.86 66.93C91.81 66.96 91.76 67 91.71 67.05C91.67 67.1 91.63 67.15 91.59 67.21C91.56 67.27 91.52 67.33 91.49 67.39C91.47 67.45 91.44 67.52 91.42 67.58C91.4 67.65 91.39 67.71 91.38 67.78C91.36 67.88 91.34 67.98 91.33 68.08C91.32 68.18 91.3 68.29 91.3 68.39C91.29 68.49 91.28 68.59 91.28 68.69C91.28 68.79 91.28 68.9 91.28 69L91.28 70.11C91.28 70.21 91.28 70.31 91.28 70.41C91.28 70.51 91.29 70.61 91.3 70.72C91.3 70.82 91.32 70.92 91.33 71.02C91.34 71.12 91.36 71.22 91.38 71.32C91.39 71.39 91.4 71.46 91.42 71.52C91.44 71.59 91.47 71.65 91.5 71.71C91.52 71.78 91.56 71.84 91.6 71.89C91.63 71.95 91.68 72 91.72 72.06C91.77 72.1 91.82 72.14 91.87 72.17C91.92 72.21 91.98 72.24 92.03 72.27C92.09 72.3 92.15 72.32 92.21 72.34C92.27 72.36 92.33 72.38 92.4 72.38C92.48 72.4 92.57 72.42 92.65 72.43C92.74 72.44 92.83 72.45 92.91 72.46C93 72.46 93.09 72.47 93.18 72.47C93.26 72.47 93.35 72.47 93.44 72.47L95.04 72.47C95.5 72.47 96.02 72.47 96.6 72.43L96.1 75.05L93.35 75.05C93.14 75.05 92.92 75.05 92.7 75.04C92.49 75.03 92.27 75.01 92.05 74.99C91.84 74.97 91.62 74.94 91.41 74.9C91.19 74.86 90.98 74.82 90.77 74.77C90.61 74.73 90.46 74.69 90.31 74.63C90.16 74.58 90.02 74.52 89.88 74.44C89.74 74.37 89.6 74.29 89.47 74.2C89.34 74.11 89.21 74.01 89.09 73.91C88.99 73.81 88.88 73.7 88.79 73.58C88.69 73.46 88.61 73.34 88.53 73.21C88.45 73.08 88.39 72.95 88.33 72.81C88.27 72.67 88.22 72.53 88.19 72.38C88.14 72.2 88.09 72.01 88.06 71.82C88.02 71.63 87.99 71.44 87.97 71.24C87.95 71.05 87.93 70.86 87.92 70.66C87.91 70.47 87.91 70.28 87.91 70.08L87.91 68.97C87.91 68.78 87.91 68.59 87.92 68.39C87.93 68.2 87.95 68.01 87.97 67.82C87.99 67.63 88.02 67.44 88.06 67.25C88.1 67.06 88.14 66.88 88.19 66.69C88.23 66.54 88.29 66.4 88.35 66.26C88.41 66.12 88.48 65.99 88.55 65.86C88.63 65.73 88.72 65.6 88.82 65.48C88.91 65.37 89.01 65.25 89.12 65.15C89.24 65.04 89.37 64.95 89.5 64.86C89.63 64.77 89.77 64.68 89.91 64.61C90.05 64.54 90.2 64.47 90.35 64.42C90.5 64.36 90.65 64.31 90.8 64.28C91.01 64.23 91.22 64.19 91.43 64.15C91.64 64.11 91.85 64.08 92.06 64.06C92.28 64.04 92.49 64.02 92.7 64.01C92.92 64 93.13 64 93.34 64.01L93.34 64.01Z" />
			<path id="prefix__Path_4126" class="shp0" d="M98.01 75L98.01 59.45L101.34 59.45L101.34 64.47C101.42 64.41 101.5 64.35 101.58 64.3C101.67 64.25 101.75 64.2 101.84 64.15C101.93 64.11 102.02 64.07 102.11 64.03C102.2 63.99 102.29 63.96 102.39 63.93C102.53 63.89 102.67 63.86 102.82 63.83C102.97 63.8 103.11 63.77 103.26 63.75C103.41 63.73 103.55 63.72 103.7 63.71C103.85 63.71 104 63.71 104.15 63.71C104.42 63.7 104.69 63.7 104.96 63.73C105.23 63.76 105.5 63.82 105.76 63.89C106.03 63.96 106.28 64.06 106.53 64.18C106.78 64.29 107.01 64.43 107.23 64.58C107.43 64.76 107.61 64.95 107.76 65.17C107.91 65.38 108.04 65.61 108.13 65.86C108.23 66.1 108.3 66.36 108.34 66.61C108.37 66.87 108.38 67.14 108.36 67.4L108.36 75L105.03 75L105.03 68.09C105.03 68.03 105.03 67.97 105.03 67.9C105.02 67.84 105.02 67.78 105.01 67.72C105.01 67.66 105 67.6 104.99 67.54C104.98 67.48 104.97 67.42 104.96 67.35C104.95 67.31 104.94 67.26 104.93 67.21C104.91 67.17 104.89 67.12 104.87 67.08C104.85 67.03 104.83 66.99 104.8 66.95C104.77 66.91 104.75 66.87 104.71 66.83C104.68 66.8 104.64 66.76 104.6 66.73C104.56 66.7 104.51 66.67 104.47 66.64C104.42 66.62 104.37 66.59 104.33 66.57C104.28 66.55 104.23 66.54 104.18 66.53C104.1 66.51 104.03 66.49 103.95 66.48C103.88 66.47 103.8 66.46 103.73 66.45C103.65 66.44 103.57 66.43 103.5 66.43C103.42 66.43 103.35 66.43 103.27 66.43C103.19 66.42 103.11 66.43 103.03 66.43C102.95 66.43 102.87 66.44 102.79 66.45C102.71 66.46 102.63 66.47 102.56 66.48C102.48 66.5 102.4 66.52 102.32 66.54C102.27 66.55 102.21 66.57 102.16 66.59C102.11 66.61 102.05 66.63 102 66.66C101.95 66.69 101.9 66.72 101.86 66.75C101.81 66.79 101.77 66.83 101.73 66.87C101.69 66.91 101.65 66.96 101.62 67C101.59 67.05 101.56 67.1 101.53 67.16C101.51 67.21 101.49 67.26 101.47 67.32C101.45 67.37 101.44 67.43 101.43 67.49C101.41 67.57 101.4 67.64 101.39 67.72C101.38 67.8 101.37 67.88 101.36 67.96C101.35 68.04 101.35 68.12 101.34 68.2C101.34 68.28 101.34 68.36 101.34 68.44L101.34 75.04L98.01 75Z" />
			<path id="prefix__Path_4127" fill-rule="evenodd" class="shp0" d="M113.22 70.64C113.22 70.72 113.22 70.79 113.23 70.86C113.23 70.94 113.24 71.01 113.25 71.08C113.26 71.16 113.27 71.23 113.29 71.3C113.3 71.38 113.32 71.45 113.34 71.52C113.35 71.57 113.37 71.62 113.39 71.67C113.41 71.72 113.43 71.77 113.46 71.82C113.49 71.86 113.52 71.91 113.55 71.95C113.59 71.99 113.63 72.03 113.67 72.06C113.71 72.1 113.76 72.14 113.81 72.17C113.86 72.2 113.92 72.23 113.97 72.25C114.02 72.27 114.08 72.29 114.14 72.31C114.19 72.33 114.25 72.34 114.31 72.35C114.39 72.36 114.48 72.37 114.56 72.38C114.64 72.39 114.73 72.4 114.81 72.41C114.89 72.41 114.98 72.42 115.06 72.42C115.14 72.42 115.23 72.42 115.31 72.42L119.36 72.42L118.88 75.02C118.15 75.02 117.53 75.07 116.93 75.07L114.97 75.07C114.76 75.07 114.55 75.07 114.34 75.06C114.13 75.05 113.93 75.03 113.72 75.01C113.51 74.98 113.31 74.95 113.1 74.9C112.9 74.86 112.7 74.82 112.5 74.76C112.2 74.69 111.92 74.57 111.66 74.42C111.4 74.27 111.16 74.08 110.94 73.86C110.73 73.65 110.55 73.4 110.41 73.14C110.27 72.87 110.16 72.58 110.09 72.29C110.05 72.11 110.01 71.93 109.98 71.74C109.95 71.56 109.92 71.38 109.9 71.2C109.88 71.01 109.87 70.83 109.86 70.64C109.85 70.46 109.85 70.27 109.85 70.09L109.85 68.91C109.85 68.72 109.85 68.52 109.86 68.33C109.87 68.14 109.89 67.94 109.91 67.75C109.93 67.56 109.96 67.37 109.99 67.18C110.03 66.99 110.07 66.8 110.12 66.61C110.16 66.46 110.2 66.32 110.26 66.17C110.32 66.03 110.38 65.89 110.46 65.75C110.53 65.61 110.61 65.48 110.7 65.35C110.79 65.23 110.89 65.11 111 64.99C111.11 64.88 111.23 64.77 111.35 64.68C111.48 64.58 111.61 64.49 111.74 64.41C111.88 64.32 112.02 64.25 112.16 64.18C112.31 64.12 112.46 64.06 112.61 64.02C112.81 63.96 113.01 63.91 113.21 63.87C113.42 63.83 113.62 63.79 113.83 63.76C114.03 63.74 114.24 63.72 114.44 63.71C114.65 63.69 114.86 63.69 115.07 63.7C115.4 63.66 115.74 63.66 116.07 63.7C116.4 63.73 116.73 63.79 117.06 63.88C117.38 63.98 117.69 64.1 117.99 64.26C118.29 64.41 118.57 64.59 118.83 64.8C119.03 65 119.2 65.22 119.35 65.46C119.5 65.69 119.62 65.95 119.72 66.21C119.82 66.47 119.89 66.75 119.93 67.02C119.97 67.3 119.98 67.58 119.96 67.86L119.96 68.3C119.96 68.4 119.96 68.49 119.96 68.58C119.96 68.68 119.95 68.77 119.95 68.87C119.94 68.96 119.93 69.06 119.92 69.15C119.91 69.24 119.9 69.34 119.88 69.43C119.87 69.5 119.86 69.56 119.84 69.63C119.82 69.69 119.8 69.75 119.77 69.82C119.75 69.88 119.72 69.94 119.69 70C119.65 70.05 119.61 70.11 119.57 70.16C119.54 70.21 119.5 70.25 119.45 70.29C119.41 70.33 119.37 70.36 119.32 70.4C119.27 70.43 119.22 70.46 119.17 70.48C119.11 70.51 119.06 70.53 119 70.54C118.93 70.56 118.86 70.58 118.78 70.59C118.71 70.6 118.64 70.61 118.57 70.62C118.49 70.63 118.42 70.64 118.34 70.64C118.27 70.64 118.2 70.65 118.12 70.64L113.22 70.64ZM115.02 66.16C114.94 66.16 114.86 66.16 114.79 66.16C114.71 66.17 114.63 66.17 114.56 66.18C114.48 66.19 114.4 66.2 114.33 66.21C114.25 66.23 114.18 66.24 114.1 66.26C114.05 66.28 114 66.29 113.95 66.31C113.9 66.34 113.85 66.36 113.81 66.39C113.76 66.42 113.72 66.45 113.67 66.48C113.63 66.52 113.6 66.56 113.56 66.6C113.52 66.65 113.49 66.7 113.46 66.75C113.43 66.8 113.41 66.86 113.38 66.91C113.36 66.97 113.34 67.02 113.33 67.08C113.31 67.14 113.3 67.2 113.29 67.26C113.28 67.35 113.26 67.44 113.25 67.53C113.24 67.62 113.23 67.71 113.23 67.8C113.22 67.89 113.22 67.98 113.22 68.07C113.21 68.16 113.21 68.25 113.22 68.34L116.84 68.34C116.84 68.25 116.84 68.16 116.84 68.07C116.84 67.98 116.83 67.89 116.83 67.8C116.82 67.71 116.81 67.62 116.8 67.53C116.79 67.44 116.78 67.35 116.77 67.26C116.76 67.2 116.74 67.14 116.73 67.08C116.71 67.02 116.69 66.97 116.67 66.91C116.64 66.85 116.61 66.8 116.58 66.75C116.55 66.7 116.52 66.65 116.48 66.6C116.44 66.56 116.4 66.52 116.36 66.49C116.32 66.45 116.28 66.42 116.23 66.39C116.18 66.36 116.13 66.34 116.08 66.31C116.03 66.29 115.98 66.28 115.93 66.26C115.85 66.24 115.78 66.23 115.7 66.21C115.63 66.2 115.55 66.19 115.48 66.18C115.4 66.17 115.33 66.17 115.25 66.16C115.17 66.16 115.1 66.16 115.02 66.16L115.02 66.16Z" />
		</g>
		<g id="prefix__mbn-b-red">
			<path id="prefix__Path_4094" fill-rule="evenodd" class="shp1" d="M101.23 52.3C101.34 52.3 101.45 52.28 101.56 52.23C101.66 52.19 101.76 52.12 101.84 52.05C101.91 51.97 101.98 51.87 102.02 51.77C102.07 51.66 102.09 51.55 102.09 51.44L102.09 21.09C102.09 20.98 102.07 20.87 102.02 20.77C101.98 20.66 101.92 20.57 101.84 20.49C101.76 20.41 101.66 20.34 101.56 20.3C101.45 20.26 101.34 20.23 101.23 20.23L90.43 20.23C90.32 20.23 90.21 20.26 90.1 20.3C90 20.34 89.9 20.41 89.82 20.49C89.74 20.57 89.68 20.66 89.64 20.77C89.59 20.87 89.57 20.98 89.57 21.09L89.57 51.43C89.57 51.55 89.59 51.66 89.64 51.76C89.68 51.87 89.74 51.96 89.82 52.04C89.9 52.12 90 52.19 90.1 52.23C90.21 52.27 90.32 52.29 90.43 52.29L101.23 52.29L101.23 52.3ZM120 31.13C120 29.7 119.72 28.29 119.17 26.96C118.62 25.64 117.82 24.44 116.81 23.43C115.8 22.42 114.59 21.61 113.27 21.06C111.95 20.52 110.53 20.23 109.1 20.23L108.28 20.23C108.17 20.23 108.07 20.26 107.97 20.3C107.88 20.34 107.79 20.39 107.72 20.47C107.64 20.54 107.59 20.63 107.55 20.72C107.51 20.82 107.48 20.92 107.48 21.03L107.48 51.44C107.49 51.55 107.51 51.66 107.55 51.77C107.6 51.87 107.66 51.97 107.74 52.05C107.82 52.12 107.91 52.19 108.02 52.23C108.12 52.28 108.23 52.3 108.34 52.3L119.14 52.3C119.26 52.3 119.37 52.28 119.47 52.23C119.58 52.19 119.67 52.13 119.75 52.05C119.83 51.97 119.89 51.87 119.93 51.77C119.98 51.66 120 51.55 120 51.44L120 31.13ZM30.44 51.43L30.44 21.09C30.44 20.98 30.42 20.87 30.38 20.77C30.33 20.66 30.27 20.57 30.19 20.49C30.11 20.41 30.02 20.34 29.91 20.3C29.81 20.26 29.7 20.23 29.58 20.23L18.77 20.23C18.66 20.23 18.55 20.26 18.44 20.3C18.34 20.34 18.24 20.41 18.17 20.49C18.09 20.57 18.02 20.66 17.98 20.77C17.94 20.87 17.92 20.98 17.92 21.09L17.92 51.44C17.92 51.55 17.94 51.66 17.98 51.77C18.03 51.87 18.09 51.97 18.17 52.04C18.25 52.12 18.34 52.19 18.44 52.23C18.55 52.28 18.66 52.3 18.77 52.3L29.58 52.3C29.69 52.3 29.8 52.28 29.9 52.23C30.01 52.19 30.1 52.12 30.18 52.05C30.26 51.97 30.32 51.87 30.37 51.77C30.41 51.66 30.43 51.55 30.44 51.44L30.44 51.43ZM48.35 51.43L48.35 31.13C48.35 29.7 48.07 28.28 47.52 26.96C46.97 25.64 46.17 24.43 45.16 23.42C44.14 22.41 42.94 21.61 41.61 21.06C40.29 20.51 38.87 20.23 37.44 20.24L36.62 20.23C36.52 20.23 36.41 20.25 36.32 20.29C36.22 20.33 36.13 20.39 36.05 20.46C35.98 20.54 35.92 20.62 35.88 20.72C35.84 20.82 35.82 20.92 35.82 21.03L35.82 51.44C35.82 51.55 35.84 51.66 35.88 51.77C35.92 51.87 35.99 51.97 36.07 52.05C36.15 52.13 36.24 52.19 36.35 52.23C36.45 52.28 36.56 52.3 36.67 52.3L47.49 52.3C47.6 52.3 47.71 52.28 47.82 52.23C47.92 52.19 48.02 52.13 48.1 52.05C48.18 51.97 48.24 51.87 48.28 51.77C48.33 51.66 48.35 51.55 48.35 51.44L48.35 51.43ZM12.52 51.43L12.52 21.03C12.53 20.92 12.51 20.82 12.47 20.72C12.43 20.63 12.37 20.54 12.3 20.47C12.22 20.39 12.14 20.33 12.04 20.29C11.95 20.25 11.84 20.23 11.74 20.23L10.91 20.23C9.48 20.23 8.06 20.51 6.73 21.06C5.41 21.61 4.21 22.41 3.2 23.42C2.18 24.44 1.38 25.64 0.83 26.96C0.28 28.28 0 29.7 0 31.14L0 51.44C0 51.55 0.02 51.66 0.07 51.76C0.11 51.87 0.17 51.96 0.25 52.04C0.33 52.12 0.43 52.18 0.53 52.23C0.64 52.27 0.75 52.29 0.86 52.29L11.66 52.29C11.77 52.29 11.88 52.27 11.99 52.23C12.09 52.19 12.19 52.12 12.27 52.04C12.35 51.96 12.41 51.87 12.45 51.76C12.5 51.66 12.52 51.55 12.52 51.44L12.52 51.43ZM84.18 41.39L84.18 31.11C84.17 29.68 83.89 28.26 83.34 26.94C82.79 25.62 81.98 24.42 80.97 23.41C79.95 22.4 78.75 21.6 77.43 21.06C76.1 20.51 74.69 20.23 73.25 20.23L72.45 20.23C72.34 20.23 72.24 20.25 72.14 20.29C72.05 20.33 71.96 20.39 71.89 20.47C71.82 20.54 71.76 20.63 71.72 20.72C71.68 20.82 71.66 20.92 71.66 21.03L71.66 51.51C71.66 51.61 71.68 51.71 71.72 51.81C71.76 51.9 71.82 51.99 71.89 52.06C71.96 52.14 72.05 52.2 72.15 52.24C72.24 52.28 72.34 52.3 72.45 52.3L73.25 52.3C74.69 52.3 76.11 52.02 77.43 51.47C78.76 50.93 79.96 50.12 80.97 49.11C81.99 48.1 82.79 46.89 83.34 45.57C83.89 44.25 84.17 42.83 84.17 41.39L84.18 41.39ZM66.26 51.38L66.26 0.77C66.26 0.64 66.22 0.5 66.15 0.38C66.08 0.26 65.98 0.17 65.86 0.1C65.74 0.03 65.6 0 65.47 0C65.33 0 65.19 0.04 65.08 0.11C54.26 6.05 54.59 5.87 54.59 5.87C54.45 5.92 54.32 6 54.21 6.1C54.09 6.19 54 6.31 53.92 6.44C53.84 6.57 53.79 6.71 53.76 6.85C53.73 7 53.72 7.15 53.74 7.3L53.74 51.38C53.74 51.5 53.76 51.62 53.81 51.73C53.85 51.84 53.92 51.94 54.01 52.03C54.09 52.12 54.19 52.18 54.3 52.23C54.42 52.28 54.54 52.3 54.66 52.3L65.34 52.3C65.46 52.3 65.58 52.28 65.69 52.23C65.8 52.18 65.9 52.12 65.99 52.03C66.07 51.94 66.14 51.84 66.19 51.73C66.23 51.62 66.26 51.5 66.26 51.38Z" />
		</g>
	</g>
</svg>