<svg xmlns="http://www.w3.org/2000/svg" width="136.672" height="59.565" viewBox="0 0 136.672 59.565">
    <defs>
        <clipPath id="prefix__clip-path">
            <path id="prefix__Path_4096" d="M115.5 59.571h-12.3a.978.978 0 0 1-.978-.978V24.03a.978.978 0 0 1 .978-.978h12.3a.978.978 0 0 1 .978.978v34.563a.987.987 0 0 1-.978.978zm21.378-.978V35.467a12.416 12.416 0 0 0-12.416-12.416h-.936a.9.9 0 0 0-.9.9v34.642a.987.987 0 0 0 .978.978h12.3a.978.978 0 0 0 .978-.978zm-102 0V24.03a.978.978 0 0 0-.978-.978H21.588a.97.97 0 0 0-.97.978v34.563a.978.978 0 0 0 .97.978H33.9a.987.987 0 0 0 .978-.978zm20.4 0V35.467a12.416 12.416 0 0 0-12.429-12.416h-.928a.9.9 0 0 0-.92.9v34.642a.978.978 0 0 0 .978.978H54.3a.978.978 0 0 0 .978-.978zm-40.808 0V23.954a.895.895 0 0 0-.895-.9h-.945A12.416 12.416 0 0 0 .21 35.467v23.126a.987.987 0 0 0 .978.978h12.3a.978.978 0 0 0 .978-.978zm81.612-11.446v-11.7a12.416 12.416 0 0 0-12.441-12.396h-.92a.895.895 0 0 0-.895.9v34.717a.9.9 0 0 0 .895.9h.92a12.416 12.416 0 0 0 12.433-12.421zM75.673 58.526V.887a.886.886 0 0 0-1.346-.752C62.012 6.9 62.388 6.69 62.388 6.69a1.555 1.555 0 0 0-.97 1.63v50.206a1.045 1.045 0 0 0 1.045 1.045h12.165a1.045 1.045 0 0 0 1.045-1.045z" class="prefix__cls-1" data-name="Path 4096" transform="translate(-.21 -.006)"/>
        </clipPath>
        <style>
            .prefix__cls-1{fill:#eb1c24}
        </style>
    </defs>
    <g id="prefix__mbn-red" transform="translate(-.133)">
        <path id="prefix__Path_4094" d="M115.5 59.571h-12.3a.978.978 0 0 1-.978-.978V24.03a.978.978 0 0 1 .978-.978h12.3a.978.978 0 0 1 .978.978v34.563a.987.987 0 0 1-.978.978zm21.378-.978V35.467a12.416 12.416 0 0 0-12.416-12.416h-.936a.9.9 0 0 0-.9.9v34.642a.987.987 0 0 0 .978.978h12.3a.978.978 0 0 0 .978-.978zm-102 0V24.03a.978.978 0 0 0-.978-.978H21.588a.97.97 0 0 0-.97.978v34.563a.978.978 0 0 0 .97.978H33.9a.987.987 0 0 0 .978-.978zm20.4 0V35.467a12.416 12.416 0 0 0-12.429-12.416h-.928a.9.9 0 0 0-.92.9v34.642a.978.978 0 0 0 .978.978H54.3a.978.978 0 0 0 .978-.978zm-40.808 0V23.954a.895.895 0 0 0-.895-.9h-.945A12.416 12.416 0 0 0 .21 35.467v23.126a.987.987 0 0 0 .978.978h12.3a.978.978 0 0 0 .978-.978zm81.612-11.446v-11.7a12.416 12.416 0 0 0-12.441-12.396h-.92a.895.895 0 0 0-.895.9v34.717a.9.9 0 0 0 .895.9h.92a12.416 12.416 0 0 0 12.433-12.421zM75.673 58.526V.887a.886.886 0 0 0-1.346-.752C62.012 6.9 62.388 6.69 62.388 6.69a1.555 1.555 0 0 0-.97 1.63v50.206a1.045 1.045 0 0 0 1.045 1.045h12.165a1.045 1.045 0 0 0 1.045-1.045z" class="prefix__cls-1" data-name="Path 4094" transform="translate(-.077 -.006)"/>
        <g id="prefix__Group_796" clip-path="url(#prefix__clip-path)" data-name="Group 796" transform="translate(.133)">
            <path id="prefix__Path_4095" d="M115.5 59.571h-12.3a.978.978 0 0 1-.978-.978V24.03a.978.978 0 0 1 .978-.978h12.3a.978.978 0 0 1 .978.978v34.563a.987.987 0 0 1-.978.978zm21.378-.978V35.467a12.416 12.416 0 0 0-12.416-12.416h-.936a.9.9 0 0 0-.9.9v34.642a.987.987 0 0 0 .978.978h12.3a.978.978 0 0 0 .978-.978zm-102 0V24.03a.978.978 0 0 0-.978-.978H21.588a.97.97 0 0 0-.97.978v34.563a.978.978 0 0 0 .97.978H33.9a.987.987 0 0 0 .978-.978zm20.4 0V35.467a12.416 12.416 0 0 0-12.429-12.416h-.928a.9.9 0 0 0-.92.9v34.642a.978.978 0 0 0 .978.978H54.3a.978.978 0 0 0 .978-.978zm-40.808 0V23.954a.895.895 0 0 0-.895-.9h-.945A12.416 12.416 0 0 0 .21 35.467v23.126a.987.987 0 0 0 .978.978h12.3a.978.978 0 0 0 .978-.978zm81.612-11.446v-11.7a12.416 12.416 0 0 0-12.441-12.396h-.92a.895.895 0 0 0-.895.9v34.717a.9.9 0 0 0 .895.9h.92a12.416 12.416 0 0 0 12.433-12.421zM75.673 58.526V.887a.886.886 0 0 0-1.346-.752C62.012 6.9 62.388 6.69 62.388 6.69a1.555 1.555 0 0 0-.97 1.63v50.206a1.045 1.045 0 0 0 1.045 1.045h12.165a1.045 1.045 0 0 0 1.045-1.045z" class="prefix__cls-1" data-name="Path 4095" transform="translate(-.21 -.006)"/>
        </g>
    </g>
</svg>
