<svg xmlns="http://www.w3.org/2000/svg" viewBox="0 0 120 21" width="120" height="21">
	<style>
		tspan { white-space:pre }
		.shp0 { fill: #222222 } 
		.shp1 { fill: #eb1c24 } 
	</style>
	<g id="prefix__logo-main">
		<g id="prefix__mbn-name">
			<path id="prefix__Path_4118" class="shp0" d="M6.11 12.83L3.25 7.28L3.25 17L0 17L0 2.11L3.67 2.11L7.56 9.71L11.34 2.11L15.01 2.11L15.01 17L11.73 17L11.73 7.18L8.86 12.83L6.11 12.83Z" />
			<path id="prefix__Path_4119" class="shp0" d="M23.87 15.89C23.79 15.94 23.71 15.99 23.62 16.03C23.53 16.08 23.44 16.12 23.36 16.16C23.27 16.2 23.17 16.23 23.08 16.26C22.99 16.29 22.9 16.32 22.8 16.34C22.66 16.38 22.52 16.4 22.37 16.43C22.23 16.45 22.08 16.47 21.94 16.48C21.79 16.5 21.65 16.51 21.5 16.51C21.36 16.52 21.21 16.52 21.06 16.51C20.79 16.53 20.52 16.53 20.25 16.5C19.98 16.47 19.71 16.42 19.45 16.35C19.19 16.28 18.93 16.19 18.68 16.07C18.44 15.96 18.2 15.82 17.98 15.67C17.79 15.49 17.62 15.29 17.48 15.08C17.33 14.86 17.21 14.63 17.12 14.39C17.03 14.14 16.97 13.89 16.93 13.63C16.9 13.37 16.9 13.11 16.92 12.85L16.92 6.06L20.25 6.06L20.25 12.15C20.25 12.21 20.25 12.27 20.25 12.33C20.25 12.39 20.25 12.45 20.26 12.51C20.26 12.58 20.27 12.64 20.27 12.7C20.28 12.76 20.29 12.82 20.3 12.88C20.31 12.93 20.31 12.97 20.33 13.02C20.34 13.07 20.36 13.11 20.38 13.15C20.4 13.2 20.42 13.24 20.45 13.28C20.47 13.32 20.5 13.36 20.53 13.39C20.57 13.43 20.61 13.46 20.65 13.5C20.68 13.53 20.73 13.56 20.77 13.58C20.81 13.61 20.86 13.63 20.9 13.65C20.95 13.67 21 13.69 21.05 13.7C21.12 13.72 21.19 13.74 21.27 13.75C21.34 13.76 21.42 13.77 21.49 13.78C21.57 13.79 21.64 13.8 21.72 13.8C21.79 13.8 21.87 13.8 21.94 13.8C22.02 13.8 22.1 13.8 22.18 13.8C22.27 13.8 22.35 13.79 22.43 13.78C22.51 13.77 22.59 13.76 22.67 13.75C22.75 13.74 22.83 13.72 22.91 13.7C22.96 13.69 23.02 13.67 23.07 13.66C23.12 13.64 23.18 13.62 23.23 13.59C23.28 13.57 23.32 13.54 23.37 13.51C23.42 13.47 23.46 13.44 23.5 13.4C23.54 13.36 23.58 13.32 23.61 13.28C23.64 13.24 23.67 13.19 23.69 13.14C23.72 13.1 23.74 13.05 23.75 13C23.77 12.95 23.79 12.9 23.8 12.84C23.81 12.77 23.82 12.7 23.83 12.63C23.84 12.56 23.85 12.49 23.86 12.42C23.86 12.35 23.87 12.28 23.87 12.21C23.87 12.14 23.87 12.07 23.87 11.99L23.87 6.05L27.2 6.05L27.2 16.09C27.2 16.27 27.2 16.45 27.19 16.63C27.18 16.8 27.16 16.98 27.14 17.16C27.11 17.33 27.08 17.51 27.04 17.68C27.01 17.85 26.96 18.02 26.91 18.19C26.87 18.33 26.82 18.46 26.76 18.59C26.7 18.72 26.63 18.85 26.55 18.97C26.48 19.09 26.39 19.2 26.3 19.31C26.2 19.42 26.1 19.52 25.99 19.62C25.87 19.72 25.75 19.81 25.62 19.9C25.48 19.98 25.35 20.06 25.2 20.13C25.06 20.2 24.92 20.26 24.77 20.31C24.62 20.36 24.47 20.4 24.32 20.44C24.11 20.48 23.9 20.52 23.69 20.56C23.48 20.59 23.27 20.62 23.06 20.64C22.85 20.66 22.64 20.68 22.43 20.69C22.22 20.69 22.01 20.7 21.79 20.69L17.56 20.69L18.06 17.99L21.55 17.99C21.64 17.99 21.73 17.99 21.83 17.99C21.92 17.99 22.01 17.98 22.1 17.98C22.2 17.97 22.29 17.96 22.38 17.95C22.47 17.94 22.56 17.93 22.65 17.92C22.72 17.91 22.79 17.9 22.85 17.88C22.91 17.86 22.98 17.84 23.04 17.82C23.1 17.8 23.16 17.77 23.22 17.74C23.28 17.7 23.33 17.67 23.39 17.63C23.44 17.59 23.48 17.55 23.52 17.51C23.56 17.46 23.6 17.41 23.63 17.36C23.66 17.31 23.69 17.26 23.71 17.2C23.74 17.15 23.76 17.09 23.77 17.03C23.79 16.95 23.8 16.86 23.82 16.78C23.83 16.69 23.84 16.61 23.85 16.52C23.86 16.43 23.86 16.35 23.87 16.26C23.87 16.18 23.87 16.09 23.87 16L23.87 15.89Z" />
			<path id="prefix__Path_4120" fill-rule="evenodd" class="shp0" d="M34.25 2.11L41.09 2.11C41.39 2.09 41.69 2.09 41.99 2.11C42.3 2.14 42.59 2.19 42.88 2.27C43.18 2.35 43.46 2.46 43.73 2.58C44.01 2.71 44.27 2.86 44.52 3.04C44.7 3.21 44.86 3.4 45.01 3.61C45.15 3.82 45.27 4.05 45.36 4.29C45.45 4.52 45.52 4.77 45.56 5.02C45.6 5.27 45.61 5.52 45.59 5.78L45.59 6.01C45.62 6.32 45.6 6.65 45.53 6.96C45.46 7.27 45.34 7.57 45.18 7.85C45.01 8.12 44.81 8.37 44.57 8.58C44.32 8.79 44.05 8.96 43.75 9.08C43.92 9.13 44.09 9.2 44.25 9.28C44.41 9.35 44.56 9.44 44.7 9.55C44.85 9.65 44.98 9.76 45.11 9.89C45.23 10.01 45.35 10.15 45.45 10.29C45.56 10.46 45.65 10.63 45.73 10.8C45.81 10.98 45.87 11.16 45.92 11.35C45.97 11.53 46.01 11.72 46.03 11.92C46.05 12.11 46.06 12.3 46.05 12.49L46.05 12.87C46.07 13.17 46.07 13.47 46.02 13.76C45.98 14.06 45.89 14.34 45.78 14.62C45.66 14.9 45.52 15.16 45.34 15.4C45.16 15.64 44.95 15.85 44.72 16.04C44.44 16.22 44.15 16.38 43.84 16.51C43.54 16.64 43.22 16.75 42.9 16.83C42.58 16.92 42.25 16.97 41.92 17C41.59 17.03 41.25 17.04 40.92 17.02L34.25 17.02L34.25 2.11ZM37.49 4.75L37.49 7.98L40.42 7.98C40.55 7.99 40.68 7.99 40.81 7.98C40.94 7.97 41.07 7.95 41.19 7.92C41.31 7.89 41.44 7.85 41.55 7.79C41.67 7.74 41.78 7.68 41.89 7.6C41.97 7.52 42.03 7.44 42.09 7.34C42.15 7.25 42.19 7.15 42.23 7.05C42.27 6.95 42.29 6.84 42.3 6.73C42.32 6.62 42.32 6.51 42.31 6.4L42.31 6.16C42.32 6.06 42.31 5.95 42.3 5.85C42.29 5.75 42.26 5.65 42.22 5.55C42.18 5.45 42.14 5.36 42.08 5.28C42.02 5.19 41.95 5.11 41.88 5.04C41.78 4.98 41.68 4.92 41.57 4.87C41.46 4.83 41.35 4.79 41.24 4.76C41.13 4.73 41.01 4.71 40.9 4.7C40.78 4.7 40.66 4.7 40.55 4.71L37.49 4.75ZM37.49 14.38L40.65 14.38C40.79 14.39 40.92 14.39 41.06 14.38C41.19 14.37 41.33 14.35 41.46 14.32C41.59 14.29 41.72 14.25 41.85 14.2C41.98 14.14 42.1 14.08 42.21 14.01C42.3 13.92 42.37 13.82 42.44 13.72C42.5 13.61 42.55 13.5 42.59 13.39C42.63 13.27 42.66 13.15 42.67 13.03C42.68 12.91 42.68 12.78 42.67 12.66L42.67 12.37C42.68 12.25 42.68 12.12 42.67 12C42.65 11.87 42.63 11.75 42.59 11.62C42.54 11.5 42.49 11.39 42.42 11.28C42.36 11.17 42.28 11.07 42.19 10.98C42.07 10.91 41.95 10.84 41.82 10.79C41.69 10.73 41.55 10.69 41.41 10.65C41.28 10.62 41.14 10.6 40.99 10.59C40.85 10.58 40.71 10.58 40.57 10.59L37.49 10.59L37.49 14.38Z" />
			<path id="prefix__Path_4121" class="shp0" d="M50.97 3.04C50.98 3.14 50.98 3.26 50.97 3.37C50.96 3.48 50.94 3.58 50.9 3.69C50.87 3.8 50.83 3.9 50.77 3.99C50.72 4.09 50.66 4.18 50.59 4.27C50.36 4.39 50.12 4.49 49.86 4.55C49.61 4.62 49.35 4.65 49.09 4.65C48.83 4.65 48.57 4.62 48.32 4.55C48.07 4.49 47.82 4.39 47.6 4.27C47.52 4.18 47.46 4.09 47.4 4C47.35 3.9 47.3 3.8 47.27 3.69C47.23 3.59 47.21 3.48 47.2 3.37C47.19 3.26 47.19 3.15 47.2 3.04C47.19 2.93 47.19 2.82 47.2 2.71C47.21 2.6 47.24 2.5 47.27 2.39C47.31 2.29 47.35 2.19 47.41 2.1C47.46 2 47.52 1.92 47.6 1.84C47.7 1.76 47.81 1.69 47.93 1.64C48.05 1.58 48.17 1.54 48.29 1.51C48.42 1.47 48.55 1.45 48.67 1.44C48.8 1.43 48.93 1.43 49.06 1.45C49.19 1.43 49.32 1.43 49.45 1.44C49.58 1.45 49.71 1.47 49.83 1.5C49.96 1.54 50.08 1.58 50.19 1.64C50.31 1.69 50.42 1.76 50.53 1.84C50.6 1.91 50.67 2 50.73 2.09C50.79 2.19 50.83 2.29 50.87 2.39C50.91 2.49 50.94 2.6 50.95 2.71C50.97 2.82 50.97 2.93 50.97 3.04L50.97 3.04ZM47.41 6.05L50.74 6.05L50.74 16.99L47.41 16.99L47.41 6.05Z" />
			<path id="prefix__Path_4122" class="shp0" d="M52.14 14.8L57.33 8.67L52.05 8.67L52.56 6.05L61.62 6.05L61.62 8.25L56.39 14.38L61.91 14.38L61.41 17L52.14 17L52.14 14.8Z" />
			<path id="prefix__Path_4123" class="shp0" d="M71.29 2.11L77.89 11.56L77.89 2.11L81.16 2.11L81.16 17L78.31 17L71.77 7.64L71.77 17L68.48 17L68.48 2.11L71.29 2.11Z" />
			<path id="prefix__Path_4124" class="shp0" d="M86.68 3.04C86.69 3.15 86.69 3.26 86.68 3.37C86.66 3.48 86.64 3.59 86.61 3.69C86.57 3.8 86.53 3.9 86.47 4C86.42 4.09 86.35 4.18 86.28 4.27C86.05 4.39 85.81 4.49 85.55 4.55C85.3 4.62 85.04 4.65 84.78 4.65C84.52 4.65 84.26 4.62 84.01 4.55C83.76 4.49 83.52 4.39 83.29 4.27C83.21 4.18 83.15 4.09 83.09 4C83.04 3.9 82.99 3.8 82.96 3.69C82.93 3.59 82.9 3.48 82.89 3.37C82.88 3.26 82.88 3.15 82.89 3.04C82.88 2.93 82.88 2.82 82.89 2.71C82.91 2.6 82.93 2.5 82.96 2.39C83 2.29 83.04 2.19 83.1 2.1C83.15 2.01 83.21 1.92 83.29 1.84C83.51 1.71 83.76 1.61 84.01 1.55C84.26 1.48 84.52 1.45 84.78 1.45C85.04 1.45 85.3 1.48 85.56 1.55C85.81 1.61 86.05 1.71 86.28 1.84C86.35 1.92 86.41 2.01 86.47 2.1C86.52 2.19 86.57 2.29 86.6 2.39C86.64 2.5 86.66 2.6 86.67 2.71C86.69 2.82 86.69 2.93 86.68 3.04ZM83.12 6.05L86.45 6.05L86.45 17L83.12 17L83.12 6.05Z" />
			<path id="prefix__Path_4125" class="shp0" d="M93.34 6.01L94.65 6.01C95.14 6.01 95.79 6.02 96.59 6.05L96.08 8.69L93.47 8.69C93.38 8.68 93.28 8.68 93.19 8.68C93.1 8.67 93.01 8.67 92.92 8.67C92.83 8.68 92.74 8.68 92.65 8.69C92.56 8.69 92.46 8.7 92.37 8.71C92.31 8.72 92.25 8.74 92.19 8.76C92.13 8.78 92.07 8.8 92.02 8.83C91.96 8.86 91.91 8.89 91.86 8.93C91.81 8.96 91.76 9 91.71 9.05C91.67 9.1 91.63 9.15 91.59 9.21C91.56 9.27 91.52 9.33 91.49 9.39C91.47 9.45 91.44 9.52 91.42 9.58C91.4 9.65 91.39 9.71 91.38 9.78C91.36 9.88 91.34 9.98 91.33 10.08C91.32 10.18 91.3 10.29 91.3 10.39C91.29 10.49 91.28 10.59 91.28 10.69C91.28 10.79 91.28 10.9 91.28 11L91.28 12.11C91.28 12.21 91.28 12.31 91.28 12.41C91.28 12.51 91.29 12.61 91.3 12.72C91.3 12.82 91.32 12.92 91.33 13.02C91.34 13.12 91.36 13.22 91.38 13.32C91.39 13.39 91.4 13.46 91.42 13.52C91.44 13.59 91.47 13.65 91.5 13.71C91.52 13.78 91.56 13.84 91.6 13.89C91.63 13.95 91.68 14 91.72 14.06C91.77 14.1 91.82 14.14 91.87 14.17C91.92 14.21 91.98 14.24 92.03 14.27C92.09 14.3 92.15 14.32 92.21 14.34C92.27 14.36 92.33 14.38 92.4 14.38C92.48 14.4 92.57 14.42 92.65 14.43C92.74 14.44 92.83 14.45 92.91 14.46C93 14.46 93.09 14.47 93.18 14.47C93.26 14.47 93.35 14.47 93.44 14.47L95.04 14.47C95.5 14.47 96.02 14.47 96.6 14.43L96.1 17.05L93.35 17.05C93.14 17.05 92.92 17.05 92.7 17.04C92.49 17.03 92.27 17.01 92.05 16.99C91.84 16.97 91.62 16.94 91.41 16.9C91.19 16.86 90.98 16.82 90.77 16.77C90.61 16.73 90.46 16.69 90.31 16.63C90.16 16.58 90.02 16.52 89.88 16.44C89.74 16.37 89.6 16.29 89.47 16.2C89.34 16.11 89.21 16.01 89.09 15.91C88.99 15.81 88.88 15.7 88.79 15.58C88.69 15.46 88.61 15.34 88.53 15.21C88.45 15.08 88.39 14.95 88.33 14.81C88.27 14.67 88.22 14.53 88.19 14.38C88.14 14.2 88.09 14.01 88.06 13.82C88.02 13.63 87.99 13.44 87.97 13.24C87.95 13.05 87.93 12.86 87.92 12.66C87.91 12.47 87.91 12.28 87.91 12.08L87.91 10.97C87.91 10.78 87.91 10.59 87.92 10.39C87.93 10.2 87.95 10.01 87.97 9.82C87.99 9.63 88.02 9.44 88.06 9.25C88.1 9.06 88.14 8.88 88.19 8.69C88.23 8.54 88.29 8.4 88.35 8.26C88.41 8.12 88.48 7.99 88.55 7.86C88.63 7.73 88.72 7.6 88.82 7.48C88.91 7.37 89.01 7.25 89.12 7.15C89.24 7.04 89.37 6.95 89.5 6.86C89.63 6.77 89.77 6.68 89.91 6.61C90.05 6.54 90.2 6.47 90.35 6.42C90.5 6.36 90.65 6.31 90.8 6.28C91.01 6.23 91.22 6.19 91.43 6.15C91.64 6.11 91.85 6.08 92.06 6.06C92.28 6.04 92.49 6.02 92.7 6.01C92.92 6 93.13 6 93.34 6.01L93.34 6.01Z" />
			<path id="prefix__Path_4126" class="shp0" d="M98.01 17L98.01 1.45L101.34 1.45L101.34 6.47C101.42 6.41 101.5 6.35 101.58 6.3C101.67 6.25 101.75 6.2 101.84 6.15C101.93 6.11 102.02 6.07 102.11 6.03C102.2 5.99 102.29 5.96 102.39 5.93C102.53 5.89 102.67 5.86 102.82 5.83C102.97 5.8 103.11 5.77 103.26 5.75C103.41 5.73 103.55 5.72 103.7 5.71C103.85 5.71 104 5.71 104.15 5.71C104.42 5.7 104.69 5.7 104.96 5.73C105.23 5.76 105.5 5.82 105.76 5.89C106.03 5.96 106.28 6.06 106.53 6.18C106.78 6.29 107.01 6.43 107.23 6.58C107.43 6.76 107.61 6.95 107.76 7.17C107.91 7.38 108.04 7.61 108.13 7.86C108.23 8.1 108.3 8.36 108.34 8.61C108.37 8.87 108.38 9.14 108.36 9.4L108.36 17L105.03 17L105.03 10.09C105.03 10.03 105.03 9.97 105.03 9.9C105.02 9.84 105.02 9.78 105.01 9.72C105.01 9.66 105 9.6 104.99 9.54C104.98 9.48 104.97 9.42 104.96 9.35C104.95 9.31 104.94 9.26 104.93 9.21C104.91 9.17 104.89 9.12 104.87 9.08C104.85 9.03 104.83 8.99 104.8 8.95C104.77 8.91 104.75 8.87 104.71 8.83C104.68 8.8 104.64 8.76 104.6 8.73C104.56 8.7 104.51 8.67 104.47 8.64C104.42 8.62 104.37 8.59 104.33 8.57C104.28 8.55 104.23 8.54 104.18 8.53C104.1 8.51 104.03 8.49 103.95 8.48C103.88 8.47 103.8 8.46 103.73 8.45C103.65 8.44 103.57 8.43 103.5 8.43C103.42 8.43 103.35 8.43 103.27 8.43C103.19 8.42 103.11 8.43 103.03 8.43C102.95 8.43 102.87 8.44 102.79 8.45C102.71 8.46 102.63 8.47 102.56 8.48C102.48 8.5 102.4 8.52 102.32 8.54C102.27 8.55 102.21 8.57 102.16 8.59C102.11 8.61 102.05 8.63 102 8.66C101.95 8.69 101.9 8.72 101.86 8.75C101.81 8.79 101.77 8.83 101.73 8.87C101.69 8.91 101.65 8.96 101.62 9C101.59 9.05 101.56 9.1 101.53 9.16C101.51 9.21 101.49 9.26 101.47 9.32C101.45 9.37 101.44 9.43 101.43 9.49C101.41 9.57 101.4 9.64 101.39 9.72C101.38 9.8 101.37 9.88 101.36 9.96C101.35 10.04 101.35 10.12 101.34 10.2C101.34 10.28 101.34 10.36 101.34 10.44L101.34 17.04L98.01 17Z" />
			<path id="prefix__Path_4127" fill-rule="evenodd" class="shp0" d="M113.22 12.64C113.22 12.72 113.22 12.79 113.23 12.86C113.23 12.94 113.24 13.01 113.25 13.08C113.26 13.16 113.27 13.23 113.29 13.3C113.3 13.38 113.32 13.45 113.34 13.52C113.35 13.57 113.37 13.62 113.39 13.67C113.41 13.72 113.43 13.77 113.46 13.82C113.49 13.86 113.52 13.91 113.55 13.95C113.59 13.99 113.63 14.03 113.67 14.06C113.71 14.1 113.76 14.14 113.81 14.17C113.86 14.2 113.92 14.23 113.97 14.25C114.02 14.27 114.08 14.29 114.14 14.31C114.19 14.33 114.25 14.34 114.31 14.35C114.39 14.36 114.48 14.37 114.56 14.38C114.64 14.39 114.73 14.4 114.81 14.41C114.89 14.41 114.98 14.42 115.06 14.42C115.14 14.42 115.23 14.42 115.31 14.42L119.36 14.42L118.88 17.02C118.15 17.02 117.53 17.07 116.93 17.07L114.97 17.07C114.76 17.07 114.55 17.07 114.34 17.06C114.13 17.05 113.93 17.03 113.72 17.01C113.51 16.98 113.31 16.95 113.1 16.9C112.9 16.86 112.7 16.82 112.5 16.76C112.2 16.69 111.92 16.57 111.66 16.42C111.4 16.27 111.16 16.08 110.94 15.86C110.73 15.65 110.55 15.4 110.41 15.14C110.27 14.87 110.16 14.58 110.09 14.29C110.05 14.11 110.01 13.93 109.98 13.74C109.95 13.56 109.92 13.38 109.9 13.2C109.88 13.01 109.87 12.83 109.86 12.64C109.85 12.46 109.85 12.27 109.85 12.09L109.85 10.91C109.85 10.72 109.85 10.52 109.86 10.33C109.87 10.14 109.89 9.94 109.91 9.75C109.93 9.56 109.96 9.37 109.99 9.18C110.03 8.99 110.07 8.8 110.12 8.61C110.16 8.46 110.2 8.32 110.26 8.17C110.32 8.03 110.38 7.89 110.46 7.75C110.53 7.61 110.61 7.48 110.7 7.35C110.79 7.23 110.89 7.11 111 6.99C111.11 6.88 111.23 6.77 111.35 6.68C111.48 6.58 111.61 6.49 111.74 6.41C111.88 6.32 112.02 6.25 112.16 6.18C112.31 6.12 112.46 6.06 112.61 6.02C112.81 5.96 113.01 5.91 113.21 5.87C113.42 5.83 113.62 5.79 113.83 5.76C114.03 5.74 114.24 5.72 114.44 5.71C114.65 5.69 114.86 5.69 115.07 5.7C115.4 5.66 115.74 5.66 116.07 5.7C116.4 5.73 116.73 5.79 117.06 5.88C117.38 5.98 117.69 6.1 117.99 6.26C118.29 6.41 118.57 6.59 118.83 6.8C119.03 7 119.2 7.22 119.35 7.46C119.5 7.69 119.62 7.95 119.72 8.21C119.82 8.47 119.89 8.75 119.93 9.02C119.97 9.3 119.98 9.58 119.96 9.86L119.96 10.3C119.96 10.4 119.96 10.49 119.96 10.58C119.96 10.68 119.95 10.77 119.95 10.87C119.94 10.96 119.93 11.06 119.92 11.15C119.91 11.24 119.9 11.34 119.88 11.43C119.87 11.5 119.86 11.56 119.84 11.63C119.82 11.69 119.8 11.75 119.77 11.82C119.75 11.88 119.72 11.94 119.69 12C119.65 12.05 119.61 12.11 119.57 12.16C119.54 12.21 119.5 12.25 119.45 12.29C119.41 12.33 119.37 12.36 119.32 12.4C119.27 12.43 119.22 12.46 119.17 12.48C119.11 12.51 119.06 12.53 119 12.54C118.93 12.56 118.86 12.58 118.78 12.59C118.71 12.6 118.64 12.61 118.57 12.62C118.49 12.63 118.42 12.64 118.34 12.64C118.27 12.64 118.2 12.65 118.12 12.64L113.22 12.64ZM115.02 8.16C114.94 8.16 114.86 8.16 114.79 8.16C114.71 8.17 114.63 8.17 114.56 8.18C114.48 8.19 114.4 8.2 114.33 8.21C114.25 8.23 114.18 8.24 114.1 8.26C114.05 8.28 114 8.29 113.95 8.31C113.9 8.34 113.85 8.36 113.81 8.39C113.76 8.42 113.72 8.45 113.67 8.48C113.63 8.52 113.6 8.56 113.56 8.6C113.52 8.65 113.49 8.7 113.46 8.75C113.43 8.8 113.41 8.86 113.38 8.91C113.36 8.97 113.34 9.02 113.33 9.08C113.31 9.14 113.3 9.2 113.29 9.26C113.28 9.35 113.26 9.44 113.25 9.53C113.24 9.62 113.23 9.71 113.23 9.8C113.22 9.89 113.22 9.98 113.22 10.07C113.21 10.16 113.21 10.25 113.22 10.34L116.84 10.34C116.84 10.25 116.84 10.16 116.84 10.07C116.84 9.98 116.83 9.89 116.83 9.8C116.82 9.71 116.81 9.62 116.8 9.53C116.79 9.44 116.78 9.35 116.77 9.26C116.76 9.2 116.74 9.14 116.73 9.08C116.71 9.02 116.69 8.97 116.67 8.91C116.64 8.85 116.61 8.8 116.58 8.75C116.55 8.7 116.52 8.65 116.48 8.6C116.44 8.56 116.4 8.52 116.36 8.49C116.32 8.45 116.28 8.42 116.23 8.39C116.18 8.36 116.13 8.34 116.08 8.31C116.03 8.29 115.98 8.28 115.93 8.26C115.85 8.24 115.78 8.23 115.7 8.21C115.63 8.2 115.55 8.19 115.48 8.18C115.4 8.17 115.33 8.17 115.25 8.16C115.17 8.16 115.1 8.16 115.02 8.16L115.02 8.16Z" />
		</g>
		<g id="prefix__mbn-b-red">
			<path id="prefix__Path_4094" fill-rule="evenodd" class="shp1" d="M101.23 -5.7C101.34 -5.7 101.45 -5.72 101.56 -5.77C101.66 -5.81 101.76 -5.88 101.84 -5.95C101.91 -6.03 101.98 -6.13 102.02 -6.23C102.07 -6.34 102.09 -6.45 102.09 -6.56L102.09 -36.91C102.09 -37.02 102.07 -37.13 102.02 -37.23C101.98 -37.34 101.92 -37.43 101.84 -37.51C101.76 -37.59 101.66 -37.66 101.56 -37.7C101.45 -37.74 101.34 -37.77 101.23 -37.77L90.43 -37.77C90.32 -37.77 90.21 -37.74 90.1 -37.7C90 -37.66 89.9 -37.59 89.82 -37.51C89.74 -37.43 89.68 -37.34 89.64 -37.23C89.59 -37.13 89.57 -37.02 89.57 -36.91L89.57 -6.57C89.57 -6.45 89.59 -6.34 89.64 -6.24C89.68 -6.13 89.74 -6.04 89.82 -5.96C89.9 -5.88 90 -5.81 90.1 -5.77C90.21 -5.73 90.32 -5.71 90.43 -5.71L101.23 -5.71L101.23 -5.7ZM120 -26.87C120 -28.3 119.72 -29.71 119.17 -31.04C118.62 -32.36 117.82 -33.56 116.81 -34.57C115.8 -35.58 114.59 -36.39 113.27 -36.94C111.95 -37.48 110.53 -37.77 109.1 -37.77L108.28 -37.77C108.17 -37.77 108.07 -37.74 107.97 -37.7C107.88 -37.66 107.79 -37.61 107.72 -37.53C107.64 -37.46 107.59 -37.37 107.55 -37.28C107.51 -37.18 107.48 -37.08 107.48 -36.97L107.48 -6.56C107.49 -6.45 107.51 -6.34 107.55 -6.23C107.6 -6.13 107.66 -6.03 107.74 -5.95C107.82 -5.88 107.91 -5.81 108.02 -5.77C108.12 -5.72 108.23 -5.7 108.34 -5.7L119.14 -5.7C119.26 -5.7 119.37 -5.72 119.47 -5.77C119.58 -5.81 119.67 -5.87 119.75 -5.95C119.83 -6.03 119.89 -6.13 119.93 -6.23C119.98 -6.34 120 -6.45 120 -6.56L120 -26.87ZM30.44 -6.57L30.44 -36.91C30.44 -37.02 30.42 -37.13 30.38 -37.23C30.33 -37.34 30.27 -37.43 30.19 -37.51C30.11 -37.59 30.02 -37.66 29.91 -37.7C29.81 -37.74 29.7 -37.77 29.58 -37.77L18.77 -37.77C18.66 -37.77 18.55 -37.74 18.44 -37.7C18.34 -37.66 18.24 -37.59 18.17 -37.51C18.09 -37.43 18.02 -37.34 17.98 -37.23C17.94 -37.13 17.92 -37.02 17.92 -36.91L17.92 -6.56C17.92 -6.45 17.94 -6.34 17.98 -6.23C18.03 -6.13 18.09 -6.03 18.17 -5.96C18.25 -5.88 18.34 -5.81 18.44 -5.77C18.55 -5.72 18.66 -5.7 18.77 -5.7L29.58 -5.7C29.69 -5.7 29.8 -5.72 29.9 -5.77C30.01 -5.81 30.1 -5.88 30.18 -5.95C30.26 -6.03 30.32 -6.13 30.37 -6.23C30.41 -6.34 30.43 -6.45 30.44 -6.56L30.44 -6.57ZM48.35 -6.57L48.35 -26.87C48.35 -28.3 48.07 -29.72 47.52 -31.04C46.97 -32.36 46.17 -33.57 45.16 -34.58C44.14 -35.59 42.94 -36.39 41.61 -36.94C40.29 -37.49 38.87 -37.77 37.44 -37.76L36.62 -37.77C36.52 -37.77 36.41 -37.75 36.32 -37.71C36.22 -37.67 36.13 -37.61 36.05 -37.54C35.98 -37.46 35.92 -37.38 35.88 -37.28C35.84 -37.18 35.82 -37.08 35.82 -36.97L35.82 -6.56C35.82 -6.45 35.84 -6.34 35.88 -6.23C35.92 -6.13 35.99 -6.03 36.07 -5.95C36.15 -5.87 36.24 -5.81 36.35 -5.77C36.45 -5.72 36.56 -5.7 36.67 -5.7L47.49 -5.7C47.6 -5.7 47.71 -5.72 47.82 -5.77C47.92 -5.81 48.02 -5.87 48.1 -5.95C48.18 -6.03 48.24 -6.13 48.28 -6.23C48.33 -6.34 48.35 -6.45 48.35 -6.56L48.35 -6.57ZM12.52 -6.57L12.52 -36.97C12.53 -37.08 12.51 -37.18 12.47 -37.28C12.43 -37.37 12.37 -37.46 12.3 -37.53C12.22 -37.61 12.14 -37.67 12.04 -37.71C11.95 -37.75 11.84 -37.77 11.74 -37.77L10.91 -37.77C9.48 -37.77 8.06 -37.49 6.73 -36.94C5.41 -36.39 4.21 -35.59 3.2 -34.58C2.18 -33.56 1.38 -32.36 0.83 -31.04C0.28 -29.72 0 -28.3 0 -26.86L0 -6.56C0 -6.45 0.02 -6.34 0.07 -6.24C0.11 -6.13 0.17 -6.04 0.25 -5.96C0.33 -5.88 0.43 -5.82 0.53 -5.77C0.64 -5.73 0.75 -5.71 0.86 -5.71L11.66 -5.71C11.77 -5.71 11.88 -5.73 11.99 -5.77C12.09 -5.81 12.19 -5.88 12.27 -5.96C12.35 -6.04 12.41 -6.13 12.45 -6.24C12.5 -6.34 12.52 -6.45 12.52 -6.56L12.52 -6.57ZM84.18 -16.61L84.18 -26.89C84.17 -28.32 83.89 -29.74 83.34 -31.06C82.79 -32.38 81.98 -33.58 80.97 -34.59C79.95 -35.6 78.75 -36.4 77.43 -36.94C76.1 -37.49 74.69 -37.77 73.25 -37.77L72.45 -37.77C72.34 -37.77 72.24 -37.75 72.14 -37.71C72.05 -37.67 71.96 -37.61 71.89 -37.53C71.82 -37.46 71.76 -37.37 71.72 -37.28C71.68 -37.18 71.66 -37.08 71.66 -36.97L71.66 -6.49C71.66 -6.39 71.68 -6.29 71.72 -6.19C71.76 -6.1 71.82 -6.01 71.89 -5.94C71.96 -5.86 72.05 -5.8 72.15 -5.76C72.24 -5.72 72.34 -5.7 72.45 -5.7L73.25 -5.7C74.69 -5.7 76.11 -5.98 77.43 -6.53C78.76 -7.07 79.96 -7.88 80.97 -8.89C81.99 -9.9 82.79 -11.11 83.34 -12.43C83.89 -13.75 84.17 -15.17 84.17 -16.61L84.18 -16.61ZM66.26 -6.62L66.26 -57.23C66.26 -57.36 66.22 -57.5 66.15 -57.62C66.08 -57.74 65.98 -57.83 65.86 -57.9C65.74 -57.97 65.6 -58 65.47 -58C65.33 -58 65.19 -57.96 65.08 -57.89C54.26 -51.95 54.59 -52.13 54.59 -52.13C54.45 -52.08 54.32 -52 54.21 -51.9C54.09 -51.81 54 -51.69 53.92 -51.56C53.84 -51.43 53.79 -51.29 53.76 -51.15C53.73 -51 53.72 -50.85 53.74 -50.7L53.74 -6.62C53.74 -6.5 53.76 -6.38 53.81 -6.27C53.85 -6.16 53.92 -6.06 54.01 -5.97C54.09 -5.88 54.19 -5.82 54.3 -5.77C54.42 -5.72 54.54 -5.7 54.66 -5.7L65.34 -5.7C65.46 -5.7 65.58 -5.72 65.69 -5.77C65.8 -5.82 65.9 -5.88 65.99 -5.97C66.07 -6.06 66.14 -6.16 66.19 -6.27C66.23 -6.38 66.26 -6.5 66.26 -6.62Z" />
		</g>
	</g>
</svg>