<svg xmlns="http://www.w3.org/2000/svg" width="520" height="226.627" viewBox="0 0 520 226.627">
    <defs>
        <clipPath id="prefix__clip-path">
            <path id="prefix__Path_5499" d="M438.872 226.634h-46.793a3.722 3.722 0 0 1-3.722-3.722V91.409a3.722 3.722 0 0 1 3.722-3.722h46.793a3.722 3.722 0 0 1 3.722 3.722v131.5a3.754 3.754 0 0 1-3.722 3.722zm81.338-3.722v-87.987a47.238 47.238 0 0 0-47.238-47.238h-3.563a3.436 3.436 0 0 0-3.436 3.436v131.789a3.754 3.754 0 0 0 3.722 3.722h46.793a3.722 3.722 0 0 0 3.722-3.722zm-388.083 0V91.409a3.722 3.722 0 0 0-3.722-3.722H81.548a3.69 3.69 0 0 0-3.69 3.722v131.5a3.722 3.722 0 0 0 3.69 3.722h46.824a3.754 3.754 0 0 0 3.722-3.722zm77.617 0v-87.987a47.238 47.238 0 0 0-47.3-47.238h-3.531a3.436 3.436 0 0 0-3.5 3.436v131.789a3.722 3.722 0 0 0 3.722 3.722h46.855a3.722 3.722 0 0 0 3.722-3.722zm-155.265 0V91.123a3.4 3.4 0 0 0-3.4-3.436H47.48A47.238 47.238 0 0 0 .21 134.925v87.987a3.754 3.754 0 0 0 3.722 3.722h46.792a3.722 3.722 0 0 0 3.722-3.722zm310.5-43.548V134.83a47.238 47.238 0 0 0-47.333-47.143h-3.5a3.4 3.4 0 0 0-3.4 3.436V223.2a3.436 3.436 0 0 0 3.4 3.436h3.5a47.238 47.238 0 0 0 47.3-47.27zm-77.648 43.294V3.358A3.372 3.372 0 0 0 282.207.5c-46.857 25.73-45.425 24.935-45.425 24.935a5.917 5.917 0 0 0-3.69 6.2v191.02a3.976 3.976 0 0 0 3.976 3.976h46.284a3.976 3.976 0 0 0 3.976-3.973z" class="prefix__cls-1" data-name="Path 5499" transform="translate(-.21 -.006)"/>
        </clipPath>
        <style>
            .prefix__cls-1{fill:none;stroke:#eb1c24;stroke-width:2px}
        </style>
    </defs>
    <g id="prefix__mbn-footer">
        <path id="prefix__Path_5498" d="M438.872 226.634h-46.793a3.722 3.722 0 0 1-3.722-3.722V91.409a3.722 3.722 0 0 1 3.722-3.722h46.793a3.722 3.722 0 0 1 3.722 3.722v131.5a3.754 3.754 0 0 1-3.722 3.722zm81.338-3.722v-87.987a47.238 47.238 0 0 0-47.238-47.238h-3.563a3.436 3.436 0 0 0-3.436 3.436v131.789a3.754 3.754 0 0 0 3.722 3.722h46.793a3.722 3.722 0 0 0 3.722-3.722zm-388.083 0V91.409a3.722 3.722 0 0 0-3.722-3.722H81.548a3.69 3.69 0 0 0-3.69 3.722v131.5a3.722 3.722 0 0 0 3.69 3.722h46.824a3.754 3.754 0 0 0 3.722-3.722zm77.617 0v-87.987a47.238 47.238 0 0 0-47.3-47.238h-3.531a3.436 3.436 0 0 0-3.5 3.436v131.789a3.722 3.722 0 0 0 3.722 3.722h46.855a3.722 3.722 0 0 0 3.722-3.722zm-155.265 0V91.123a3.4 3.4 0 0 0-3.4-3.436H47.48A47.238 47.238 0 0 0 .21 134.925v87.987a3.754 3.754 0 0 0 3.722 3.722h46.792a3.722 3.722 0 0 0 3.722-3.722zm310.5-43.548V134.83a47.238 47.238 0 0 0-47.333-47.143h-3.5a3.4 3.4 0 0 0-3.4 3.436V223.2a3.436 3.436 0 0 0 3.4 3.436h3.5a47.238 47.238 0 0 0 47.3-47.27zm-77.648 43.294V3.358A3.372 3.372 0 0 0 282.207.5c-46.857 25.73-45.425 24.935-45.425 24.935a5.917 5.917 0 0 0-3.69 6.2v191.02a3.976 3.976 0 0 0 3.976 3.976h46.284a3.976 3.976 0 0 0 3.976-3.973z" class="prefix__cls-1" data-name="Path 5498" transform="translate(-.21 -.006)"/>
    </g>
</svg>
