<svg xmlns="http://www.w3.org/2000/svg" width="90.765" height="14.808" viewBox="0 0 90.765 14.808">
    <path id="prefix__stars" fill="#eb1c24" d="M86.756 14.681l-3.006-1.627a1.019 1.019 0 0 0-.98 0l-3 1.627a1.062 1.062 0 0 1-1.53-1.146l.387-2.319.187-1.125a1.115 1.115 0 0 0-.3-.962l-.414-.411-2.025-2.028a1.1 1.1 0 0 1 .584-1.854l3.36-.5a1.059 1.059 0 0 0 .793-.595L82.315.6a1.042 1.042 0 0 1 1.891 0l.8 1.674.7 1.462a1.058 1.058 0 0 0 .795.595l.116.019 3.244.483a1.1 1.1 0 0 1 .583 1.854l-2.43 2.439a1.105 1.105 0 0 0-.3.962l.573 3.445a1.078 1.078 0 0 1-1.039 1.272 1.024 1.024 0 0 1-.492-.124zm-18.939 0l-3.006-1.627a1.019 1.019 0 0 0-.98 0l-3 1.627a1.062 1.062 0 0 1-1.53-1.146l.387-2.319.187-1.125a1.115 1.115 0 0 0-.3-.962l-.409-.411-2.03-2.028a1.1 1.1 0 0 1 .585-1.854l3.36-.5a1.059 1.059 0 0 0 .793-.595L63.376.6a1.042 1.042 0 0 1 1.891 0l.8 1.674.7 1.462a1.06 1.06 0 0 0 .8.595l.115.019 3.245.483a1.1 1.1 0 0 1 .583 1.854l-2.43 2.439a1.1 1.1 0 0 0-.3.962l.573 3.445a1.078 1.078 0 0 1-1.039 1.272 1.023 1.023 0 0 1-.497-.124zm-18.939 0l-3.006-1.627a1.019 1.019 0 0 0-.98 0l-3 1.627a1.062 1.062 0 0 1-1.53-1.146l.387-2.319.187-1.125a1.114 1.114 0 0 0-.3-.962l-.409-.411L38.2 6.69a1.1 1.1 0 0 1 .585-1.854l3.36-.5a1.059 1.059 0 0 0 .793-.595L44.437.6a1.042 1.042 0 0 1 1.891 0l.8 1.674.7 1.462a1.059 1.059 0 0 0 .795.595l.116.019 3.245.483a1.1 1.1 0 0 1 .583 1.854l-2.43 2.439a1.1 1.1 0 0 0-.3.962l.573 3.445a1.078 1.078 0 0 1-1.039 1.272 1.023 1.023 0 0 1-.493-.124zm-18.939 0l-3.006-1.627a1.019 1.019 0 0 0-.98 0l-3 1.627a1.062 1.062 0 0 1-1.53-1.146l.387-2.319.187-1.125a1.114 1.114 0 0 0-.3-.962l-.409-.411-2.03-2.028a1.1 1.1 0 0 1 .584-1.854l3.36-.5A1.059 1.059 0 0 0 24 3.74L25.5.6a1.042 1.042 0 0 1 1.891 0l.8 1.674.7 1.462a1.059 1.059 0 0 0 .8.595l.115.019 3.245.483a1.1 1.1 0 0 1 .583 1.854L31.2 9.129a1.1 1.1 0 0 0-.3.962l.573 3.445a1.078 1.078 0 0 1-1.039 1.272 1.023 1.023 0 0 1-.494-.127zm-18.939 0l-3.006-1.627a1.019 1.019 0 0 0-.98 0l-3 1.627a1.062 1.062 0 0 1-1.53-1.146l.387-2.319.187-1.125a1.115 1.115 0 0 0-.3-.962l-.409-.411L.319 6.69A1.1 1.1 0 0 1 .9 4.836l3.36-.5a1.059 1.059 0 0 0 .793-.595L6.559.6a1.042 1.042 0 0 1 1.89 0l.8 1.674.7 1.462a1.059 1.059 0 0 0 .8.595l.115.019 3.245.483a1.1 1.1 0 0 1 .583 1.854l-2.43 2.439a1.1 1.1 0 0 0-.3.962l.573 3.445a1.078 1.078 0 0 1-1.039 1.272 1.024 1.024 0 0 1-.496-.124z"/>
</svg>
